<svg width="306" height="138" viewBox="0 0 306 138" fill="none" xmlns="http://www.w3.org/2000/svg">
<path d="M1.51576 35.4768C2.07248 30.6054 3.42949 26.0473 5.58679 21.8023C7.81368 17.5572 10.7017 13.8342 14.2508 10.633C17.8695 7.43186 22.1145 4.9266 26.9858 3.11726C31.9267 1.23832 37.32 0.298847 43.1656 0.298847C49.2895 0.298847 54.9263 1.30791 60.076 3.32603C65.2257 5.27456 69.6099 7.95378 73.2286 11.3637C76.8473 14.7736 79.6657 18.7403 81.6838 23.2637C83.7715 27.7174 84.8154 32.5192 84.8154 37.6689C84.8154 42.5402 83.8063 46.7156 81.7882 50.1951C79.8397 53.6746 77.6476 56.5626 75.2119 58.8591C72.3587 61.434 69.1576 63.6261 65.6085 65.4354C69.8535 67.3143 73.7853 69.75 77.404 72.7424C80.2572 75.3172 82.9017 78.7619 85.3373 83.0766C87.8426 87.3216 89.0952 92.506 89.0952 98.63C89.0952 103.78 88.0165 108.651 85.8592 113.244C83.7715 117.837 80.7096 121.908 76.6733 125.457C72.7067 128.937 67.9745 131.755 62.4769 133.912C57.0488 136 50.9597 137.044 44.2094 137.044C38.0855 137.044 32.4835 136.139 27.4034 134.33C22.3929 132.451 18.0087 129.911 14.2508 126.71C10.5625 123.509 7.53532 119.785 5.16925 115.54C2.87277 111.226 1.27219 106.633 0.367516 101.762H17.4867C18.6002 107.19 21.4534 111.957 26.0463 116.062C30.6393 120.099 36.6937 122.117 44.2094 122.117C52.769 122.117 59.5541 119.82 64.5646 115.227C69.5751 110.565 72.0804 105.032 72.0804 98.63C72.0804 92.0885 69.5751 86.5213 64.5646 81.9283C59.5541 77.3353 52.769 75.0389 44.2094 75.0389H36.7981V60.1117H43.1656C50.7509 60.1117 56.7357 57.9892 61.1199 53.7442C65.5737 49.4296 67.8006 44.0712 67.8006 37.6689C67.8006 31.2665 65.5737 25.9429 61.1199 21.6979C56.7357 17.3833 50.7509 15.226 43.1656 15.226C39.7556 15.226 36.5893 15.8175 33.6665 17.0005C30.7437 18.114 28.2036 19.6102 26.0463 21.4891C23.889 23.2985 22.1841 25.421 20.9315 27.8566C19.6788 30.2923 18.9133 32.8323 18.635 35.4768H1.51576ZM122.394 68.6714C122.394 77.7877 123.368 85.6862 125.317 92.3669C127.335 99.0475 129.98 104.615 133.25 109.069C136.521 113.453 140.244 116.723 144.42 118.881C148.665 121.038 153.049 122.117 157.572 122.117C162.165 122.117 166.549 121.038 170.725 118.881C174.97 116.723 178.728 113.453 181.998 109.069C185.269 104.615 187.879 99.0475 189.827 92.3669C191.845 85.6862 192.854 77.7877 192.854 68.6714C192.854 59.555 191.845 51.6565 189.827 44.9758C187.879 38.2256 185.269 32.6584 181.998 28.2742C178.728 23.8204 174.97 20.5496 170.725 18.4619C166.549 16.3046 162.165 15.226 157.572 15.226C152.979 15.226 148.595 16.3046 144.42 18.4619C140.244 20.5496 136.521 23.8204 133.25 28.2742C129.98 32.6584 127.335 38.2256 125.317 44.9758C123.368 51.6565 122.394 59.555 122.394 68.6714ZM209.974 68.6714C209.974 79.6666 208.547 89.4093 205.694 97.8993C202.841 106.32 198.978 113.453 194.107 119.298C189.305 125.144 183.773 129.563 177.51 132.555C171.247 135.548 164.601 137.044 157.572 137.044C150.613 137.044 143.967 135.548 137.634 132.555C131.302 129.563 125.735 125.144 120.933 119.298C116.201 113.453 112.408 106.32 109.555 97.8993C106.702 89.4093 105.275 79.6666 105.275 68.6714C105.275 57.6761 106.702 47.9334 109.555 39.4434C112.408 30.9534 116.201 23.8204 120.933 18.0444C125.735 12.1988 131.302 7.77981 137.634 4.78742C143.967 1.79504 150.613 0.298847 157.572 0.298847C164.531 0.298847 171.142 1.79504 177.405 4.78742C183.738 7.77981 189.305 12.1988 194.107 18.0444C198.978 23.8204 202.841 30.9534 205.694 39.4434C208.547 47.9334 209.974 57.6761 209.974 68.6714ZM256.947 123.161V87.8783H223.752V73.995H256.947V38.7127H271.874V73.995H305.069V87.8783H271.874V123.161H256.947Z" fill="black"/>
</svg>
