<svg width="318" height="246" viewBox="0 0 318 246" fill="none" xmlns="http://www.w3.org/2000/svg">
<path d="M7.51576 65.4768C8.07248 60.6054 9.42949 56.0473 11.5868 51.8023C13.8137 47.5572 16.7017 43.8342 20.2508 40.633C23.8695 37.4319 28.1145 34.9266 32.9858 33.1173C37.9267 31.2383 43.32 30.2988 49.1656 30.2988C55.2895 30.2988 60.9263 31.3079 66.076 33.326C71.2257 35.2746 75.6099 37.9538 79.2286 41.3637C82.8473 44.7736 85.6657 48.7403 87.6838 53.2637C89.7715 57.7174 90.8154 62.5192 90.8154 67.6689C90.8154 72.5402 89.8063 76.7156 87.7882 80.1951C85.8397 83.6746 83.6476 86.5626 81.2119 88.8591C78.3587 91.434 75.1576 93.6261 71.6085 95.4354C75.8535 97.3143 79.7853 99.75 83.404 102.742C86.2572 105.317 88.9017 108.762 91.3373 113.077C93.8426 117.322 95.0952 122.506 95.0952 128.63C95.0952 133.78 94.0165 138.651 91.8592 143.244C89.7715 147.837 86.7096 151.908 82.6733 155.457C78.7067 158.937 73.9745 161.755 68.4769 163.912C63.0488 166 56.9597 167.044 50.2094 167.044C44.0855 167.044 38.4835 166.139 33.4034 164.33C28.3929 162.451 24.0087 159.911 20.2508 156.71C16.5625 153.509 13.5353 149.785 11.1692 145.54C8.87277 141.226 7.27219 136.633 6.36752 131.762H23.4867C24.6002 137.19 27.4534 141.957 32.0463 146.062C36.6393 150.099 42.6937 152.117 50.2094 152.117C58.769 152.117 65.5541 149.82 70.5646 145.227C75.5751 140.565 78.0804 135.032 78.0804 128.63C78.0804 122.088 75.5751 116.521 70.5646 111.928C65.5541 107.335 58.769 105.039 50.2094 105.039H42.7981V90.1117H49.1656C56.7509 90.1117 62.7357 87.9892 67.1199 83.7442C71.5737 79.4296 73.8006 74.0712 73.8006 67.6689C73.8006 61.2665 71.5737 55.9429 67.1199 51.6979C62.7357 47.3833 56.7509 45.226 49.1656 45.226C45.7556 45.226 42.5893 45.8175 39.6665 47.0005C36.7437 48.114 34.2036 49.6102 32.0463 51.4891C29.889 53.2985 28.1841 55.421 26.9315 57.8566C25.6788 60.2923 24.9133 62.8323 24.635 65.4768H7.51576ZM128.394 98.6714C128.394 107.788 129.368 115.686 131.317 122.367C133.335 129.048 135.98 134.615 139.25 139.069C142.521 143.453 146.244 146.723 150.42 148.881C154.665 151.038 159.049 152.117 163.572 152.117C168.165 152.117 172.549 151.038 176.725 148.881C180.97 146.723 184.728 143.453 187.998 139.069C191.269 134.615 193.879 129.048 195.827 122.367C197.845 115.686 198.854 107.788 198.854 98.6714C198.854 89.555 197.845 81.6565 195.827 74.9758C193.879 68.2256 191.269 62.6584 187.998 58.2742C184.728 53.8204 180.97 50.5496 176.725 48.4619C172.549 46.3046 168.165 45.226 163.572 45.226C158.979 45.226 154.595 46.3046 150.42 48.4619C146.244 50.5496 142.521 53.8204 139.25 58.2742C135.98 62.6584 133.335 68.2256 131.317 74.9758C129.368 81.6565 128.394 89.555 128.394 98.6714ZM215.974 98.6714C215.974 109.667 214.547 119.409 211.694 127.899C208.841 136.32 204.978 143.453 200.107 149.298C195.305 155.144 189.773 159.563 183.51 162.555C177.247 165.548 170.601 167.044 163.572 167.044C156.613 167.044 149.967 165.548 143.634 162.555C137.302 159.563 131.735 155.144 126.933 149.298C122.201 143.453 118.408 136.32 115.555 127.899C112.702 119.409 111.275 109.667 111.275 98.6714C111.275 87.6761 112.702 77.9334 115.555 69.4434C118.408 60.9534 122.201 53.8204 126.933 48.0444C131.735 42.1988 137.302 37.7798 143.634 34.7874C149.967 31.795 156.613 30.2988 163.572 30.2988C170.531 30.2988 177.142 31.795 183.405 34.7874C189.738 37.7798 195.305 42.1988 200.107 48.0444C204.978 53.8204 208.841 60.9534 211.694 69.4434C214.547 77.9334 215.974 87.6761 215.974 98.6714ZM262.947 153.161V117.878H229.752V103.995H262.947V68.7127H277.874V103.995H311.069V117.878H277.874V153.161H262.947Z" fill="black"/>
<path d="M10.6982 208.593V219.42H8.90147V210.284H3.37035V219.42H1.56187V208.593H10.6982ZM15.6243 214.007C15.6243 214.586 15.7183 215.111 15.9062 215.58C16.0941 216.05 16.3367 216.457 16.6342 216.802C16.9396 217.138 17.2958 217.397 17.7029 217.577C18.11 217.765 18.5406 217.859 18.9947 217.859C19.4409 217.859 19.8715 217.765 20.2864 217.577C20.6935 217.389 21.0498 217.13 21.3551 216.802C21.6604 216.465 21.9031 216.058 22.0832 215.58C22.2711 215.111 22.365 214.586 22.365 214.007C22.365 213.427 22.2711 212.903 22.0832 212.433C21.8953 211.963 21.6526 211.56 21.3551 211.224C21.0498 210.887 20.6935 210.625 20.2864 210.437C19.8793 210.249 19.4487 210.159 18.9947 210.167C18.5484 210.167 18.1178 210.257 17.7029 210.437C17.2958 210.625 16.9396 210.887 16.6342 211.224C16.3289 211.56 16.0862 211.963 15.9062 212.433C15.7183 212.903 15.6243 213.427 15.6243 214.007ZM15.8709 209.803C16.098 209.56 16.3681 209.345 16.6812 209.157C16.9552 208.977 17.2919 208.82 17.6911 208.687C18.0904 208.554 18.5641 208.483 19.1121 208.476C19.801 208.476 20.4548 208.613 21.0732 208.887C21.6917 209.161 22.228 209.54 22.6821 210.026C23.1362 210.511 23.4963 211.094 23.7625 211.775C24.0287 212.449 24.1617 213.193 24.1617 214.007C24.1617 214.821 24.0287 215.569 23.7625 216.25C23.4963 216.923 23.1362 217.502 22.6821 217.988C22.228 218.473 21.6917 218.853 21.0732 219.127C20.4548 219.401 19.801 219.538 19.1121 219.538C18.5641 219.538 18.0904 219.463 17.6911 219.315C17.2919 219.166 16.9552 219.002 16.6812 218.821C16.3602 218.61 16.0901 218.367 15.8709 218.093V223.272H14.0624V208.593H15.3894L15.8709 209.803ZM27.8783 214.007C27.8783 214.586 27.9683 215.111 28.1484 215.58C28.3284 216.05 28.5672 216.457 28.8647 216.802C29.1701 217.138 29.5184 217.397 29.9099 217.577C30.3013 217.765 30.7084 217.859 31.1312 217.859C31.5461 217.859 31.9493 217.765 32.3408 217.577C32.7322 217.389 33.0767 217.13 33.3742 216.802C33.6717 216.465 33.9144 216.058 34.1023 215.58C34.2902 215.111 34.3802 214.586 34.3724 214.007C34.3724 213.427 34.2823 212.903 34.1023 212.433C33.9144 211.963 33.6717 211.56 33.3742 211.224C33.0767 210.887 32.7322 210.625 32.3408 210.437C31.9493 210.249 31.5461 210.159 31.1312 210.167C30.7163 210.167 30.3092 210.257 29.9099 210.437C29.5184 210.625 29.1701 210.887 28.8647 211.224C28.5594 211.56 28.3206 211.963 28.1484 212.433C27.9683 212.903 27.8783 213.427 27.8783 214.007ZM36.1808 214.007C36.1808 214.821 36.0478 215.569 35.7816 216.25C35.5154 216.923 35.1553 217.502 34.7012 217.988C34.2471 218.473 33.7108 218.853 33.0923 219.127C32.4739 219.401 31.8201 219.538 31.1312 219.538C30.4423 219.538 29.7885 219.401 29.1701 219.127C28.5516 218.853 28.0153 218.473 27.5612 217.988C27.1071 217.502 26.7431 216.923 26.4691 216.25C26.2029 215.576 26.0737 214.829 26.0816 214.007C26.0816 213.193 26.2107 212.449 26.4691 211.775C26.7353 211.102 27.0993 210.519 27.5612 210.026C28.0153 209.54 28.5516 209.161 29.1701 208.887C29.7885 208.613 30.4423 208.476 31.1312 208.476C31.8201 208.476 32.4739 208.613 33.0923 208.887C33.7108 209.161 34.2471 209.54 34.7012 210.026C35.1553 210.511 35.5154 211.094 35.7816 211.775C36.0478 212.449 36.1808 213.193 36.1808 214.007ZM47.6128 216.532C47.4327 216.915 47.2057 217.291 46.9317 217.659C46.6577 218.027 46.3367 218.348 45.9687 218.622C45.6008 218.896 45.1858 219.119 44.7239 219.291C44.262 219.463 43.7414 219.546 43.162 219.538C42.4731 219.538 41.8194 219.401 41.2009 219.127C40.5824 218.853 40.0461 218.473 39.5921 217.988C39.138 217.502 38.7739 216.923 38.4999 216.25C38.2337 215.576 38.1046 214.829 38.1124 214.007C38.1124 213.193 38.2416 212.449 38.4999 211.775C38.7661 211.102 39.1262 210.519 39.5803 210.026C40.0266 209.54 40.5511 209.161 41.1539 208.887C41.7568 208.613 42.387 208.476 43.0446 208.476C43.7022 208.476 44.3207 208.605 44.9001 208.863C45.4872 209.121 45.9961 209.486 46.4267 209.955C46.8573 210.425 47.2018 210.997 47.4601 211.67C47.7185 212.335 47.8477 213.075 47.8477 213.889C47.8477 214.046 47.8398 214.183 47.8242 214.3C47.8085 214.41 47.7928 214.504 47.7772 214.582C47.7615 214.676 47.7459 214.766 47.7302 214.852H40.0383C40.0696 215.236 40.1753 215.612 40.3554 215.98C40.5433 216.348 40.7781 216.669 41.06 216.943C41.3418 217.217 41.6667 217.436 42.0347 217.6C42.4026 217.772 42.7784 217.859 43.162 217.859C43.4987 217.859 43.8001 217.812 44.0663 217.718C44.3325 217.624 44.5713 217.51 44.7826 217.377C45.0018 217.252 45.1819 217.111 45.3228 216.954C45.4637 216.806 45.5851 216.665 45.6869 216.532H47.6128ZM43.0446 210.167C42.6767 210.167 42.3244 210.245 41.9877 210.402C41.6589 210.558 41.3614 210.773 41.0952 211.047C40.8212 211.321 40.5902 211.65 40.4024 212.034C40.2145 212.417 40.0931 212.836 40.0383 213.29H45.9217C45.7965 212.327 45.4637 211.564 44.9236 211C44.3912 210.445 43.7649 210.167 43.0446 210.167ZM52.2923 219.42H50.4838V208.593H52.2923V219.42ZM56.8605 219.42L52.2923 213.772L56.379 208.593H58.4223L54.3356 213.643L59.0212 219.42H56.8605ZM59.5083 208.593H68.0458V210.284H64.6754V219.42H62.867V210.284H59.5083V208.593ZM71.046 214.007C71.046 214.586 71.136 215.111 71.3161 215.58C71.4961 216.05 71.7349 216.457 72.0324 216.802C72.3377 217.138 72.6861 217.397 73.0776 217.577C73.469 217.765 73.8761 217.859 74.2989 217.859C74.7138 217.859 75.117 217.765 75.5085 217.577C75.8999 217.389 76.2444 217.13 76.5419 216.802C76.8394 216.465 77.0821 216.058 77.27 215.58C77.4579 215.111 77.5479 214.586 77.5401 214.007C77.5401 213.427 77.45 212.903 77.27 212.433C77.0821 211.963 76.8394 211.56 76.5419 211.224C76.2444 210.887 75.8999 210.625 75.5085 210.437C75.117 210.249 74.7138 210.159 74.2989 210.167C73.884 210.167 73.4769 210.257 73.0776 210.437C72.6861 210.625 72.3377 210.887 72.0324 211.224C71.7271 211.56 71.4883 211.963 71.3161 212.433C71.136 212.903 71.046 213.427 71.046 214.007ZM79.3485 214.007C79.3485 214.821 79.2154 215.569 78.9493 216.25C78.6831 216.923 78.3229 217.502 77.8689 217.988C77.4148 218.473 76.8785 218.853 76.26 219.127C75.6415 219.401 74.9878 219.538 74.2989 219.538C73.6099 219.538 72.9562 219.401 72.3377 219.127C71.7193 218.853 71.183 218.473 70.7289 217.988C70.2748 217.502 69.9108 216.923 69.6368 216.25C69.3706 215.576 69.2414 214.829 69.2492 214.007C69.2492 213.193 69.3784 212.449 69.6368 211.775C69.903 211.102 70.267 210.519 70.7289 210.026C71.183 209.54 71.7193 209.161 72.3377 208.887C72.9562 208.613 73.6099 208.476 74.2989 208.476C74.9878 208.476 75.6415 208.613 76.26 208.887C76.8785 209.161 77.4148 209.54 77.8689 210.026C78.3229 210.511 78.6831 211.094 78.9493 211.775C79.2154 212.449 79.3485 213.193 79.3485 214.007ZM88.6079 213.772C88.9133 213.913 89.1951 214.097 89.4535 214.324C89.6649 214.52 89.8567 214.778 90.0289 215.099C90.209 215.412 90.299 215.811 90.299 216.297C90.299 217.213 90.0054 217.964 89.4182 218.551C88.8311 219.131 88.0795 219.42 87.1635 219.42H81.9964V208.593H86.8112C87.2575 208.593 87.6724 208.671 88.056 208.828C88.4396 208.977 88.7684 209.188 89.0425 209.462C89.3165 209.736 89.5318 210.057 89.6883 210.425C89.8527 210.793 89.9349 211.184 89.9349 211.599C89.9349 211.999 89.8645 212.331 89.7236 212.598C89.5905 212.864 89.4378 213.087 89.2656 213.267C89.0699 213.463 88.8506 213.631 88.6079 213.772ZM83.8049 210.284V213.044H86.5646C87.0422 213.044 87.4219 212.918 87.7037 212.668C87.9855 212.41 88.1265 212.096 88.1265 211.729C88.1265 211.314 87.9855 210.969 87.7037 210.695C87.4297 210.421 87.05 210.284 86.5646 210.284H83.8049ZM86.9286 217.741C87.3436 217.741 87.7076 217.585 88.0208 217.271C88.3339 216.958 88.4905 216.594 88.4905 216.179C88.4905 215.999 88.4514 215.823 88.3731 215.651C88.2948 215.471 88.1813 215.314 88.0325 215.181C87.8916 215.04 87.7233 214.931 87.5276 214.852C87.3397 214.774 87.14 214.735 86.9286 214.735H83.8049V217.741H86.9286ZM100.034 214.007C100.034 214.586 100.128 215.111 100.316 215.58C100.504 216.05 100.746 216.457 101.044 216.802C101.349 217.138 101.705 217.397 102.112 217.577C102.519 217.765 102.95 217.859 103.404 217.859C103.85 217.859 104.281 217.765 104.696 217.577C105.103 217.389 105.459 217.13 105.765 216.802C106.07 216.465 106.313 216.058 106.493 215.58C106.681 215.111 106.774 214.586 106.774 214.007C106.774 213.427 106.681 212.903 106.493 212.433C106.305 211.963 106.062 211.56 105.765 211.224C105.459 210.887 105.103 210.625 104.696 210.437C104.289 210.249 103.858 210.159 103.404 210.167C102.958 210.167 102.527 210.257 102.112 210.437C101.705 210.625 101.349 210.887 101.044 211.224C100.738 211.56 100.496 211.963 100.316 212.433C100.128 212.903 100.034 213.427 100.034 214.007ZM100.28 209.803C100.507 209.56 100.778 209.345 101.091 209.157C101.365 208.977 101.701 208.82 102.101 208.687C102.5 208.554 102.974 208.483 103.522 208.476C104.21 208.476 104.864 208.613 105.483 208.887C106.101 209.161 106.637 209.54 107.092 210.026C107.546 210.511 107.906 211.094 108.172 211.775C108.438 212.449 108.571 213.193 108.571 214.007C108.571 214.821 108.438 215.569 108.172 216.25C107.906 216.923 107.546 217.502 107.092 217.988C106.637 218.473 106.101 218.853 105.483 219.127C104.864 219.401 104.21 219.538 103.522 219.538C102.974 219.538 102.5 219.463 102.101 219.315C101.701 219.166 101.365 219.002 101.091 218.821C100.77 218.61 100.5 218.367 100.28 218.093V223.272H98.4719V208.593H99.7989L100.28 209.803ZM119.991 216.532C119.811 216.915 119.584 217.291 119.31 217.659C119.036 218.027 118.715 218.348 118.347 218.622C117.979 218.896 117.564 219.119 117.103 219.291C116.641 219.463 116.12 219.546 115.541 219.538C114.852 219.538 114.198 219.401 113.58 219.127C112.961 218.853 112.425 218.473 111.971 217.988C111.517 217.502 111.153 216.923 110.879 216.25C110.612 215.576 110.483 214.829 110.491 214.007C110.491 213.193 110.62 212.449 110.879 211.775C111.145 211.102 111.505 210.519 111.959 210.026C112.405 209.54 112.93 209.161 113.533 208.887C114.135 208.613 114.766 208.476 115.423 208.476C116.081 208.476 116.699 208.605 117.279 208.863C117.866 209.121 118.375 209.486 118.805 209.955C119.236 210.425 119.58 210.997 119.839 211.67C120.097 212.335 120.226 213.075 120.226 213.889C120.226 214.046 120.218 214.183 120.203 214.3C120.187 214.41 120.171 214.504 120.156 214.582C120.14 214.676 120.124 214.766 120.109 214.852H112.417C112.448 215.236 112.554 215.612 112.734 215.98C112.922 216.348 113.157 216.669 113.439 216.943C113.72 217.217 114.045 217.436 114.413 217.6C114.781 217.772 115.157 217.859 115.541 217.859C115.877 217.859 116.179 217.812 116.445 217.718C116.711 217.624 116.95 217.51 117.161 217.377C117.38 217.252 117.561 217.111 117.701 216.954C117.842 216.806 117.964 216.665 118.065 216.532H119.991ZM115.423 210.167C115.055 210.167 114.703 210.245 114.366 210.402C114.038 210.558 113.74 210.773 113.474 211.047C113.2 211.321 112.969 211.65 112.781 212.034C112.593 212.417 112.472 212.836 112.417 213.29H118.3C118.175 212.327 117.842 211.564 117.302 211C116.77 210.445 116.143 210.167 115.423 210.167ZM126.949 208.476C127.544 208.476 128.096 208.577 128.605 208.781C129.114 208.984 129.544 209.251 129.897 209.579C130.257 209.916 130.539 210.311 130.742 210.766C130.946 211.212 131.044 211.693 131.036 212.21V219.42H129.721L129.239 218.223C128.996 218.481 128.722 218.704 128.417 218.892C128.143 219.072 127.806 219.225 127.407 219.35C127.008 219.475 126.534 219.538 125.986 219.538C125.438 219.538 124.945 219.456 124.506 219.291C124.068 219.119 123.692 218.884 123.379 218.587C123.066 218.289 122.823 217.945 122.651 217.553C122.471 217.162 122.381 216.743 122.381 216.297C122.381 215.78 122.487 215.31 122.698 214.887C122.909 214.465 123.27 214.097 123.778 213.784C124.295 213.47 124.996 213.228 125.88 213.056C126.773 212.883 127.892 212.801 129.239 212.809V212.21C129.239 211.662 129.028 211.184 128.605 210.777C128.182 210.37 127.63 210.167 126.949 210.167C126.276 210.167 125.779 210.304 125.458 210.578C125.137 210.859 124.914 211.243 124.788 211.729H122.862C122.925 211.282 123.062 210.859 123.273 210.46C123.485 210.069 123.763 209.724 124.107 209.427C124.452 209.129 124.859 208.898 125.329 208.734C125.798 208.562 126.338 208.476 126.949 208.476ZM125.986 217.859C126.464 217.859 126.906 217.78 127.313 217.624C127.712 217.475 128.053 217.279 128.335 217.037C128.617 216.794 128.836 216.528 128.992 216.238C129.149 215.94 129.231 215.639 129.239 215.334V214.488C128.151 214.488 127.278 214.531 126.62 214.617C125.963 214.703 125.454 214.833 125.094 215.005C124.734 215.177 124.491 215.377 124.366 215.604C124.248 215.839 124.189 216.109 124.189 216.414C124.189 216.782 124.354 217.115 124.683 217.412C125.004 217.71 125.438 217.859 125.986 217.859ZM142.703 208.593V219.42H140.894V210.167H136.925L136.573 215.933C136.494 217.083 136.162 217.972 135.574 218.598C134.987 219.225 134.236 219.538 133.32 219.538C133.226 219.538 133.136 219.534 133.05 219.526C132.971 219.518 132.893 219.507 132.815 219.491C132.736 219.475 132.666 219.452 132.603 219.42V217.859H132.838C134.013 217.859 134.654 217.217 134.764 215.933L135.363 208.593H142.703ZM155.215 208.593V219.42H153.418V211.364L147.887 219.42H146.079V208.593H147.887V216.649L153.418 208.593H155.215ZM163.746 213.889C164.036 214.046 164.294 214.238 164.521 214.465C164.717 214.66 164.897 214.911 165.061 215.216C165.234 215.522 165.32 215.882 165.32 216.297C165.32 216.743 165.23 217.162 165.05 217.553C164.878 217.945 164.631 218.289 164.31 218.587C163.989 218.884 163.597 219.119 163.136 219.291C162.682 219.456 162.165 219.538 161.585 219.538C160.38 219.538 159.433 219.217 158.744 218.575C158.055 217.933 157.679 217.134 157.616 216.179H159.425C159.487 216.657 159.695 217.056 160.047 217.377C160.399 217.698 160.912 217.859 161.585 217.859C162.196 217.859 162.67 217.702 163.006 217.389C163.343 217.076 163.511 216.712 163.511 216.297C163.511 215.882 163.339 215.518 162.995 215.205C162.65 214.891 162.18 214.735 161.585 214.735H160.623V213.044H161.585C162.063 213.044 162.462 212.911 162.783 212.644C163.104 212.37 163.265 212.022 163.265 211.599C163.265 211.184 163.104 210.844 162.783 210.578C162.47 210.304 162.071 210.167 161.585 210.167C160.912 210.167 160.419 210.323 160.106 210.636C159.793 210.942 159.605 211.306 159.542 211.729H157.734C157.796 210.766 158.152 209.983 158.802 209.38C159.46 208.777 160.388 208.476 161.585 208.476C162.102 208.476 162.572 208.562 162.995 208.734C163.417 208.898 163.785 209.125 164.099 209.415C164.412 209.705 164.65 210.037 164.815 210.413C164.987 210.789 165.073 211.184 165.073 211.599C165.073 211.999 165.003 212.339 164.862 212.621C164.729 212.903 164.576 213.142 164.404 213.337C164.208 213.564 163.989 213.748 163.746 213.889ZM169.154 214.007C169.154 214.586 169.244 215.111 169.424 215.58C169.604 216.05 169.843 216.457 170.14 216.802C170.446 217.138 170.794 217.397 171.185 217.577C171.577 217.765 171.984 217.859 172.407 217.859C172.822 217.859 173.225 217.765 173.616 217.577C174.008 217.389 174.352 217.13 174.65 216.802C174.947 216.465 175.19 216.058 175.378 215.58C175.566 215.111 175.656 214.586 175.648 214.007C175.648 213.427 175.558 212.903 175.378 212.433C175.19 211.963 174.947 211.56 174.65 211.224C174.352 210.887 174.008 210.625 173.616 210.437C173.225 210.249 172.822 210.159 172.407 210.167C171.992 210.167 171.585 210.257 171.185 210.437C170.794 210.625 170.446 210.887 170.14 211.224C169.835 211.56 169.596 211.963 169.424 212.433C169.244 212.903 169.154 213.427 169.154 214.007ZM177.456 214.007C177.456 214.821 177.323 215.569 177.057 216.25C176.791 216.923 176.431 217.502 175.977 217.988C175.523 218.473 174.986 218.853 174.368 219.127C173.749 219.401 173.096 219.538 172.407 219.538C171.718 219.538 171.064 219.401 170.446 219.127C169.827 218.853 169.291 218.473 168.837 217.988C168.383 217.502 168.019 216.923 167.745 216.25C167.478 215.576 167.349 214.829 167.357 214.007C167.357 213.193 167.486 212.449 167.745 211.775C168.011 211.102 168.375 210.519 168.837 210.026C169.291 209.54 169.827 209.161 170.446 208.887C171.064 208.613 171.718 208.476 172.407 208.476C173.096 208.476 173.749 208.613 174.368 208.887C174.986 209.161 175.523 209.54 175.977 210.026C176.431 210.511 176.791 211.094 177.057 211.775C177.323 212.449 177.456 213.193 177.456 214.007ZM186.716 213.772C187.021 213.913 187.303 214.097 187.561 214.324C187.773 214.52 187.965 214.778 188.137 215.099C188.317 215.412 188.407 215.811 188.407 216.297C188.407 217.213 188.113 217.964 187.526 218.551C186.939 219.131 186.187 219.42 185.271 219.42H180.104V208.593H184.919C185.365 208.593 185.78 208.671 186.164 208.828C186.547 208.977 186.876 209.188 187.15 209.462C187.424 209.736 187.64 210.057 187.796 210.425C187.961 210.793 188.043 211.184 188.043 211.599C188.043 211.999 187.972 212.331 187.831 212.598C187.698 212.864 187.546 213.087 187.373 213.267C187.178 213.463 186.959 213.631 186.716 213.772ZM181.913 210.284V213.044H184.672C185.15 213.044 185.53 212.918 185.812 212.668C186.093 212.41 186.234 212.096 186.234 211.729C186.234 211.314 186.093 210.969 185.812 210.695C185.538 210.421 185.158 210.284 184.672 210.284H181.913ZM185.037 217.741C185.451 217.741 185.815 217.585 186.129 217.271C186.442 216.958 186.598 216.594 186.598 216.179C186.598 215.999 186.559 215.823 186.481 215.651C186.403 215.471 186.289 215.314 186.14 215.181C185.999 215.04 185.831 214.931 185.635 214.852C185.448 214.774 185.248 214.735 185.037 214.735H181.913V217.741H185.037ZM195.259 208.476C195.854 208.476 196.406 208.577 196.915 208.781C197.424 208.984 197.854 209.251 198.206 209.579C198.567 209.916 198.848 210.311 199.052 210.766C199.256 211.212 199.353 211.693 199.346 212.21V219.42H198.03L197.549 218.223C197.306 218.481 197.032 218.704 196.727 218.892C196.453 219.072 196.116 219.225 195.717 219.35C195.318 219.475 194.844 219.538 194.296 219.538C193.748 219.538 193.255 219.456 192.816 219.291C192.378 219.119 192.002 218.884 191.689 218.587C191.376 218.289 191.133 217.945 190.961 217.553C190.781 217.162 190.691 216.743 190.691 216.297C190.691 215.78 190.796 215.31 191.008 214.887C191.219 214.465 191.579 214.097 192.088 213.784C192.605 213.47 193.306 213.228 194.19 213.056C195.083 212.883 196.202 212.801 197.549 212.809V212.21C197.549 211.662 197.337 211.184 196.915 210.777C196.492 210.37 195.94 210.167 195.259 210.167C194.586 210.167 194.088 210.304 193.767 210.578C193.446 210.859 193.223 211.243 193.098 211.729H191.172C191.235 211.282 191.372 210.859 191.583 210.46C191.795 210.069 192.072 209.724 192.417 209.427C192.761 209.129 193.169 208.898 193.638 208.734C194.108 208.562 194.648 208.476 195.259 208.476ZM194.296 217.859C194.773 217.859 195.216 217.78 195.623 217.624C196.022 217.475 196.363 217.279 196.645 217.037C196.926 216.794 197.146 216.528 197.302 216.238C197.459 215.94 197.541 215.639 197.549 215.334V214.488C196.461 214.488 195.588 214.531 194.93 214.617C194.272 214.703 193.764 214.833 193.403 215.005C193.043 215.177 192.801 215.377 192.675 215.604C192.558 215.839 192.499 216.109 192.499 216.414C192.499 216.782 192.664 217.115 192.992 217.412C193.313 217.71 193.748 217.859 194.296 217.859ZM211.729 208.593V219.42H209.932V214.735H204.401V219.42H202.592V208.593H204.401V213.044H209.932V208.593H211.729ZM216.173 214.007C216.173 214.586 216.263 215.111 216.443 215.58C216.624 216.05 216.862 216.457 217.16 216.802C217.465 217.138 217.813 217.397 218.205 217.577C218.596 217.765 219.003 217.859 219.426 217.859C219.841 217.859 220.244 217.765 220.636 217.577C221.027 217.389 221.372 217.13 221.669 216.802C221.967 216.465 222.209 216.058 222.397 215.58C222.585 215.111 222.675 214.586 222.667 214.007C222.667 213.427 222.577 212.903 222.397 212.433C222.209 211.963 221.967 211.56 221.669 211.224C221.372 210.887 221.027 210.625 220.636 210.437C220.244 210.249 219.841 210.159 219.426 210.167C219.011 210.167 218.604 210.257 218.205 210.437C217.813 210.625 217.465 210.887 217.16 211.224C216.854 211.56 216.616 211.963 216.443 212.433C216.263 212.903 216.173 213.427 216.173 214.007ZM224.476 214.007C224.476 214.821 224.343 215.569 224.077 216.25C223.81 216.923 223.45 217.502 222.996 217.988C222.542 218.473 222.006 218.853 221.387 219.127C220.769 219.401 220.115 219.538 219.426 219.538C218.737 219.538 218.084 219.401 217.465 219.127C216.847 218.853 216.31 218.473 215.856 217.988C215.402 217.502 215.038 216.923 214.764 216.25C214.498 215.576 214.369 214.829 214.377 214.007C214.377 213.193 214.506 212.449 214.764 211.775C215.03 211.102 215.394 210.519 215.856 210.026C216.31 209.54 216.847 209.161 217.465 208.887C218.084 208.613 218.737 208.476 219.426 208.476C220.115 208.476 220.769 208.613 221.387 208.887C222.006 209.161 222.542 209.54 222.996 210.026C223.45 210.511 223.81 211.094 224.077 211.775C224.343 212.449 224.476 213.193 224.476 214.007Z" fill="black"/>
</svg>
