<svg width="159" height="249" viewBox="0 0 159 249" fill="none" xmlns="http://www.w3.org/2000/svg">
<path d="M32.7656 46.2969H27.7031V56H21.9727V46.2969H1.79297V41.5859L20.8828 10.6484H27.7031V41.2344H32.7656V46.2969ZM21.9727 41.2344V18.9102L8.29688 41.2344H21.9727Z" fill="black"/>
<path d="M10.0068 77.8965V86H8.66211V82.4932H4.52246V86H3.16895V77.8965H4.52246V81.2275H8.66211V77.8965H10.0068ZM15.5833 77.8086C16.0286 77.8086 16.4417 77.8848 16.8226 78.0371C17.2034 78.1895 17.5257 78.3887 17.7894 78.6348C18.0589 78.8867 18.2698 79.1826 18.4222 79.5225C18.5745 79.8564 18.6478 80.2168 18.6419 80.6035V86H17.6575L17.2972 85.1035C17.1155 85.2969 16.9105 85.4639 16.682 85.6045C16.4769 85.7393 16.2249 85.8535 15.9261 85.9473C15.6273 86.041 15.2728 86.0879 14.8626 86.0879C14.4525 86.0879 14.0833 86.0264 13.7552 85.9033C13.4271 85.7744 13.1458 85.5986 12.9114 85.376C12.6771 85.1533 12.4954 84.8955 12.3665 84.6025C12.2318 84.3096 12.1644 83.9961 12.1644 83.6621C12.1644 83.2754 12.2435 82.9238 12.4017 82.6074C12.5599 82.291 12.8294 82.0156 13.2103 81.7812C13.597 81.5469 14.1214 81.3652 14.7835 81.2363C15.4515 81.1074 16.2894 81.0459 17.2972 81.0518V80.6035C17.2972 80.1934 17.139 79.8359 16.8226 79.5312C16.5062 79.2266 16.0931 79.0742 15.5833 79.0742C15.0794 79.0742 14.7073 79.1768 14.4671 79.3818C14.2269 79.5928 14.0599 79.8799 13.9661 80.2432H12.5247C12.5716 79.9092 12.6741 79.5928 12.8323 79.2939C12.9905 79.001 13.1986 78.7432 13.4564 78.5205C13.7142 78.2979 14.0189 78.125 14.3704 78.002C14.722 77.873 15.1263 77.8086 15.5833 77.8086ZM14.8626 84.8311C15.22 84.8311 15.5511 84.7725 15.8558 84.6553C16.1546 84.5439 16.4095 84.3975 16.6204 84.2158C16.8314 84.0342 16.9954 83.835 17.1126 83.6182C17.2298 83.3955 17.2913 83.1699 17.2972 82.9414V82.3086C16.4827 82.3086 15.8294 82.3408 15.3372 82.4053C14.845 82.4697 14.4642 82.5664 14.1946 82.6953C13.9251 82.8242 13.7435 82.9736 13.6497 83.1436C13.5618 83.3193 13.5179 83.5215 13.5179 83.75C13.5179 84.0254 13.6409 84.2744 13.887 84.4971C14.1273 84.7197 14.4525 84.8311 14.8626 84.8311ZM27.9098 77.8965V86H26.5651V79.1621H22.4254V86H21.0719V77.8965H27.9098ZM31.5966 81.9482C31.5966 82.3818 31.667 82.7744 31.8076 83.126C31.9482 83.4775 32.1298 83.7822 32.3525 84.04C32.581 84.292 32.8476 84.4854 33.1523 84.6201C33.457 84.7607 33.7793 84.8311 34.1191 84.8311C34.4531 84.8311 34.7754 84.7607 35.0859 84.6201C35.3906 84.4795 35.6572 84.2861 35.8857 84.04C36.1142 83.7881 36.2959 83.4834 36.4306 83.126C36.5713 82.7744 36.6416 82.3818 36.6416 81.9482C36.6416 81.5146 36.5713 81.1221 36.4306 80.7705C36.29 80.4189 36.1084 80.1172 35.8857 79.8652C35.6572 79.6133 35.3906 79.417 35.0859 79.2764C34.7812 79.1357 34.4589 79.0684 34.1191 79.0742C33.7851 79.0742 33.4629 79.1416 33.1523 79.2764C32.8476 79.417 32.581 79.6133 32.3525 79.8652C32.124 80.1172 31.9423 80.4189 31.8076 80.7705C31.667 81.1221 31.5966 81.5146 31.5966 81.9482ZM31.7812 78.8018C31.9511 78.6201 32.1533 78.459 32.3877 78.3184C32.5927 78.1836 32.8447 78.0664 33.1435 77.9668C33.4423 77.8672 33.7968 77.8145 34.207 77.8086C34.7226 77.8086 35.2119 77.9111 35.6748 78.1162C36.1377 78.3213 36.539 78.6055 36.8789 78.9688C37.2187 79.332 37.4882 79.7686 37.6875 80.2783C37.8867 80.7822 37.9863 81.3389 37.9863 81.9482C37.9863 82.5576 37.8867 83.1172 37.6875 83.627C37.4882 84.1309 37.2187 84.5645 36.8789 84.9277C36.539 85.291 36.1377 85.5752 35.6748 85.7803C35.2119 85.9854 34.7226 86.0879 34.207 86.0879C33.7968 86.0879 33.4423 86.0322 33.1435 85.9209C32.8447 85.8096 32.5927 85.6865 32.3877 85.5518C32.1474 85.3936 31.9453 85.2119 31.7812 85.0068V88.8828H30.4277V77.8965H31.4209L31.7812 78.8018ZM43.0179 77.8086C43.4632 77.8086 43.8763 77.8848 44.2571 78.0371C44.638 78.1895 44.9602 78.3887 45.2239 78.6348C45.4934 78.8867 45.7044 79.1826 45.8567 79.5225C46.0091 79.8564 46.0823 80.2168 46.0764 80.6035V86H45.0921L44.7317 85.1035C44.5501 85.2969 44.345 85.4639 44.1165 85.6045C43.9114 85.7393 43.6595 85.8535 43.3606 85.9473C43.0618 86.041 42.7073 86.0879 42.2971 86.0879C41.887 86.0879 41.5179 86.0264 41.1897 85.9033C40.8616 85.7744 40.5804 85.5986 40.346 85.376C40.1116 85.1533 39.93 84.8955 39.8011 84.6025C39.6663 84.3096 39.5989 83.9961 39.5989 83.6621C39.5989 83.2754 39.678 82.9238 39.8362 82.6074C39.9944 82.291 40.2639 82.0156 40.6448 81.7812C41.0315 81.5469 41.5559 81.3652 42.218 81.2363C42.886 81.1074 43.7239 81.0459 44.7317 81.0518V80.6035C44.7317 80.1934 44.5735 79.8359 44.2571 79.5312C43.9407 79.2266 43.5276 79.0742 43.0179 79.0742C42.5139 79.0742 42.1419 79.1768 41.9016 79.3818C41.6614 79.5928 41.4944 79.8799 41.4007 80.2432H39.9593C40.0061 79.9092 40.1087 79.5928 40.2669 79.2939C40.4251 79.001 40.6331 78.7432 40.8909 78.5205C41.1487 78.2979 41.4534 78.125 41.805 78.002C42.1565 77.873 42.5608 77.8086 43.0179 77.8086ZM42.2971 84.8311C42.6546 84.8311 42.9856 84.7725 43.2903 84.6553C43.5891 84.5439 43.844 84.3975 44.055 84.2158C44.2659 84.0342 44.43 83.835 44.5471 83.6182C44.6643 83.3955 44.7259 83.1699 44.7317 82.9414V82.3086C43.9173 82.3086 43.2639 82.3408 42.7718 82.4053C42.2796 82.4697 41.8987 82.5664 41.6292 82.6953C41.3596 82.8242 41.178 82.9736 41.0843 83.1436C40.9964 83.3193 40.9524 83.5215 40.9524 83.75C40.9524 84.0254 41.0755 84.2744 41.3216 84.4971C41.5618 84.7197 41.887 84.8311 42.2971 84.8311ZM53.4547 81.7725C53.6832 81.8779 53.8941 82.0156 54.0875 82.1855C54.2457 82.332 54.3893 82.5254 54.5182 82.7656C54.6529 83 54.7203 83.2988 54.7203 83.6621C54.7203 84.3477 54.5006 84.9102 54.0611 85.3496C53.6217 85.7832 53.0592 86 52.3736 86H48.5064V77.8965H52.11C52.4439 77.8965 52.7545 77.9551 53.0416 78.0723C53.3287 78.1836 53.5748 78.3418 53.7799 78.5469C53.985 78.752 54.1461 78.9922 54.2633 79.2676C54.3863 79.543 54.4479 79.8359 54.4479 80.1465C54.4479 80.4453 54.3951 80.6943 54.2896 80.8936C54.19 81.0928 54.0758 81.2598 53.9469 81.3945C53.8004 81.541 53.6363 81.667 53.4547 81.7725ZM49.86 79.1621V81.2275H51.9254C52.2828 81.2275 52.567 81.1338 52.7779 80.9463C52.9889 80.7529 53.0943 80.5186 53.0943 80.2432C53.0943 79.9326 52.9889 79.6748 52.7779 79.4697C52.5729 79.2646 52.2887 79.1621 51.9254 79.1621H49.86ZM52.1979 84.7432C52.5084 84.7432 52.7809 84.626 53.0152 84.3916C53.2496 84.1572 53.3668 83.8848 53.3668 83.5742C53.3668 83.4395 53.3375 83.3076 53.2789 83.1787C53.2203 83.0439 53.1354 82.9268 53.024 82.8271C52.9186 82.7217 52.7926 82.6396 52.6461 82.5811C52.5055 82.5225 52.3561 82.4932 52.1979 82.4932H49.86V84.7432H52.1979ZM63.0917 77.8965V86H61.7382V79.0742H58.7675L58.5038 83.3896C58.4452 84.251 58.1962 84.916 57.7568 85.3848C57.3173 85.8535 56.7548 86.0879 56.0693 86.0879C55.9989 86.0879 55.9316 86.085 55.8671 86.0791C55.8085 86.0732 55.7499 86.0645 55.6913 86.0527C55.6327 86.041 55.58 86.0234 55.5331 86V84.8311H55.7089C56.5878 84.8311 57.0683 84.3506 57.1503 83.3896L57.5986 77.8965H63.0917ZM72.1926 83.8379C72.0578 84.125 71.8879 84.4062 71.6828 84.6816C71.4778 84.957 71.2375 85.1973 70.9621 85.4023C70.6868 85.6074 70.3762 85.7744 70.0305 85.9033C69.6848 86.0322 69.2952 86.0938 68.8616 86.0879C68.3459 86.0879 67.8567 85.9854 67.3938 85.7803C66.9309 85.5752 66.5295 85.291 66.1897 84.9277C65.8498 84.5645 65.5774 84.1309 65.3723 83.627C65.1731 83.123 65.0764 82.5635 65.0823 81.9482C65.0823 81.3389 65.1789 80.7822 65.3723 80.2783C65.5715 79.7744 65.8411 79.3379 66.1809 78.9688C66.5149 78.6055 66.9075 78.3213 67.3586 78.1162C67.8098 77.9111 68.2815 77.8086 68.7737 77.8086C69.2659 77.8086 69.7287 77.9053 70.1623 78.0986C70.6018 78.292 70.9827 78.5645 71.3049 78.916C71.6272 79.2676 71.885 79.6953 72.0784 80.1992C72.2717 80.6973 72.3684 81.251 72.3684 81.8604C72.3684 81.9775 72.3625 82.0801 72.3508 82.168C72.3391 82.25 72.3274 82.3203 72.3157 82.3789C72.3039 82.4492 72.2922 82.5166 72.2805 82.5811H66.5237C66.5471 82.8682 66.6262 83.1494 66.761 83.4248C66.9016 83.7002 67.0774 83.9404 67.2883 84.1455C67.4993 84.3506 67.7424 84.5146 68.0178 84.6377C68.2932 84.7666 68.5745 84.8311 68.8616 84.8311C69.1135 84.8311 69.3391 84.7959 69.5383 84.7256C69.7375 84.6553 69.9162 84.5703 70.0745 84.4707C70.2385 84.377 70.3733 84.2715 70.4787 84.1543C70.5842 84.043 70.675 83.9375 70.7512 83.8379H72.1926ZM68.7737 79.0742C68.4983 79.0742 68.2346 79.1328 67.9827 79.25C67.7366 79.3672 67.5139 79.5283 67.3147 79.7334C67.1096 79.9385 66.9368 80.1846 66.7961 80.4717C66.6555 80.7588 66.5647 81.0723 66.5237 81.4121H70.927C70.8332 80.6914 70.5842 80.1201 70.1799 79.6982C69.7815 79.2822 69.3127 79.0742 68.7737 79.0742ZM81.1793 77.8965V86H79.8345V82.4932H75.6949V86H74.3414V77.8965H75.6949V81.2275H79.8345V77.8965H81.1793ZM90.535 77.8965V86H89.1903V79.9707L85.0507 86H83.6972V77.8965H85.0507V83.9258L89.1903 77.8965H90.535ZM95.8479 83.1172L94.0461 86H92.5168L94.4064 82.9414C94.0959 82.8477 93.8264 82.6924 93.5979 82.4756C93.3928 82.2939 93.2053 82.0479 93.0354 81.7373C92.8654 81.4209 92.7805 81.0107 92.7805 80.5068C92.7805 79.7393 93.0295 79.1123 93.5275 78.626C94.0256 78.1396 94.7082 77.8965 95.5754 77.8965H98.9943V86H97.6408V83.1172H95.8479ZM95.5754 79.1621C95.1652 79.1621 94.8225 79.2969 94.5471 79.5664C94.2717 79.8359 94.134 80.1494 94.134 80.5068C94.134 80.8643 94.2717 81.1807 94.5471 81.4561C94.8225 81.7256 95.1652 81.8604 95.5754 81.8604H97.6408V79.1621H95.5754ZM106.728 81.9482C106.728 82.3818 106.799 82.7744 106.939 83.126C107.08 83.4775 107.262 83.7822 107.484 84.04C107.713 84.292 107.979 84.4854 108.284 84.6201C108.589 84.7607 108.911 84.8311 109.251 84.8311C109.585 84.8311 109.907 84.7607 110.218 84.6201C110.522 84.4795 110.789 84.2861 111.017 84.04C111.246 83.7881 111.428 83.4834 111.562 83.126C111.703 82.7744 111.773 82.3818 111.773 81.9482C111.773 81.5146 111.703 81.1221 111.562 80.7705C111.422 80.4189 111.24 80.1172 111.017 79.8652C110.789 79.6133 110.522 79.417 110.218 79.2764C109.913 79.1357 109.591 79.0684 109.251 79.0742C108.917 79.0742 108.595 79.1416 108.284 79.2764C107.979 79.417 107.713 79.6133 107.484 79.8652C107.256 80.1172 107.074 80.4189 106.939 80.7705C106.799 81.1221 106.728 81.5146 106.728 81.9482ZM106.913 78.8018C107.083 78.6201 107.285 78.459 107.519 78.3184C107.724 78.1836 107.976 78.0664 108.275 77.9668C108.574 77.8672 108.929 77.8145 109.339 77.8086C109.854 77.8086 110.344 77.9111 110.806 78.1162C111.269 78.3213 111.671 78.6055 112.011 78.9688C112.35 79.332 112.62 79.7686 112.819 80.2783C113.018 80.7822 113.118 81.3389 113.118 81.9482C113.118 82.5576 113.018 83.1172 112.819 83.627C112.62 84.1309 112.35 84.5645 112.011 84.9277C111.671 85.291 111.269 85.5752 110.806 85.7803C110.344 85.9854 109.854 86.0879 109.339 86.0879C108.929 86.0879 108.574 86.0322 108.275 85.9209C107.976 85.8096 107.724 85.6865 107.519 85.5518C107.279 85.3936 107.077 85.2119 106.913 85.0068V88.8828H105.559V77.8965H106.553L106.913 78.8018ZM118.15 77.8086C118.595 77.8086 119.008 77.8848 119.389 78.0371C119.77 78.1895 120.092 78.3887 120.356 78.6348C120.625 78.8867 120.836 79.1826 120.988 79.5225C121.141 79.8564 121.214 80.2168 121.208 80.6035V86H120.224L119.863 85.1035C119.682 85.2969 119.477 85.4639 119.248 85.6045C119.043 85.7393 118.791 85.8535 118.492 85.9473C118.194 86.041 117.839 86.0879 117.429 86.0879C117.019 86.0879 116.65 86.0264 116.321 85.9033C115.993 85.7744 115.712 85.5986 115.478 85.376C115.243 85.1533 115.062 84.8955 114.933 84.6025C114.798 84.3096 114.731 83.9961 114.731 83.6621C114.731 83.2754 114.81 82.9238 114.968 82.6074C115.126 82.291 115.396 82.0156 115.777 81.7812C116.163 81.5469 116.688 81.3652 117.35 81.2363C118.018 81.1074 118.856 81.0459 119.863 81.0518V80.6035C119.863 80.1934 119.705 79.8359 119.389 79.5312C119.072 79.2266 118.659 79.0742 118.15 79.0742C117.646 79.0742 117.274 79.1768 117.033 79.3818C116.793 79.5928 116.626 79.8799 116.532 80.2432H115.091C115.138 79.9092 115.24 79.5928 115.399 79.2939C115.557 79.001 115.765 78.7432 116.023 78.5205C116.28 78.2979 116.585 78.125 116.937 78.002C117.288 77.873 117.693 77.8086 118.15 77.8086ZM117.429 84.8311C117.786 84.8311 118.117 84.7725 118.422 84.6553C118.721 84.5439 118.976 84.3975 119.187 84.2158C119.398 84.0342 119.562 83.835 119.679 83.6182C119.796 83.3955 119.858 83.1699 119.863 82.9414V82.3086C119.049 82.3086 118.396 82.3408 117.903 82.4053C117.411 82.4697 117.03 82.5664 116.761 82.6953C116.491 82.8242 116.31 82.9736 116.216 83.1436C116.128 83.3193 116.084 83.5215 116.084 83.75C116.084 84.0254 116.207 84.2744 116.453 84.4971C116.694 84.7197 117.019 84.8311 117.429 84.8311ZM124.543 79.5225C124.725 79.2822 124.945 79.0596 125.203 78.8545C125.431 78.6846 125.712 78.5293 126.046 78.3887C126.386 78.2422 126.785 78.1689 127.242 78.1689C127.71 78.1689 128.162 78.2715 128.595 78.4766C129.035 78.6816 129.418 78.9629 129.747 79.3203C130.081 79.6719 130.344 80.0879 130.538 80.5684C130.737 81.043 130.836 81.5645 130.836 82.1328C130.836 82.6953 130.74 83.2168 130.546 83.6973C130.359 84.1777 130.098 84.5967 129.764 84.9541C129.436 85.3057 129.046 85.584 128.595 85.7891C128.15 85.9883 127.666 86.0879 127.145 86.0879C126.629 86.0879 126.137 85.9766 125.668 85.7539C125.206 85.5312 124.795 85.209 124.438 84.7871C124.086 84.3594 123.805 83.835 123.594 83.2139C123.383 82.5869 123.278 81.8662 123.278 81.0518C123.278 79.8857 123.389 78.8984 123.612 78.0898C123.834 77.2812 124.201 76.6221 124.71 76.1123C125.22 75.6025 125.894 75.2217 126.732 74.9697C127.576 74.7178 128.616 74.5537 129.852 74.4775V75.7432C128.879 75.79 128.068 75.8984 127.417 76.0684C126.773 76.2324 126.249 76.4727 125.844 76.7891C125.44 77.0996 125.138 77.4805 124.939 77.9316C124.746 78.3828 124.614 78.9131 124.543 79.5225ZM127.145 84.8311C127.456 84.8311 127.751 84.7666 128.033 84.6377C128.32 84.5029 128.572 84.3184 128.789 84.084C129.005 83.8496 129.175 83.5684 129.298 83.2402C129.427 82.9062 129.492 82.5371 129.492 82.1328C129.492 81.7227 129.427 81.3535 129.298 81.0254C129.175 80.6914 129.005 80.4102 128.789 80.1816C128.572 79.9473 128.323 79.7627 128.041 79.6279C127.76 79.4932 127.461 79.4258 127.145 79.4258C126.834 79.4258 126.533 79.4961 126.24 79.6367C125.947 79.7773 125.686 79.9678 125.457 80.208C125.229 80.4482 125.047 80.7324 124.913 81.0605C124.784 81.3887 124.719 81.7461 124.719 82.1328C124.719 82.5195 124.784 82.877 124.913 83.2051C125.047 83.5332 125.229 83.8174 125.457 84.0576C125.686 84.2979 125.947 84.4883 126.24 84.6289C126.533 84.7637 126.834 84.8311 127.145 84.8311ZM133.627 81.9482C133.627 82.3818 133.694 82.7744 133.829 83.126C133.964 83.4775 134.142 83.7822 134.365 84.04C134.594 84.292 134.854 84.4854 135.147 84.6201C135.44 84.7607 135.745 84.8311 136.061 84.8311C136.372 84.8311 136.674 84.7607 136.967 84.6201C137.26 84.4795 137.517 84.2861 137.74 84.04C137.963 83.7881 138.144 83.4834 138.285 83.126C138.426 82.7744 138.493 82.3818 138.487 81.9482C138.487 81.5146 138.42 81.1221 138.285 80.7705C138.144 80.4189 137.963 80.1172 137.74 79.8652C137.517 79.6133 137.26 79.417 136.967 79.2764C136.674 79.1357 136.372 79.0684 136.061 79.0742C135.751 79.0742 135.446 79.1416 135.147 79.2764C134.854 79.417 134.594 79.6133 134.365 79.8652C134.137 80.1172 133.958 80.4189 133.829 80.7705C133.694 81.1221 133.627 81.5146 133.627 81.9482ZM139.841 81.9482C139.841 82.5576 139.741 83.1172 139.542 83.627C139.343 84.1309 139.073 84.5645 138.733 84.9277C138.393 85.291 137.992 85.5752 137.529 85.7803C137.066 85.9854 136.577 86.0879 136.061 86.0879C135.546 86.0879 135.056 85.9854 134.594 85.7803C134.131 85.5752 133.729 85.291 133.389 84.9277C133.05 84.5645 132.777 84.1309 132.572 83.627C132.373 83.123 132.276 82.5635 132.282 81.9482C132.282 81.3389 132.379 80.7822 132.572 80.2783C132.771 79.7744 133.044 79.3379 133.389 78.9688C133.729 78.6055 134.131 78.3213 134.594 78.1162C135.056 77.9111 135.546 77.8086 136.061 77.8086C136.577 77.8086 137.066 77.9111 137.529 78.1162C137.992 78.3213 138.393 78.6055 138.733 78.9688C139.073 79.332 139.343 79.7686 139.542 80.2783C139.741 80.7822 139.841 81.3389 139.841 81.9482ZM140.75 77.8965H147.14V79.1621H144.617V86H143.264V79.1621H140.75V77.8965ZM157.304 77.8965V86H155.951V77.8965H157.304ZM151.908 80.7793C152.769 80.7793 153.449 81.0225 153.947 81.5088C154.445 81.9951 154.694 82.6221 154.694 83.3896C154.694 84.1572 154.445 84.7842 153.947 85.2705C153.449 85.7568 152.769 86 151.908 86H148.752V77.8965H150.106V80.7793H151.908ZM151.908 84.7432C152.318 84.7432 152.658 84.6084 152.927 84.3389C153.203 84.0635 153.34 83.7471 153.34 83.3896C153.34 83.0322 153.203 82.7188 152.927 82.4492C152.652 82.1738 152.312 82.0361 151.908 82.0361H150.106V84.7432H151.908Z" fill="black"/>
<path d="M10.4639 240.743V243.978H9.19824V242H3.25684V243.978H2V240.743H2.44824C2.62988 240.608 2.79102 240.45 2.93164 240.269C3.06641 240.11 3.18945 239.926 3.30078 239.715C3.41797 239.498 3.49414 239.24 3.5293 238.941L4.07422 233.896H9.38281V240.743H10.4639ZM4.88281 238.941C4.85938 239.24 4.80078 239.498 4.70703 239.715C4.61914 239.932 4.52539 240.116 4.42578 240.269C4.30859 240.45 4.19141 240.608 4.07422 240.743H8.0293V235.162H5.27832L4.88281 238.941ZM19.0111 233.896V242H17.6663V238.493H13.5267V242H12.1732V233.896H13.5267V237.228H17.6663V233.896H19.0111ZM28.1032 239.838C27.9684 240.125 27.7985 240.406 27.5934 240.682C27.3883 240.957 27.1481 241.197 26.8727 241.402C26.5973 241.607 26.2868 241.774 25.9411 241.903C25.5954 242.032 25.2057 242.094 24.7721 242.088C24.2565 242.088 23.7672 241.985 23.3043 241.78C22.8414 241.575 22.4401 241.291 22.1002 240.928C21.7604 240.564 21.4879 240.131 21.2829 239.627C21.0836 239.123 20.987 238.563 20.9928 237.948C20.9928 237.339 21.0895 236.782 21.2829 236.278C21.4821 235.774 21.7516 235.338 22.0914 234.969C22.4254 234.605 22.818 234.321 23.2692 234.116C23.7204 233.911 24.192 233.809 24.6842 233.809C25.1764 233.809 25.6393 233.905 26.0729 234.099C26.5123 234.292 26.8932 234.564 27.2155 234.916C27.5377 235.268 27.7955 235.695 27.9889 236.199C28.1823 236.697 28.2789 237.251 28.2789 237.86C28.2789 237.978 28.2731 238.08 28.2614 238.168C28.2496 238.25 28.2379 238.32 28.2262 238.379C28.2145 238.449 28.2028 238.517 28.1911 238.581H22.4342C22.4577 238.868 22.5368 239.149 22.6715 239.425C22.8121 239.7 22.9879 239.94 23.1989 240.146C23.4098 240.351 23.653 240.515 23.9284 240.638C24.2038 240.767 24.485 240.831 24.7721 240.831C25.0241 240.831 25.2496 240.796 25.4489 240.726C25.6481 240.655 25.8268 240.57 25.985 240.471C26.1491 240.377 26.2838 240.271 26.3893 240.154C26.4948 240.043 26.5856 239.938 26.6618 239.838H28.1032ZM24.6842 235.074C24.4088 235.074 24.1452 235.133 23.8932 235.25C23.6471 235.367 23.4245 235.528 23.2252 235.733C23.0202 235.938 22.8473 236.185 22.7067 236.472C22.5661 236.759 22.4752 237.072 22.4342 237.412H26.8375C26.7438 236.691 26.4948 236.12 26.0905 235.698C25.692 235.282 25.2233 235.074 24.6842 235.074ZM33.6709 232.64C33.0849 232.64 32.6015 232.443 32.2207 232.051C31.8398 231.658 31.6025 231.195 31.5088 230.662H32.5898C32.6367 230.973 32.7597 231.23 32.9589 231.436C33.1582 231.641 33.3955 231.743 33.6709 231.743C33.9463 231.743 34.1836 231.641 34.3828 231.436C34.582 231.23 34.705 230.973 34.7519 230.662H35.833C35.7392 231.201 35.5019 231.664 35.1211 232.051C34.7402 232.443 34.2568 232.64 33.6709 232.64ZM37.0898 233.896V242H35.7451V235.971L31.6054 242H30.2519V233.896H31.6054V239.926L35.7451 233.896H37.0898ZM50.4928 233.896V242H49.148V235.971L45.0084 242H43.6549V233.896H45.0084V239.926L49.148 233.896H50.4928ZM64.3528 240.743V243.978H63.0871V242H57.1457V243.978H55.8889V240.743H56.3371C56.5188 240.608 56.6799 240.45 56.8205 240.269C56.9553 240.11 57.0784 239.926 57.1897 239.715C57.3069 239.498 57.383 239.24 57.4182 238.941L57.9631 233.896H63.2717V240.743H64.3528ZM58.7717 238.941C58.7483 239.24 58.6897 239.498 58.5959 239.715C58.508 239.932 58.4143 240.116 58.3147 240.269C58.1975 240.45 58.0803 240.608 57.9631 240.743H61.9182V235.162H59.1672L58.7717 238.941ZM72.9 233.896V242H71.5552V235.971L67.4156 242H66.0621V233.896H67.4156V239.926L71.5552 233.896H72.9ZM79.285 237.86C79.5018 237.978 79.6952 238.121 79.8651 238.291C80.0116 238.438 80.1464 238.625 80.2694 238.854C80.3983 239.082 80.4628 239.352 80.4628 239.662C80.4628 239.996 80.3954 240.31 80.2606 240.603C80.1317 240.896 79.9472 241.153 79.7069 241.376C79.4667 241.599 79.1737 241.774 78.828 241.903C78.4882 242.026 78.1014 242.088 77.6679 242.088C76.7655 242.088 76.0565 241.848 75.5409 241.367C75.0253 240.887 74.744 240.289 74.6972 239.574H76.0507C76.0975 239.932 76.2528 240.23 76.5165 240.471C76.7802 240.711 77.1639 240.831 77.6679 240.831C78.1249 240.831 78.4794 240.714 78.7313 240.479C78.9833 240.245 79.1093 239.973 79.1093 239.662C79.1093 239.352 78.9804 239.079 78.7225 238.845C78.4647 238.61 78.1132 238.493 77.6679 238.493H76.9472V237.228H77.6679C78.0253 237.228 78.3241 237.128 78.5643 236.929C78.8046 236.724 78.9247 236.463 78.9247 236.146C78.9247 235.836 78.8046 235.581 78.5643 235.382C78.33 235.177 78.0311 235.074 77.6679 235.074C77.1639 235.074 76.7948 235.191 76.5604 235.426C76.3261 235.654 76.1854 235.927 76.1386 236.243H74.785C74.8319 235.522 75.0985 234.937 75.5848 234.485C76.077 234.034 76.7714 233.809 77.6679 233.809C78.0546 233.809 78.4061 233.873 78.7225 234.002C79.0389 234.125 79.3143 234.295 79.5487 234.512C79.7831 234.729 79.9618 234.978 80.0848 235.259C80.2138 235.54 80.2782 235.836 80.2782 236.146C80.2782 236.445 80.2255 236.7 80.12 236.911C80.0204 237.122 79.9061 237.301 79.7772 237.447C79.6307 237.617 79.4667 237.755 79.285 237.86ZM85.5822 233.809C86.0275 233.809 86.4406 233.885 86.8215 234.037C87.2023 234.189 87.5246 234.389 87.7883 234.635C88.0578 234.887 88.2688 235.183 88.4211 235.522C88.5734 235.856 88.6467 236.217 88.6408 236.604V242H87.6564L87.2961 241.104C87.1145 241.297 86.9094 241.464 86.6809 241.604C86.4758 241.739 86.2238 241.854 85.925 241.947C85.6262 242.041 85.2717 242.088 84.8615 242.088C84.4514 242.088 84.0822 242.026 83.7541 241.903C83.426 241.774 83.1447 241.599 82.9104 241.376C82.676 241.153 82.4943 240.896 82.3654 240.603C82.2307 240.31 82.1633 239.996 82.1633 239.662C82.1633 239.275 82.2424 238.924 82.4006 238.607C82.5588 238.291 82.8283 238.016 83.2092 237.781C83.5959 237.547 84.1203 237.365 84.7824 237.236C85.4504 237.107 86.2883 237.046 87.2961 237.052V236.604C87.2961 236.193 87.1379 235.836 86.8215 235.531C86.5051 235.227 86.092 235.074 85.5822 235.074C85.0783 235.074 84.7063 235.177 84.466 235.382C84.2258 235.593 84.0588 235.88 83.965 236.243H82.5236C82.5705 235.909 82.673 235.593 82.8313 235.294C82.9895 235.001 83.1975 234.743 83.4553 234.521C83.7131 234.298 84.0178 234.125 84.3693 234.002C84.7209 233.873 85.1252 233.809 85.5822 233.809ZM84.8615 240.831C85.2189 240.831 85.55 240.772 85.8547 240.655C86.1535 240.544 86.4084 240.397 86.6193 240.216C86.8303 240.034 86.9943 239.835 87.1115 239.618C87.2287 239.396 87.2902 239.17 87.2961 238.941V238.309C86.4816 238.309 85.8283 238.341 85.3361 238.405C84.8439 238.47 84.4631 238.566 84.1936 238.695C83.924 238.824 83.7424 238.974 83.6486 239.144C83.5607 239.319 83.5168 239.521 83.5168 239.75C83.5168 240.025 83.6398 240.274 83.8859 240.497C84.1262 240.72 84.4514 240.831 84.8615 240.831ZM94.4898 232.64C93.9038 232.64 93.4204 232.443 93.0396 232.051C92.6587 231.658 92.4214 231.195 92.3277 230.662H93.4087C93.4556 230.973 93.5786 231.23 93.7779 231.436C93.9771 231.641 94.2144 231.743 94.4898 231.743C94.7652 231.743 95.0025 231.641 95.2017 231.436C95.4009 231.23 95.5239 230.973 95.5708 230.662H96.6519C96.5581 231.201 96.3208 231.664 95.94 232.051C95.5591 232.443 95.0757 232.64 94.4898 232.64ZM97.9087 233.896V242H96.564V235.971L92.4243 242H91.0708V233.896H92.4243V239.926L96.564 233.896H97.9087ZM107.264 233.896V242H105.92V238.493H101.78V242H100.427V233.896H101.78V237.228H105.92V233.896H107.264ZM119.05 235.162H115.183V242H113.83V233.896H119.05V235.162ZM121.217 237.948C121.217 238.382 121.284 238.774 121.419 239.126C121.554 239.478 121.732 239.782 121.955 240.04C122.183 240.292 122.444 240.485 122.737 240.62C123.03 240.761 123.335 240.831 123.651 240.831C123.962 240.831 124.263 240.761 124.556 240.62C124.849 240.479 125.107 240.286 125.33 240.04C125.553 239.788 125.734 239.483 125.875 239.126C126.015 238.774 126.083 238.382 126.077 237.948C126.077 237.515 126.01 237.122 125.875 236.771C125.734 236.419 125.553 236.117 125.33 235.865C125.107 235.613 124.849 235.417 124.556 235.276C124.263 235.136 123.962 235.068 123.651 235.074C123.341 235.074 123.036 235.142 122.737 235.276C122.444 235.417 122.183 235.613 121.955 235.865C121.726 236.117 121.548 236.419 121.419 236.771C121.284 237.122 121.217 237.515 121.217 237.948ZM127.43 237.948C127.43 238.558 127.331 239.117 127.132 239.627C126.932 240.131 126.663 240.564 126.323 240.928C125.983 241.291 125.582 241.575 125.119 241.78C124.656 241.985 124.167 242.088 123.651 242.088C123.136 242.088 122.646 241.985 122.183 241.78C121.721 241.575 121.319 241.291 120.979 240.928C120.639 240.564 120.367 240.131 120.162 239.627C119.963 239.123 119.866 238.563 119.872 237.948C119.872 237.339 119.969 236.782 120.162 236.278C120.361 235.774 120.634 235.338 120.979 234.969C121.319 234.605 121.721 234.321 122.183 234.116C122.646 233.911 123.136 233.809 123.651 233.809C124.167 233.809 124.656 233.911 125.119 234.116C125.582 234.321 125.983 234.605 126.323 234.969C126.663 235.332 126.932 235.769 127.132 236.278C127.331 236.782 127.43 237.339 127.43 237.948ZM128.34 233.896H134.73V235.162H132.207V242H130.854V235.162H128.34V233.896ZM136.975 237.948C136.975 238.382 137.042 238.774 137.177 239.126C137.312 239.478 137.491 239.782 137.713 240.04C137.942 240.292 138.203 240.485 138.496 240.62C138.789 240.761 139.093 240.831 139.41 240.831C139.72 240.831 140.022 240.761 140.315 240.62C140.608 240.479 140.866 240.286 141.088 240.04C141.311 239.788 141.493 239.483 141.633 239.126C141.774 238.774 141.841 238.382 141.835 237.948C141.835 237.515 141.768 237.122 141.633 236.771C141.493 236.419 141.311 236.117 141.088 235.865C140.866 235.613 140.608 235.417 140.315 235.276C140.022 235.136 139.72 235.068 139.41 235.074C139.099 235.074 138.794 235.142 138.496 235.276C138.203 235.417 137.942 235.613 137.713 235.865C137.485 236.117 137.306 236.419 137.177 236.771C137.042 237.122 136.975 237.515 136.975 237.948ZM143.189 237.948C143.189 238.558 143.089 239.117 142.89 239.627C142.691 240.131 142.421 240.564 142.081 240.928C141.742 241.291 141.34 241.575 140.877 241.78C140.414 241.985 139.925 242.088 139.41 242.088C138.894 242.088 138.405 241.985 137.942 241.78C137.479 241.575 137.078 241.291 136.738 240.928C136.398 240.564 136.125 240.131 135.92 239.627C135.721 239.123 135.624 238.563 135.63 237.948C135.63 237.339 135.727 236.782 135.92 236.278C136.12 235.774 136.392 235.338 136.738 234.969C137.078 234.605 137.479 234.321 137.942 234.116C138.405 233.911 138.894 233.809 139.41 233.809C139.925 233.809 140.414 233.911 140.877 234.116C141.34 234.321 141.742 234.605 142.081 234.969C142.421 235.332 142.691 235.769 142.89 236.278C143.089 236.782 143.189 237.339 143.189 237.948ZM150.119 237.772C150.347 237.878 150.558 238.016 150.752 238.186C150.91 238.332 151.053 238.525 151.182 238.766C151.317 239 151.385 239.299 151.385 239.662C151.385 240.348 151.165 240.91 150.725 241.35C150.286 241.783 149.723 242 149.038 242H145.171V233.896H148.774C149.108 233.896 149.419 233.955 149.706 234.072C149.993 234.184 150.239 234.342 150.444 234.547C150.649 234.752 150.81 234.992 150.928 235.268C151.051 235.543 151.112 235.836 151.112 236.146C151.112 236.445 151.059 236.694 150.954 236.894C150.854 237.093 150.74 237.26 150.611 237.395C150.465 237.541 150.301 237.667 150.119 237.772ZM146.524 235.162V237.228H148.59C148.947 237.228 149.231 237.134 149.442 236.946C149.653 236.753 149.759 236.519 149.759 236.243C149.759 235.933 149.653 235.675 149.442 235.47C149.237 235.265 148.953 235.162 148.59 235.162H146.524ZM148.862 240.743C149.173 240.743 149.445 240.626 149.679 240.392C149.914 240.157 150.031 239.885 150.031 239.574C150.031 239.439 150.002 239.308 149.943 239.179C149.885 239.044 149.8 238.927 149.688 238.827C149.583 238.722 149.457 238.64 149.31 238.581C149.17 238.522 149.02 238.493 148.862 238.493H146.524V240.743H148.862Z" fill="black"/>
<path d="M30.8828 166.648V170.586L11.793 212H5.67578L24.4141 171.676H3.53125V166.648H30.8828Z" fill="black"/>
</svg>
