<svg width="477" height="675" viewBox="0 0 477 675" fill="none" xmlns="http://www.w3.org/2000/svg">
<path d="M7.51576 65.4768C8.07248 60.6054 9.42949 56.0473 11.5868 51.8023C13.8137 47.5572 16.7017 43.8342 20.2508 40.633C23.8695 37.4319 28.1145 34.9266 32.9858 33.1173C37.9267 31.2383 43.32 30.2988 49.1656 30.2988C55.2895 30.2988 60.9263 31.3079 66.076 33.326C71.2257 35.2746 75.6099 37.9538 79.2286 41.3637C82.8473 44.7736 85.6657 48.7403 87.6838 53.2637C89.7715 57.7174 90.8154 62.5192 90.8154 67.6689C90.8154 72.5402 89.8063 76.7156 87.7882 80.1951C85.8397 83.6746 83.6476 86.5626 81.2119 88.8591C78.3587 91.434 75.1576 93.6261 71.6085 95.4354C75.8535 97.3143 79.7853 99.75 83.404 102.742C86.2572 105.317 88.9017 108.762 91.3373 113.077C93.8426 117.322 95.0952 122.506 95.0952 128.63C95.0952 133.78 94.0165 138.651 91.8592 143.244C89.7715 147.837 86.7096 151.908 82.6733 155.457C78.7067 158.937 73.9745 161.755 68.4769 163.912C63.0488 166 56.9597 167.044 50.2094 167.044C44.0855 167.044 38.4835 166.139 33.4034 164.33C28.3929 162.451 24.0087 159.911 20.2508 156.71C16.5625 153.509 13.5353 149.785 11.1692 145.54C8.87277 141.226 7.27219 136.633 6.36752 131.762H23.4867C24.6002 137.19 27.4534 141.957 32.0463 146.062C36.6393 150.099 42.6937 152.117 50.2094 152.117C58.769 152.117 65.5541 149.82 70.5646 145.227C75.5751 140.565 78.0804 135.032 78.0804 128.63C78.0804 122.088 75.5751 116.521 70.5646 111.928C65.5541 107.335 58.769 105.039 50.2094 105.039H42.7981V90.1117H49.1656C56.7509 90.1117 62.7357 87.9892 67.1199 83.7442C71.5737 79.4296 73.8006 74.0712 73.8006 67.6689C73.8006 61.2665 71.5737 55.9429 67.1199 51.6979C62.7357 47.3833 56.7509 45.226 49.1656 45.226C45.7556 45.226 42.5893 45.8175 39.6665 47.0005C36.7437 48.114 34.2036 49.6102 32.0463 51.4891C29.889 53.2985 28.1841 55.421 26.9315 57.8566C25.6788 60.2923 24.9133 62.8323 24.635 65.4768H7.51576ZM128.394 98.6714C128.394 107.788 129.368 115.686 131.317 122.367C133.335 129.048 135.98 134.615 139.25 139.069C142.521 143.453 146.244 146.723 150.42 148.881C154.665 151.038 159.049 152.117 163.572 152.117C168.165 152.117 172.549 151.038 176.725 148.881C180.97 146.723 184.728 143.453 187.998 139.069C191.269 134.615 193.879 129.048 195.827 122.367C197.845 115.686 198.854 107.788 198.854 98.6714C198.854 89.555 197.845 81.6565 195.827 74.9758C193.879 68.2256 191.269 62.6584 187.998 58.2742C184.728 53.8204 180.97 50.5496 176.725 48.4619C172.549 46.3046 168.165 45.226 163.572 45.226C158.979 45.226 154.595 46.3046 150.42 48.4619C146.244 50.5496 142.521 53.8204 139.25 58.2742C135.98 62.6584 133.335 68.2256 131.317 74.9758C129.368 81.6565 128.394 89.555 128.394 98.6714ZM215.974 98.6714C215.974 109.667 214.547 119.409 211.694 127.899C208.841 136.32 204.978 143.453 200.107 149.298C195.305 155.144 189.773 159.563 183.51 162.555C177.247 165.548 170.601 167.044 163.572 167.044C156.613 167.044 149.967 165.548 143.634 162.555C137.302 159.563 131.735 155.144 126.933 149.298C122.201 143.453 118.408 136.32 115.555 127.899C112.702 119.409 111.275 109.667 111.275 98.6714C111.275 87.6761 112.702 77.9334 115.555 69.4434C118.408 60.9534 122.201 53.8204 126.933 48.0444C131.735 42.1988 137.302 37.7798 143.634 34.7874C149.967 31.795 156.613 30.2988 163.572 30.2988C170.531 30.2988 177.142 31.795 183.405 34.7874C189.738 37.7798 195.305 42.1988 200.107 48.0444C204.978 53.8204 208.841 60.9534 211.694 69.4434C214.547 77.9334 215.974 87.6761 215.974 98.6714ZM262.947 153.161V117.878H229.752V103.995H262.947V68.7127H277.874V103.995H311.069V117.878H277.874V153.161H262.947Z" fill="black"/>
<path d="M10.6982 208.593V219.42H8.90147V210.284H3.37035V219.42H1.56187V208.593H10.6982ZM15.6243 214.007C15.6243 214.586 15.7183 215.111 15.9062 215.58C16.0941 216.05 16.3367 216.457 16.6342 216.802C16.9396 217.138 17.2958 217.397 17.7029 217.577C18.11 217.765 18.5406 217.859 18.9947 217.859C19.4409 217.859 19.8715 217.765 20.2864 217.577C20.6935 217.389 21.0498 217.13 21.3551 216.802C21.6604 216.465 21.9031 216.058 22.0832 215.58C22.2711 215.111 22.365 214.586 22.365 214.007C22.365 213.427 22.2711 212.903 22.0832 212.433C21.8953 211.963 21.6526 211.56 21.3551 211.224C21.0498 210.887 20.6935 210.625 20.2864 210.437C19.8793 210.249 19.4487 210.159 18.9947 210.167C18.5484 210.167 18.1178 210.257 17.7029 210.437C17.2958 210.625 16.9396 210.887 16.6342 211.224C16.3289 211.56 16.0862 211.963 15.9062 212.433C15.7183 212.903 15.6243 213.427 15.6243 214.007ZM15.8709 209.803C16.098 209.56 16.3681 209.345 16.6812 209.157C16.9552 208.977 17.2919 208.82 17.6911 208.687C18.0904 208.554 18.5641 208.483 19.1121 208.476C19.801 208.476 20.4548 208.613 21.0732 208.887C21.6917 209.161 22.228 209.54 22.6821 210.026C23.1362 210.511 23.4963 211.094 23.7625 211.775C24.0287 212.449 24.1617 213.193 24.1617 214.007C24.1617 214.821 24.0287 215.569 23.7625 216.25C23.4963 216.923 23.1362 217.502 22.6821 217.988C22.228 218.473 21.6917 218.853 21.0732 219.127C20.4548 219.401 19.801 219.538 19.1121 219.538C18.5641 219.538 18.0904 219.463 17.6911 219.315C17.2919 219.166 16.9552 219.002 16.6812 218.821C16.3602 218.61 16.0901 218.367 15.8709 218.093V223.272H14.0624V208.593H15.3894L15.8709 209.803ZM27.8783 214.007C27.8783 214.586 27.9683 215.111 28.1484 215.58C28.3284 216.05 28.5672 216.457 28.8647 216.802C29.1701 217.138 29.5184 217.397 29.9099 217.577C30.3013 217.765 30.7084 217.859 31.1312 217.859C31.5461 217.859 31.9493 217.765 32.3408 217.577C32.7322 217.389 33.0767 217.13 33.3742 216.802C33.6717 216.465 33.9144 216.058 34.1023 215.58C34.2902 215.111 34.3802 214.586 34.3724 214.007C34.3724 213.427 34.2823 212.903 34.1023 212.433C33.9144 211.963 33.6717 211.56 33.3742 211.224C33.0767 210.887 32.7322 210.625 32.3408 210.437C31.9493 210.249 31.5461 210.159 31.1312 210.167C30.7163 210.167 30.3092 210.257 29.9099 210.437C29.5184 210.625 29.1701 210.887 28.8647 211.224C28.5594 211.56 28.3206 211.963 28.1484 212.433C27.9683 212.903 27.8783 213.427 27.8783 214.007ZM36.1808 214.007C36.1808 214.821 36.0478 215.569 35.7816 216.25C35.5154 216.923 35.1553 217.502 34.7012 217.988C34.2471 218.473 33.7108 218.853 33.0923 219.127C32.4739 219.401 31.8201 219.538 31.1312 219.538C30.4423 219.538 29.7885 219.401 29.1701 219.127C28.5516 218.853 28.0153 218.473 27.5612 217.988C27.1071 217.502 26.7431 216.923 26.4691 216.25C26.2029 215.576 26.0737 214.829 26.0816 214.007C26.0816 213.193 26.2107 212.449 26.4691 211.775C26.7353 211.102 27.0993 210.519 27.5612 210.026C28.0153 209.54 28.5516 209.161 29.1701 208.887C29.7885 208.613 30.4423 208.476 31.1312 208.476C31.8201 208.476 32.4739 208.613 33.0923 208.887C33.7108 209.161 34.2471 209.54 34.7012 210.026C35.1553 210.511 35.5154 211.094 35.7816 211.775C36.0478 212.449 36.1808 213.193 36.1808 214.007ZM47.6128 216.532C47.4327 216.915 47.2057 217.291 46.9317 217.659C46.6577 218.027 46.3367 218.348 45.9687 218.622C45.6008 218.896 45.1858 219.119 44.7239 219.291C44.262 219.463 43.7414 219.546 43.162 219.538C42.4731 219.538 41.8194 219.401 41.2009 219.127C40.5824 218.853 40.0461 218.473 39.5921 217.988C39.138 217.502 38.7739 216.923 38.4999 216.25C38.2337 215.576 38.1046 214.829 38.1124 214.007C38.1124 213.193 38.2416 212.449 38.4999 211.775C38.7661 211.102 39.1262 210.519 39.5803 210.026C40.0266 209.54 40.5511 209.161 41.1539 208.887C41.7568 208.613 42.387 208.476 43.0446 208.476C43.7022 208.476 44.3207 208.605 44.9001 208.863C45.4872 209.121 45.9961 209.486 46.4267 209.955C46.8573 210.425 47.2018 210.997 47.4601 211.67C47.7185 212.335 47.8477 213.075 47.8477 213.889C47.8477 214.046 47.8398 214.183 47.8242 214.3C47.8085 214.41 47.7928 214.504 47.7772 214.582C47.7615 214.676 47.7459 214.766 47.7302 214.852H40.0383C40.0696 215.236 40.1753 215.612 40.3554 215.98C40.5433 216.348 40.7781 216.669 41.06 216.943C41.3418 217.217 41.6667 217.436 42.0347 217.6C42.4026 217.772 42.7784 217.859 43.162 217.859C43.4987 217.859 43.8001 217.812 44.0663 217.718C44.3325 217.624 44.5713 217.51 44.7826 217.377C45.0018 217.252 45.1819 217.111 45.3228 216.954C45.4637 216.806 45.5851 216.665 45.6869 216.532H47.6128ZM43.0446 210.167C42.6767 210.167 42.3244 210.245 41.9877 210.402C41.6589 210.558 41.3614 210.773 41.0952 211.047C40.8212 211.321 40.5902 211.65 40.4024 212.034C40.2145 212.417 40.0931 212.836 40.0383 213.29H45.9217C45.7965 212.327 45.4637 211.564 44.9236 211C44.3912 210.445 43.7649 210.167 43.0446 210.167ZM52.2923 219.42H50.4838V208.593H52.2923V219.42ZM56.8605 219.42L52.2923 213.772L56.379 208.593H58.4223L54.3356 213.643L59.0212 219.42H56.8605ZM59.5083 208.593H68.0458V210.284H64.6754V219.42H62.867V210.284H59.5083V208.593ZM71.046 214.007C71.046 214.586 71.136 215.111 71.3161 215.58C71.4961 216.05 71.7349 216.457 72.0324 216.802C72.3377 217.138 72.6861 217.397 73.0776 217.577C73.469 217.765 73.8761 217.859 74.2989 217.859C74.7138 217.859 75.117 217.765 75.5085 217.577C75.8999 217.389 76.2444 217.13 76.5419 216.802C76.8394 216.465 77.0821 216.058 77.27 215.58C77.4579 215.111 77.5479 214.586 77.5401 214.007C77.5401 213.427 77.45 212.903 77.27 212.433C77.0821 211.963 76.8394 211.56 76.5419 211.224C76.2444 210.887 75.8999 210.625 75.5085 210.437C75.117 210.249 74.7138 210.159 74.2989 210.167C73.884 210.167 73.4769 210.257 73.0776 210.437C72.6861 210.625 72.3377 210.887 72.0324 211.224C71.7271 211.56 71.4883 211.963 71.3161 212.433C71.136 212.903 71.046 213.427 71.046 214.007ZM79.3485 214.007C79.3485 214.821 79.2154 215.569 78.9493 216.25C78.6831 216.923 78.3229 217.502 77.8689 217.988C77.4148 218.473 76.8785 218.853 76.26 219.127C75.6415 219.401 74.9878 219.538 74.2989 219.538C73.6099 219.538 72.9562 219.401 72.3377 219.127C71.7193 218.853 71.183 218.473 70.7289 217.988C70.2748 217.502 69.9108 216.923 69.6368 216.25C69.3706 215.576 69.2414 214.829 69.2492 214.007C69.2492 213.193 69.3784 212.449 69.6368 211.775C69.903 211.102 70.267 210.519 70.7289 210.026C71.183 209.54 71.7193 209.161 72.3377 208.887C72.9562 208.613 73.6099 208.476 74.2989 208.476C74.9878 208.476 75.6415 208.613 76.26 208.887C76.8785 209.161 77.4148 209.54 77.8689 210.026C78.3229 210.511 78.6831 211.094 78.9493 211.775C79.2154 212.449 79.3485 213.193 79.3485 214.007ZM88.6079 213.772C88.9133 213.913 89.1951 214.097 89.4535 214.324C89.6649 214.52 89.8567 214.778 90.0289 215.099C90.209 215.412 90.299 215.811 90.299 216.297C90.299 217.213 90.0054 217.964 89.4182 218.551C88.8311 219.131 88.0795 219.42 87.1635 219.42H81.9964V208.593H86.8112C87.2575 208.593 87.6724 208.671 88.056 208.828C88.4396 208.977 88.7684 209.188 89.0425 209.462C89.3165 209.736 89.5318 210.057 89.6883 210.425C89.8527 210.793 89.9349 211.184 89.9349 211.599C89.9349 211.999 89.8645 212.331 89.7236 212.598C89.5905 212.864 89.4378 213.087 89.2656 213.267C89.0699 213.463 88.8506 213.631 88.6079 213.772ZM83.8049 210.284V213.044H86.5646C87.0422 213.044 87.4219 212.918 87.7037 212.668C87.9855 212.41 88.1265 212.096 88.1265 211.729C88.1265 211.314 87.9855 210.969 87.7037 210.695C87.4297 210.421 87.05 210.284 86.5646 210.284H83.8049ZM86.9286 217.741C87.3436 217.741 87.7076 217.585 88.0208 217.271C88.3339 216.958 88.4905 216.594 88.4905 216.179C88.4905 215.999 88.4514 215.823 88.3731 215.651C88.2948 215.471 88.1813 215.314 88.0325 215.181C87.8916 215.04 87.7233 214.931 87.5276 214.852C87.3397 214.774 87.14 214.735 86.9286 214.735H83.8049V217.741H86.9286ZM100.034 214.007C100.034 214.586 100.128 215.111 100.316 215.58C100.504 216.05 100.746 216.457 101.044 216.802C101.349 217.138 101.705 217.397 102.112 217.577C102.519 217.765 102.95 217.859 103.404 217.859C103.85 217.859 104.281 217.765 104.696 217.577C105.103 217.389 105.459 217.13 105.765 216.802C106.07 216.465 106.313 216.058 106.493 215.58C106.681 215.111 106.774 214.586 106.774 214.007C106.774 213.427 106.681 212.903 106.493 212.433C106.305 211.963 106.062 211.56 105.765 211.224C105.459 210.887 105.103 210.625 104.696 210.437C104.289 210.249 103.858 210.159 103.404 210.167C102.958 210.167 102.527 210.257 102.112 210.437C101.705 210.625 101.349 210.887 101.044 211.224C100.738 211.56 100.496 211.963 100.316 212.433C100.128 212.903 100.034 213.427 100.034 214.007ZM100.28 209.803C100.507 209.56 100.778 209.345 101.091 209.157C101.365 208.977 101.701 208.82 102.101 208.687C102.5 208.554 102.974 208.483 103.522 208.476C104.21 208.476 104.864 208.613 105.483 208.887C106.101 209.161 106.637 209.54 107.092 210.026C107.546 210.511 107.906 211.094 108.172 211.775C108.438 212.449 108.571 213.193 108.571 214.007C108.571 214.821 108.438 215.569 108.172 216.25C107.906 216.923 107.546 217.502 107.092 217.988C106.637 218.473 106.101 218.853 105.483 219.127C104.864 219.401 104.21 219.538 103.522 219.538C102.974 219.538 102.5 219.463 102.101 219.315C101.701 219.166 101.365 219.002 101.091 218.821C100.77 218.61 100.5 218.367 100.28 218.093V223.272H98.4719V208.593H99.7989L100.28 209.803ZM119.991 216.532C119.811 216.915 119.584 217.291 119.31 217.659C119.036 218.027 118.715 218.348 118.347 218.622C117.979 218.896 117.564 219.119 117.103 219.291C116.641 219.463 116.12 219.546 115.541 219.538C114.852 219.538 114.198 219.401 113.58 219.127C112.961 218.853 112.425 218.473 111.971 217.988C111.517 217.502 111.153 216.923 110.879 216.25C110.612 215.576 110.483 214.829 110.491 214.007C110.491 213.193 110.62 212.449 110.879 211.775C111.145 211.102 111.505 210.519 111.959 210.026C112.405 209.54 112.93 209.161 113.533 208.887C114.135 208.613 114.766 208.476 115.423 208.476C116.081 208.476 116.699 208.605 117.279 208.863C117.866 209.121 118.375 209.486 118.805 209.955C119.236 210.425 119.58 210.997 119.839 211.67C120.097 212.335 120.226 213.075 120.226 213.889C120.226 214.046 120.218 214.183 120.203 214.3C120.187 214.41 120.171 214.504 120.156 214.582C120.14 214.676 120.124 214.766 120.109 214.852H112.417C112.448 215.236 112.554 215.612 112.734 215.98C112.922 216.348 113.157 216.669 113.439 216.943C113.72 217.217 114.045 217.436 114.413 217.6C114.781 217.772 115.157 217.859 115.541 217.859C115.877 217.859 116.179 217.812 116.445 217.718C116.711 217.624 116.95 217.51 117.161 217.377C117.38 217.252 117.561 217.111 117.701 216.954C117.842 216.806 117.964 216.665 118.065 216.532H119.991ZM115.423 210.167C115.055 210.167 114.703 210.245 114.366 210.402C114.038 210.558 113.74 210.773 113.474 211.047C113.2 211.321 112.969 211.65 112.781 212.034C112.593 212.417 112.472 212.836 112.417 213.29H118.3C118.175 212.327 117.842 211.564 117.302 211C116.77 210.445 116.143 210.167 115.423 210.167ZM126.949 208.476C127.544 208.476 128.096 208.577 128.605 208.781C129.114 208.984 129.544 209.251 129.897 209.579C130.257 209.916 130.539 210.311 130.742 210.766C130.946 211.212 131.044 211.693 131.036 212.21V219.42H129.721L129.239 218.223C128.996 218.481 128.722 218.704 128.417 218.892C128.143 219.072 127.806 219.225 127.407 219.35C127.008 219.475 126.534 219.538 125.986 219.538C125.438 219.538 124.945 219.456 124.506 219.291C124.068 219.119 123.692 218.884 123.379 218.587C123.066 218.289 122.823 217.945 122.651 217.553C122.471 217.162 122.381 216.743 122.381 216.297C122.381 215.78 122.487 215.31 122.698 214.887C122.909 214.465 123.27 214.097 123.778 213.784C124.295 213.47 124.996 213.228 125.88 213.056C126.773 212.883 127.892 212.801 129.239 212.809V212.21C129.239 211.662 129.028 211.184 128.605 210.777C128.182 210.37 127.63 210.167 126.949 210.167C126.276 210.167 125.779 210.304 125.458 210.578C125.137 210.859 124.914 211.243 124.788 211.729H122.862C122.925 211.282 123.062 210.859 123.273 210.46C123.485 210.069 123.763 209.724 124.107 209.427C124.452 209.129 124.859 208.898 125.329 208.734C125.798 208.562 126.338 208.476 126.949 208.476ZM125.986 217.859C126.464 217.859 126.906 217.78 127.313 217.624C127.712 217.475 128.053 217.279 128.335 217.037C128.617 216.794 128.836 216.528 128.992 216.238C129.149 215.94 129.231 215.639 129.239 215.334V214.488C128.151 214.488 127.278 214.531 126.62 214.617C125.963 214.703 125.454 214.833 125.094 215.005C124.734 215.177 124.491 215.377 124.366 215.604C124.248 215.839 124.189 216.109 124.189 216.414C124.189 216.782 124.354 217.115 124.683 217.412C125.004 217.71 125.438 217.859 125.986 217.859ZM142.703 208.593V219.42H140.894V210.167H136.925L136.573 215.933C136.494 217.083 136.162 217.972 135.574 218.598C134.987 219.225 134.236 219.538 133.32 219.538C133.226 219.538 133.136 219.534 133.05 219.526C132.971 219.518 132.893 219.507 132.815 219.491C132.736 219.475 132.666 219.452 132.603 219.42V217.859H132.838C134.013 217.859 134.654 217.217 134.764 215.933L135.363 208.593H142.703ZM155.215 208.593V219.42H153.418V211.364L147.887 219.42H146.079V208.593H147.887V216.649L153.418 208.593H155.215ZM163.746 213.889C164.036 214.046 164.294 214.238 164.521 214.465C164.717 214.66 164.897 214.911 165.061 215.216C165.234 215.522 165.32 215.882 165.32 216.297C165.32 216.743 165.23 217.162 165.05 217.553C164.878 217.945 164.631 218.289 164.31 218.587C163.989 218.884 163.597 219.119 163.136 219.291C162.682 219.456 162.165 219.538 161.585 219.538C160.38 219.538 159.433 219.217 158.744 218.575C158.055 217.933 157.679 217.134 157.616 216.179H159.425C159.487 216.657 159.695 217.056 160.047 217.377C160.399 217.698 160.912 217.859 161.585 217.859C162.196 217.859 162.67 217.702 163.006 217.389C163.343 217.076 163.511 216.712 163.511 216.297C163.511 215.882 163.339 215.518 162.995 215.205C162.65 214.891 162.18 214.735 161.585 214.735H160.623V213.044H161.585C162.063 213.044 162.462 212.911 162.783 212.644C163.104 212.37 163.265 212.022 163.265 211.599C163.265 211.184 163.104 210.844 162.783 210.578C162.47 210.304 162.071 210.167 161.585 210.167C160.912 210.167 160.419 210.323 160.106 210.636C159.793 210.942 159.605 211.306 159.542 211.729H157.734C157.796 210.766 158.152 209.983 158.802 209.38C159.46 208.777 160.388 208.476 161.585 208.476C162.102 208.476 162.572 208.562 162.995 208.734C163.417 208.898 163.785 209.125 164.099 209.415C164.412 209.705 164.65 210.037 164.815 210.413C164.987 210.789 165.073 211.184 165.073 211.599C165.073 211.999 165.003 212.339 164.862 212.621C164.729 212.903 164.576 213.142 164.404 213.337C164.208 213.564 163.989 213.748 163.746 213.889ZM169.154 214.007C169.154 214.586 169.244 215.111 169.424 215.58C169.604 216.05 169.843 216.457 170.14 216.802C170.446 217.138 170.794 217.397 171.185 217.577C171.577 217.765 171.984 217.859 172.407 217.859C172.822 217.859 173.225 217.765 173.616 217.577C174.008 217.389 174.352 217.13 174.65 216.802C174.947 216.465 175.19 216.058 175.378 215.58C175.566 215.111 175.656 214.586 175.648 214.007C175.648 213.427 175.558 212.903 175.378 212.433C175.19 211.963 174.947 211.56 174.65 211.224C174.352 210.887 174.008 210.625 173.616 210.437C173.225 210.249 172.822 210.159 172.407 210.167C171.992 210.167 171.585 210.257 171.185 210.437C170.794 210.625 170.446 210.887 170.14 211.224C169.835 211.56 169.596 211.963 169.424 212.433C169.244 212.903 169.154 213.427 169.154 214.007ZM177.456 214.007C177.456 214.821 177.323 215.569 177.057 216.25C176.791 216.923 176.431 217.502 175.977 217.988C175.523 218.473 174.986 218.853 174.368 219.127C173.749 219.401 173.096 219.538 172.407 219.538C171.718 219.538 171.064 219.401 170.446 219.127C169.827 218.853 169.291 218.473 168.837 217.988C168.383 217.502 168.019 216.923 167.745 216.25C167.478 215.576 167.349 214.829 167.357 214.007C167.357 213.193 167.486 212.449 167.745 211.775C168.011 211.102 168.375 210.519 168.837 210.026C169.291 209.54 169.827 209.161 170.446 208.887C171.064 208.613 171.718 208.476 172.407 208.476C173.096 208.476 173.749 208.613 174.368 208.887C174.986 209.161 175.523 209.54 175.977 210.026C176.431 210.511 176.791 211.094 177.057 211.775C177.323 212.449 177.456 213.193 177.456 214.007ZM186.716 213.772C187.021 213.913 187.303 214.097 187.561 214.324C187.773 214.52 187.965 214.778 188.137 215.099C188.317 215.412 188.407 215.811 188.407 216.297C188.407 217.213 188.113 217.964 187.526 218.551C186.939 219.131 186.187 219.42 185.271 219.42H180.104V208.593H184.919C185.365 208.593 185.78 208.671 186.164 208.828C186.547 208.977 186.876 209.188 187.15 209.462C187.424 209.736 187.64 210.057 187.796 210.425C187.961 210.793 188.043 211.184 188.043 211.599C188.043 211.999 187.972 212.331 187.831 212.598C187.698 212.864 187.546 213.087 187.373 213.267C187.178 213.463 186.959 213.631 186.716 213.772ZM181.913 210.284V213.044H184.672C185.15 213.044 185.53 212.918 185.812 212.668C186.093 212.41 186.234 212.096 186.234 211.729C186.234 211.314 186.093 210.969 185.812 210.695C185.538 210.421 185.158 210.284 184.672 210.284H181.913ZM185.037 217.741C185.451 217.741 185.815 217.585 186.129 217.271C186.442 216.958 186.598 216.594 186.598 216.179C186.598 215.999 186.559 215.823 186.481 215.651C186.403 215.471 186.289 215.314 186.14 215.181C185.999 215.04 185.831 214.931 185.635 214.852C185.448 214.774 185.248 214.735 185.037 214.735H181.913V217.741H185.037ZM195.259 208.476C195.854 208.476 196.406 208.577 196.915 208.781C197.424 208.984 197.854 209.251 198.206 209.579C198.567 209.916 198.848 210.311 199.052 210.766C199.256 211.212 199.353 211.693 199.346 212.21V219.42H198.03L197.549 218.223C197.306 218.481 197.032 218.704 196.727 218.892C196.453 219.072 196.116 219.225 195.717 219.35C195.318 219.475 194.844 219.538 194.296 219.538C193.748 219.538 193.255 219.456 192.816 219.291C192.378 219.119 192.002 218.884 191.689 218.587C191.376 218.289 191.133 217.945 190.961 217.553C190.781 217.162 190.691 216.743 190.691 216.297C190.691 215.78 190.796 215.31 191.008 214.887C191.219 214.465 191.579 214.097 192.088 213.784C192.605 213.47 193.306 213.228 194.19 213.056C195.083 212.883 196.202 212.801 197.549 212.809V212.21C197.549 211.662 197.337 211.184 196.915 210.777C196.492 210.37 195.94 210.167 195.259 210.167C194.586 210.167 194.088 210.304 193.767 210.578C193.446 210.859 193.223 211.243 193.098 211.729H191.172C191.235 211.282 191.372 210.859 191.583 210.46C191.795 210.069 192.072 209.724 192.417 209.427C192.761 209.129 193.169 208.898 193.638 208.734C194.108 208.562 194.648 208.476 195.259 208.476ZM194.296 217.859C194.773 217.859 195.216 217.78 195.623 217.624C196.022 217.475 196.363 217.279 196.645 217.037C196.926 216.794 197.146 216.528 197.302 216.238C197.459 215.94 197.541 215.639 197.549 215.334V214.488C196.461 214.488 195.588 214.531 194.93 214.617C194.272 214.703 193.764 214.833 193.403 215.005C193.043 215.177 192.801 215.377 192.675 215.604C192.558 215.839 192.499 216.109 192.499 216.414C192.499 216.782 192.664 217.115 192.992 217.412C193.313 217.71 193.748 217.859 194.296 217.859ZM211.729 208.593V219.42H209.932V214.735H204.401V219.42H202.592V208.593H204.401V213.044H209.932V208.593H211.729ZM216.173 214.007C216.173 214.586 216.263 215.111 216.443 215.58C216.624 216.05 216.862 216.457 217.16 216.802C217.465 217.138 217.813 217.397 218.205 217.577C218.596 217.765 219.003 217.859 219.426 217.859C219.841 217.859 220.244 217.765 220.636 217.577C221.027 217.389 221.372 217.13 221.669 216.802C221.967 216.465 222.209 216.058 222.397 215.58C222.585 215.111 222.675 214.586 222.667 214.007C222.667 213.427 222.577 212.903 222.397 212.433C222.209 211.963 221.967 211.56 221.669 211.224C221.372 210.887 221.027 210.625 220.636 210.437C220.244 210.249 219.841 210.159 219.426 210.167C219.011 210.167 218.604 210.257 218.205 210.437C217.813 210.625 217.465 210.887 217.16 211.224C216.854 211.56 216.616 211.963 216.443 212.433C216.263 212.903 216.173 213.427 216.173 214.007ZM224.476 214.007C224.476 214.821 224.343 215.569 224.077 216.25C223.81 216.923 223.45 217.502 222.996 217.988C222.542 218.473 222.006 218.853 221.387 219.127C220.769 219.401 220.115 219.538 219.426 219.538C218.737 219.538 218.084 219.401 217.465 219.127C216.847 218.853 216.31 218.473 215.856 217.988C215.402 217.502 215.038 216.923 214.764 216.25C214.498 215.576 214.369 214.829 214.377 214.007C214.377 213.193 214.506 212.449 214.764 211.775C215.03 211.102 215.394 210.519 215.856 210.026C216.31 209.54 216.847 209.161 217.465 208.887C218.084 208.613 218.737 208.476 219.426 208.476C220.115 208.476 220.769 208.613 221.387 208.887C222.006 209.161 222.542 209.54 222.996 210.026C223.45 210.511 223.81 211.094 224.077 211.775C224.343 212.449 224.476 213.193 224.476 214.007Z" fill="black"/>
<path d="M31.3242 476.973V482H3.23438V477.676L21.2344 457.883C22.0547 457.016 22.7812 456.102 23.4141 455.141C23.9531 454.32 24.4453 453.371 24.8906 452.293C25.3359 451.215 25.5586 450.078 25.5586 448.883C25.5586 446.727 24.8086 444.934 23.3086 443.504C21.832 442.051 19.8281 441.324 17.2969 441.324C14.7422 441.324 12.6562 442.133 11.0391 443.75C9.44531 445.344 8.64844 447.418 8.64844 449.973H2.88281C2.88281 448.098 3.23438 446.316 3.9375 444.629C4.66406 442.941 5.67188 441.488 6.96094 440.27C8.27344 439.051 9.79688 438.09 11.5312 437.387C13.2891 436.66 15.2109 436.297 17.2969 436.297C19.3594 436.297 21.2461 436.637 22.957 437.316C24.6914 437.973 26.168 438.875 27.3867 440.023C28.6055 441.172 29.5664 442.508 30.2695 444.031C30.9727 445.531 31.3242 447.148 31.3242 448.883C31.3242 450.523 30.9961 452.094 30.3398 453.594C29.707 455.07 29.0039 456.359 28.2305 457.461C27.3633 458.75 26.3555 459.969 25.207 461.117L10.793 476.973H31.3242Z" fill="black"/>
<path d="M8.38965 505.162H4.52246V512H3.16895V503.896H8.38965V505.162ZM10.556 507.948C10.556 508.382 10.6234 508.774 10.7581 509.126C10.8929 509.478 11.0716 509.782 11.2943 510.04C11.5228 510.292 11.7835 510.485 12.0765 510.62C12.3695 510.761 12.6741 510.831 12.9905 510.831C13.3011 510.831 13.6029 510.761 13.8958 510.62C14.1888 510.479 14.4466 510.286 14.6693 510.04C14.8919 509.788 15.0736 509.483 15.2142 509.126C15.3548 508.774 15.4222 508.382 15.4163 507.948C15.4163 507.515 15.3489 507.122 15.2142 506.771C15.0736 506.419 14.8919 506.117 14.6693 505.865C14.4466 505.613 14.1888 505.417 13.8958 505.276C13.6029 505.136 13.3011 505.068 12.9905 505.074C12.68 505.074 12.3753 505.142 12.0765 505.276C11.7835 505.417 11.5228 505.613 11.2943 505.865C11.0657 506.117 10.887 506.419 10.7581 506.771C10.6234 507.122 10.556 507.515 10.556 507.948ZM16.7698 507.948C16.7698 508.558 16.6702 509.117 16.471 509.627C16.2718 510.131 16.0023 510.564 15.6624 510.928C15.3226 511.291 14.9212 511.575 14.4583 511.78C13.9954 511.985 13.5062 512.088 12.9905 512.088C12.4749 512.088 11.9857 511.985 11.5228 511.78C11.0599 511.575 10.6585 511.291 10.3187 510.928C9.97883 510.564 9.70637 510.131 9.50129 509.627C9.30207 509.123 9.20539 508.563 9.21125 507.948C9.21125 507.339 9.30793 506.782 9.50129 506.278C9.70051 505.774 9.97297 505.338 10.3187 504.969C10.6585 504.605 11.0599 504.321 11.5228 504.116C11.9857 503.911 12.4749 503.809 12.9905 503.809C13.5062 503.809 13.9954 503.911 14.4583 504.116C14.9212 504.321 15.3226 504.605 15.6624 504.969C16.0023 505.332 16.2718 505.769 16.471 506.278C16.6702 506.782 16.7698 507.339 16.7698 507.948ZM26.0465 510.743V513.978H24.7809V512H18.8395V513.978H17.5827V510.743H18.0309C18.2125 510.608 18.3737 510.45 18.5143 510.269C18.6491 510.11 18.7721 509.926 18.8834 509.715C19.0006 509.498 19.0768 509.24 19.112 508.941L19.6569 503.896H24.9655V510.743H26.0465ZM20.4655 508.941C20.442 509.24 20.3834 509.498 20.2897 509.715C20.2018 509.932 20.108 510.116 20.0084 510.269C19.8912 510.45 19.7741 510.608 19.6569 510.743H23.612V505.162H20.861L20.4655 508.941ZM30.8144 503.809C31.2597 503.809 31.6728 503.885 32.0537 504.037C32.4345 504.189 32.7568 504.389 33.0205 504.635C33.29 504.887 33.5009 505.183 33.6533 505.522C33.8056 505.856 33.8789 506.217 33.873 506.604V512H32.8886L32.5283 511.104C32.3466 511.297 32.1416 511.464 31.913 511.604C31.708 511.739 31.456 511.854 31.1572 511.947C30.8584 512.041 30.5039 512.088 30.0937 512.088C29.6836 512.088 29.3144 512.026 28.9863 511.903C28.6582 511.774 28.3769 511.599 28.1425 511.376C27.9082 511.153 27.7265 510.896 27.5976 510.603C27.4629 510.31 27.3955 509.996 27.3955 509.662C27.3955 509.275 27.4746 508.924 27.6328 508.607C27.791 508.291 28.0605 508.016 28.4414 507.781C28.8281 507.547 29.3525 507.365 30.0146 507.236C30.6826 507.107 31.5205 507.046 32.5283 507.052V506.604C32.5283 506.193 32.3701 505.836 32.0537 505.531C31.7373 505.227 31.3242 505.074 30.8144 505.074C30.3105 505.074 29.9384 505.177 29.6982 505.382C29.458 505.593 29.291 505.88 29.1972 506.243H27.7558C27.8027 505.909 27.9052 505.593 28.0634 505.294C28.2216 505.001 28.4296 504.743 28.6875 504.521C28.9453 504.298 29.25 504.125 29.6015 504.002C29.9531 503.873 30.3574 503.809 30.8144 503.809ZM30.0937 510.831C30.4511 510.831 30.7822 510.772 31.0869 510.655C31.3857 510.544 31.6406 510.397 31.8515 510.216C32.0625 510.034 32.2265 509.835 32.3437 509.618C32.4609 509.396 32.5224 509.17 32.5283 508.941V508.309C31.7138 508.309 31.0605 508.341 30.5683 508.405C30.0761 508.47 29.6953 508.566 29.4257 508.695C29.1562 508.824 28.9746 508.974 28.8808 509.144C28.7929 509.319 28.749 509.521 28.749 509.75C28.749 510.025 28.872 510.274 29.1181 510.497C29.3584 510.72 29.6836 510.831 30.0937 510.831ZM47.1881 503.896V512H45.8434V508.493H41.7037V512H40.3502V503.896H41.7037V507.228H45.8434V503.896H47.1881ZM52.7646 503.809C53.2099 503.809 53.623 503.885 54.0038 504.037C54.3847 504.189 54.707 504.389 54.9706 504.635C55.2402 504.887 55.4511 505.183 55.6034 505.522C55.7558 505.856 55.829 506.217 55.8232 506.604V512H54.8388L54.4784 511.104C54.2968 511.297 54.0917 511.464 53.8632 511.604C53.6581 511.739 53.4062 511.854 53.1073 511.947C52.8085 512.041 52.454 512.088 52.0439 512.088C51.6337 512.088 51.2646 512.026 50.9364 511.903C50.6083 511.774 50.3271 511.599 50.0927 511.376C49.8583 511.153 49.6767 510.896 49.5478 510.603C49.413 510.31 49.3456 509.996 49.3456 509.662C49.3456 509.275 49.4247 508.924 49.5829 508.607C49.7411 508.291 50.0107 508.016 50.3915 507.781C50.7782 507.547 51.3027 507.365 51.9648 507.236C52.6327 507.107 53.4706 507.046 54.4784 507.052V506.604C54.4784 506.193 54.3202 505.836 54.0038 505.531C53.6874 505.227 53.2743 505.074 52.7646 505.074C52.2607 505.074 51.8886 505.177 51.6484 505.382C51.4081 505.593 51.2411 505.88 51.1474 506.243H49.706C49.7529 505.909 49.8554 505.593 50.0136 505.294C50.1718 505.001 50.3798 504.743 50.6376 504.521C50.8954 504.298 51.2001 504.125 51.5517 504.002C51.9032 503.873 52.3075 503.809 52.7646 503.809ZM52.0439 510.831C52.4013 510.831 52.7323 510.772 53.037 510.655C53.3359 510.544 53.5907 510.397 53.8017 510.216C54.0126 510.034 54.1767 509.835 54.2939 509.618C54.4111 509.396 54.4726 509.17 54.4784 508.941V508.309C53.664 508.309 53.0107 508.341 52.5185 508.405C52.0263 508.47 51.6454 508.566 51.3759 508.695C51.1064 508.824 50.9247 508.974 50.831 509.144C50.7431 509.319 50.6991 509.521 50.6991 509.75C50.6991 510.025 50.8222 510.274 51.0683 510.497C51.3085 510.72 51.6337 510.831 52.0439 510.831ZM63.4693 507.948C63.4693 508.382 63.5396 508.774 63.6802 509.126C63.8209 509.478 64.0025 509.782 64.2252 510.04C64.4537 510.292 64.7203 510.485 65.025 510.62C65.3296 510.761 65.6519 510.831 65.9918 510.831C66.3257 510.831 66.648 510.761 66.9586 510.62C67.2632 510.479 67.5298 510.286 67.7584 510.04C67.9869 509.788 68.1685 509.483 68.3033 509.126C68.4439 508.774 68.5142 508.382 68.5142 507.948C68.5142 507.515 68.4439 507.122 68.3033 506.771C68.1627 506.419 67.981 506.117 67.7584 505.865C67.5298 505.613 67.2632 505.417 66.9586 505.276C66.6539 505.136 66.3316 505.068 65.9918 505.074C65.6578 505.074 65.3355 505.142 65.025 505.276C64.7203 505.417 64.4537 505.613 64.2252 505.865C63.9966 506.117 63.815 506.419 63.6802 506.771C63.5396 507.122 63.4693 507.515 63.4693 507.948ZM63.6539 504.802C63.8238 504.62 64.0259 504.459 64.2603 504.318C64.4654 504.184 64.7173 504.066 65.0162 503.967C65.315 503.867 65.6695 503.814 66.0796 503.809C66.5953 503.809 67.0845 503.911 67.5474 504.116C68.0103 504.321 68.4117 504.605 68.7515 504.969C69.0914 505.332 69.3609 505.769 69.5601 506.278C69.7593 506.782 69.8589 507.339 69.8589 507.948C69.8589 508.558 69.7593 509.117 69.5601 509.627C69.3609 510.131 69.0914 510.564 68.7515 510.928C68.4117 511.291 68.0103 511.575 67.5474 511.78C67.0845 511.985 66.5953 512.088 66.0796 512.088C65.6695 512.088 65.315 512.032 65.0162 511.921C64.7173 511.81 64.4654 511.687 64.2603 511.552C64.0201 511.394 63.8179 511.212 63.6539 511.007V514.883H62.3004V503.896H63.2935L63.6539 504.802ZM80.3837 503.896V512H79.0302V503.896H80.3837ZM74.9872 506.779C75.8485 506.779 76.5282 507.022 77.0263 507.509C77.5243 507.995 77.7733 508.622 77.7733 509.39C77.7733 510.157 77.5243 510.784 77.0263 511.271C76.5282 511.757 75.8485 512 74.9872 512H71.8319V503.896H73.1854V506.779H74.9872ZM74.9872 510.743C75.3973 510.743 75.7372 510.608 76.0067 510.339C76.2821 510.063 76.4198 509.747 76.4198 509.39C76.4198 509.032 76.2821 508.719 76.0067 508.449C75.7313 508.174 75.3915 508.036 74.9872 508.036H73.1854V510.743H74.9872ZM89.7482 503.896V512H88.4035V508.493H84.2639V512H82.9104V503.896H84.2639V507.228H88.4035V503.896H89.7482ZM93.6197 512H92.2661V503.896H93.6197V512ZM97.0386 512L93.6197 507.772L96.6782 503.896H98.2075L95.1489 507.676L98.6558 512H97.0386ZM106.315 509.838C106.181 510.125 106.011 510.406 105.806 510.682C105.6 510.957 105.36 511.197 105.085 511.402C104.809 511.607 104.499 511.774 104.153 511.903C103.807 512.032 103.418 512.094 102.984 512.088C102.469 512.088 101.979 511.985 101.516 511.78C101.054 511.575 100.652 511.291 100.312 510.928C99.9725 510.564 99.7 510.131 99.495 509.627C99.2957 509.123 99.1991 508.563 99.2049 507.948C99.2049 507.339 99.3016 506.782 99.495 506.278C99.6942 505.774 99.9637 505.338 100.304 504.969C100.638 504.605 101.03 504.321 101.481 504.116C101.932 503.911 102.404 503.809 102.896 503.809C103.389 503.809 103.851 503.905 104.285 504.099C104.724 504.292 105.105 504.564 105.428 504.916C105.75 505.268 106.008 505.695 106.201 506.199C106.394 506.697 106.491 507.251 106.491 507.86C106.491 507.978 106.485 508.08 106.473 508.168C106.462 508.25 106.45 508.32 106.438 508.379C106.427 508.449 106.415 508.517 106.403 508.581H100.646C100.67 508.868 100.749 509.149 100.884 509.425C101.024 509.7 101.2 509.94 101.411 510.146C101.622 510.351 101.865 510.515 102.14 510.638C102.416 510.767 102.697 510.831 102.984 510.831C103.236 510.831 103.462 510.796 103.661 510.726C103.86 510.655 104.039 510.57 104.197 510.471C104.361 510.377 104.496 510.271 104.601 510.154C104.707 510.043 104.798 509.938 104.874 509.838H106.315ZM102.896 505.074C102.621 505.074 102.357 505.133 102.105 505.25C101.859 505.367 101.637 505.528 101.437 505.733C101.232 505.938 101.059 506.185 100.919 506.472C100.778 506.759 100.687 507.072 100.646 507.412H105.05C104.956 506.691 104.707 506.12 104.303 505.698C103.904 505.282 103.435 505.074 102.896 505.074Z" fill="black"/>
<path d="M6.41211 661.074C6.10156 661.074 5.79688 661.142 5.49805 661.276C5.20508 661.417 4.94434 661.613 4.71582 661.865C4.4873 662.117 4.30859 662.419 4.17969 662.771C4.04492 663.122 3.97754 663.515 3.97754 663.948C3.97754 664.382 4.04492 664.774 4.17969 665.126C4.31445 665.478 4.49316 665.782 4.71582 666.04C4.94434 666.292 5.20508 666.485 5.49805 666.62C5.79102 666.761 6.0957 666.831 6.41211 666.831C6.67578 666.831 6.9248 666.781 7.15918 666.682C7.39355 666.588 7.60156 666.462 7.7832 666.304C7.9707 666.146 8.13184 665.967 8.2666 665.768C8.40137 665.562 8.50391 665.346 8.57422 665.117H9.91895C9.8252 665.527 9.67578 665.911 9.4707 666.269C9.26562 666.626 9.01074 666.942 8.70605 667.218C8.40137 667.487 8.05273 667.701 7.66016 667.859C7.26758 668.018 6.85156 668.094 6.41211 668.088C5.89648 668.088 5.40723 667.985 4.94434 667.78C4.48145 667.575 4.08008 667.291 3.74023 666.928C3.40039 666.564 3.12793 666.131 2.92285 665.627C2.72363 665.123 2.62695 664.563 2.63281 663.948C2.63281 663.339 2.72949 662.782 2.92285 662.278C3.12207 661.774 3.39453 661.338 3.74023 660.969C4.08008 660.605 4.48145 660.321 4.94434 660.116C5.40723 659.911 5.89648 659.809 6.41211 659.809C6.85742 659.809 7.27344 659.888 7.66016 660.046C8.05273 660.204 8.40137 660.415 8.70605 660.679C9.01074 660.948 9.26562 661.265 9.4707 661.628C9.67578 661.985 9.8252 662.369 9.91895 662.779H8.57422C8.50391 662.551 8.40137 662.334 8.2666 662.129C8.13184 661.924 7.9707 661.745 7.7832 661.593C7.5957 661.435 7.3877 661.309 7.15918 661.215C6.9248 661.121 6.67578 661.074 6.41211 661.074ZM12.4368 663.948C12.4368 664.382 12.5042 664.774 12.639 665.126C12.7738 665.478 12.9525 665.782 13.1751 666.04C13.4036 666.292 13.6644 666.485 13.9573 666.62C14.2503 666.761 14.555 666.831 14.8714 666.831C15.182 666.831 15.4837 666.761 15.7767 666.62C16.0696 666.479 16.3275 666.286 16.5501 666.04C16.7728 665.788 16.9544 665.483 17.095 665.126C17.2357 664.774 17.303 664.382 17.2972 663.948C17.2972 663.515 17.2298 663.122 17.095 662.771C16.9544 662.419 16.7728 662.117 16.5501 661.865C16.3275 661.613 16.0696 661.417 15.7767 661.276C15.4837 661.136 15.182 661.068 14.8714 661.074C14.5609 661.074 14.2562 661.142 13.9573 661.276C13.6644 661.417 13.4036 661.613 13.1751 661.865C12.9466 662.117 12.7679 662.419 12.639 662.771C12.5042 663.122 12.4368 663.515 12.4368 663.948ZM18.6507 663.948C18.6507 664.558 18.5511 665.117 18.3519 665.627C18.1527 666.131 17.8831 666.564 17.5433 666.928C17.2034 667.291 16.8021 667.575 16.3392 667.78C15.8763 667.985 15.387 668.088 14.8714 668.088C14.3558 668.088 13.8665 667.985 13.4036 667.78C12.9407 667.575 12.5394 667.291 12.1995 666.928C11.8597 666.564 11.5872 666.131 11.3821 665.627C11.1829 665.123 11.0863 664.563 11.0921 663.948C11.0921 663.339 11.1888 662.782 11.3821 662.278C11.5814 661.774 11.8538 661.338 12.1995 660.969C12.5394 660.605 12.9407 660.321 13.4036 660.116C13.8665 659.911 14.3558 659.809 14.8714 659.809C15.387 659.809 15.8763 659.911 16.3392 660.116C16.8021 660.321 17.2034 660.605 17.5433 660.969C17.8831 661.332 18.1527 661.769 18.3519 662.278C18.5511 662.782 18.6507 663.339 18.6507 663.948ZM19.5602 659.896H25.9498V661.162H23.4274V668H22.0739V661.162H19.5602V659.896ZM28.7314 663.948C28.7314 664.382 28.8017 664.774 28.9423 665.126C29.083 665.478 29.2646 665.782 29.4873 666.04C29.7158 666.292 29.9824 666.485 30.2871 666.62C30.5918 666.761 30.914 666.831 31.2539 666.831C31.5879 666.831 31.9101 666.761 32.2207 666.62C32.5254 666.479 32.792 666.286 33.0205 666.04C33.249 665.788 33.4306 665.483 33.5654 665.126C33.706 664.774 33.7763 664.382 33.7763 663.948C33.7763 663.515 33.706 663.122 33.5654 662.771C33.4248 662.419 33.2431 662.117 33.0205 661.865C32.792 661.613 32.5254 661.417 32.2207 661.276C31.916 661.136 31.5937 661.068 31.2539 661.074C30.9199 661.074 30.5976 661.142 30.2871 661.276C29.9824 661.417 29.7158 661.613 29.4873 661.865C29.2588 662.117 29.0771 662.419 28.9423 662.771C28.8017 663.122 28.7314 663.515 28.7314 663.948ZM28.916 660.802C29.0859 660.62 29.288 660.459 29.5224 660.318C29.7275 660.184 29.9795 660.066 30.2783 659.967C30.5771 659.867 30.9316 659.814 31.3418 659.809C31.8574 659.809 32.3466 659.911 32.8095 660.116C33.2724 660.321 33.6738 660.605 34.0136 660.969C34.3535 661.332 34.623 661.769 34.8222 662.278C35.0214 662.782 35.1211 663.339 35.1211 663.948C35.1211 664.558 35.0214 665.117 34.8222 665.627C34.623 666.131 34.3535 666.564 34.0136 666.928C33.6738 667.291 33.2724 667.575 32.8095 667.78C32.3466 667.985 31.8574 668.088 31.3418 668.088C30.9316 668.088 30.5771 668.032 30.2783 667.921C29.9795 667.81 29.7275 667.687 29.5224 667.552C29.2822 667.394 29.08 667.212 28.916 667.007V670.883H27.5625V659.896H28.5556L28.916 660.802ZM36.1009 659.896H37.5423L39.9768 666.11L42.4026 659.896H43.844L40.3372 668.721C40.0149 669.535 39.6751 670.115 39.3177 670.461C38.9661 670.801 38.5266 670.971 37.9993 670.971C37.929 670.971 37.8616 670.968 37.7971 670.962C37.7386 670.956 37.68 670.947 37.6214 670.936C37.5628 670.924 37.5071 670.906 37.4544 670.883V669.802C37.8645 669.802 38.1721 669.711 38.3772 669.529C38.5823 669.348 38.7552 669.078 38.8958 668.721L39.2561 667.824L36.1009 659.896ZM52.6725 666.743V669.978H51.4068V668H45.4654V669.978H44.2086V666.743H44.6568C44.8385 666.608 44.9996 666.45 45.1402 666.269C45.275 666.11 45.398 665.926 45.5094 665.715C45.6266 665.498 45.7027 665.24 45.7379 664.941L46.2828 659.896H51.5914V666.743H52.6725ZM47.0914 664.941C47.068 665.24 47.0094 665.498 46.9156 665.715C46.8277 665.932 46.734 666.116 46.6344 666.269C46.5172 666.45 46.4 666.608 46.2828 666.743H50.2379V661.162H47.4869L47.0914 664.941ZM61.2197 659.896V668H59.8749V664.493H55.7353V668H54.3818V659.896H55.7353V663.228H59.8749V659.896H61.2197ZM70.5754 659.896V668H69.2307V661.971L65.0911 668H63.7375V659.896H65.0911V665.926L69.2307 659.896H70.5754ZM74.4468 668H73.0933V659.896H74.4468V668ZM77.8658 668L74.4468 663.772L77.5054 659.896H79.0347L75.9761 663.676L79.483 668H77.8658ZM81.3768 663.948C81.3768 664.382 81.4442 664.774 81.579 665.126C81.7138 665.478 81.8925 665.782 82.1151 666.04C82.3436 666.292 82.6044 666.485 82.8973 666.62C83.1903 666.761 83.495 666.831 83.8114 666.831C84.122 666.831 84.4237 666.761 84.7167 666.62C85.0097 666.479 85.2675 666.286 85.4901 666.04C85.7128 665.788 85.8944 665.483 86.035 665.126C86.1757 664.774 86.243 664.382 86.2372 663.948C86.2372 663.515 86.1698 663.122 86.035 662.771C85.8944 662.419 85.7128 662.117 85.4901 661.865C85.2675 661.613 85.0097 661.417 84.7167 661.276C84.4237 661.136 84.122 661.068 83.8114 661.074C83.5009 661.074 83.1962 661.142 82.8973 661.276C82.6044 661.417 82.3436 661.613 82.1151 661.865C81.8866 662.117 81.7079 662.419 81.579 662.771C81.4442 663.122 81.3768 663.515 81.3768 663.948ZM87.5907 663.948C87.5907 664.558 87.4911 665.117 87.2919 665.627C87.0927 666.131 86.8231 666.564 86.4833 666.928C86.1434 667.291 85.7421 667.575 85.2792 667.78C84.8163 667.985 84.327 668.088 83.8114 668.088C83.2958 668.088 82.8065 667.985 82.3436 667.78C81.8807 667.575 81.4794 667.291 81.1395 666.928C80.7997 666.564 80.5272 666.131 80.3222 665.627C80.1229 665.123 80.0263 664.563 80.0321 663.948C80.0321 663.339 80.1288 662.782 80.3222 662.278C80.5214 661.774 80.7938 661.338 81.1395 660.969C81.4794 660.605 81.8807 660.321 82.3436 660.116C82.8065 659.911 83.2958 659.809 83.8114 659.809C84.327 659.809 84.8163 659.911 85.2792 660.116C85.7421 660.321 86.1434 660.605 86.4833 660.969C86.8231 661.332 87.0927 661.769 87.2919 662.278C87.4911 662.782 87.5907 663.339 87.5907 663.948ZM94.5207 663.772C94.7492 663.878 94.9602 664.016 95.1535 664.186C95.3117 664.332 95.4553 664.525 95.5842 664.766C95.7189 665 95.7863 665.299 95.7863 665.662C95.7863 666.348 95.5666 666.91 95.1272 667.35C94.6877 667.783 94.1252 668 93.4397 668H89.5725V659.896H93.176C93.51 659.896 93.8205 659.955 94.1076 660.072C94.3947 660.184 94.6408 660.342 94.8459 660.547C95.051 660.752 95.2121 660.992 95.3293 661.268C95.4523 661.543 95.5139 661.836 95.5139 662.146C95.5139 662.445 95.4611 662.694 95.3557 662.894C95.2561 663.093 95.1418 663.26 95.0129 663.395C94.8664 663.541 94.7023 663.667 94.5207 663.772ZM90.926 661.162V663.228H92.9914C93.3488 663.228 93.633 663.134 93.8439 662.946C94.0549 662.753 94.1604 662.519 94.1604 662.243C94.1604 661.933 94.0549 661.675 93.8439 661.47C93.6389 661.265 93.3547 661.162 92.9914 661.162H90.926ZM93.2639 666.743C93.5744 666.743 93.8469 666.626 94.0813 666.392C94.3156 666.157 94.4328 665.885 94.4328 665.574C94.4328 665.439 94.4035 665.308 94.3449 665.179C94.2863 665.044 94.2014 664.927 94.09 664.827C93.9846 664.722 93.8586 664.64 93.7121 664.581C93.5715 664.522 93.4221 664.493 93.2639 664.493H90.926V666.743H93.2639ZM106.851 663.772C107.08 663.878 107.291 664.016 107.484 664.186C107.642 664.332 107.786 664.525 107.915 664.766C108.05 665 108.117 665.299 108.117 665.662C108.117 666.348 107.897 666.91 107.458 667.35C107.018 667.783 106.456 668 105.77 668H101.903V659.896H105.507C105.841 659.896 106.151 659.955 106.438 660.072C106.725 660.184 106.972 660.342 107.177 660.547C107.382 660.752 107.543 660.992 107.66 661.268C107.783 661.543 107.845 661.836 107.845 662.146C107.845 662.445 107.792 662.694 107.686 662.894C107.587 663.093 107.473 663.26 107.344 663.395C107.197 663.541 107.033 663.667 106.851 663.772ZM103.257 661.162V663.228H105.322C105.68 663.228 105.964 663.134 106.175 662.946C106.386 662.753 106.491 662.519 106.491 662.243C106.491 661.933 106.386 661.675 106.175 661.47C105.97 661.265 105.685 661.162 105.322 661.162H103.257ZM105.595 666.743C105.905 666.743 106.178 666.626 106.412 666.392C106.646 666.157 106.764 665.885 106.764 665.574C106.764 665.439 106.734 665.308 106.676 665.179C106.617 665.044 106.532 664.927 106.421 664.827C106.315 664.722 106.189 664.64 106.043 664.581C105.902 664.522 105.753 664.493 105.595 664.493H103.257V666.743H105.595ZM124.227 659.896V668H114.234V659.896H115.587V666.743H118.558V659.896H119.903V666.743H122.874V659.896H124.227ZM125.84 659.896H132.229V661.162H129.707V668H128.353V661.162H125.84V659.896ZM136.813 659.809C137.258 659.809 137.671 659.885 138.052 660.037C138.433 660.189 138.755 660.389 139.019 660.635C139.288 660.887 139.499 661.183 139.651 661.522C139.804 661.856 139.877 662.217 139.871 662.604V668H138.887L138.526 667.104C138.345 667.297 138.14 667.464 137.911 667.604C137.706 667.739 137.454 667.854 137.155 667.947C136.857 668.041 136.502 668.088 136.092 668.088C135.682 668.088 135.313 668.026 134.984 667.903C134.656 667.774 134.375 667.599 134.141 667.376C133.906 667.153 133.725 666.896 133.596 666.603C133.461 666.31 133.394 665.996 133.394 665.662C133.394 665.275 133.473 664.924 133.631 664.607C133.789 664.291 134.059 664.016 134.44 663.781C134.826 663.547 135.351 663.365 136.013 663.236C136.681 663.107 137.519 663.046 138.526 663.052V662.604C138.526 662.193 138.368 661.836 138.052 661.531C137.735 661.227 137.322 661.074 136.813 661.074C136.309 661.074 135.937 661.177 135.696 661.382C135.456 661.593 135.289 661.88 135.195 662.243H133.754C133.801 661.909 133.903 661.593 134.062 661.294C134.22 661.001 134.428 660.743 134.686 660.521C134.943 660.298 135.248 660.125 135.6 660.002C135.951 659.873 136.356 659.809 136.813 659.809ZM136.092 666.831C136.449 666.831 136.78 666.772 137.085 666.655C137.384 666.544 137.639 666.397 137.85 666.216C138.061 666.034 138.225 665.835 138.342 665.618C138.459 665.396 138.521 665.17 138.526 664.941V664.309C137.712 664.309 137.059 664.341 136.567 664.405C136.074 664.47 135.693 664.566 135.424 664.695C135.154 664.824 134.973 664.974 134.879 665.144C134.791 665.319 134.747 665.521 134.747 665.75C134.747 666.025 134.87 666.274 135.116 666.497C135.357 666.72 135.682 666.831 136.092 666.831ZM141.229 659.896H147.619V661.162H145.096V668H143.743V661.162H141.229V659.896ZM155.63 665.838C155.495 666.125 155.325 666.406 155.12 666.682C154.915 666.957 154.675 667.197 154.399 667.402C154.124 667.607 153.813 667.774 153.468 667.903C153.122 668.032 152.732 668.094 152.299 668.088C151.783 668.088 151.294 667.985 150.831 667.78C150.368 667.575 149.967 667.291 149.627 666.928C149.287 666.564 149.014 666.131 148.809 665.627C148.61 665.123 148.513 664.563 148.519 663.948C148.519 663.339 148.616 662.782 148.809 662.278C149.009 661.774 149.278 661.338 149.618 660.969C149.952 660.605 150.344 660.321 150.796 660.116C151.247 659.911 151.719 659.809 152.211 659.809C152.703 659.809 153.166 659.905 153.599 660.099C154.039 660.292 154.42 660.564 154.742 660.916C155.064 661.268 155.322 661.695 155.515 662.199C155.709 662.697 155.805 663.251 155.805 663.86C155.805 663.978 155.8 664.08 155.788 664.168C155.776 664.25 155.764 664.32 155.753 664.379C155.741 664.449 155.729 664.517 155.718 664.581H149.961C149.984 664.868 150.063 665.149 150.198 665.425C150.339 665.7 150.514 665.94 150.725 666.146C150.936 666.351 151.179 666.515 151.455 666.638C151.73 666.767 152.011 666.831 152.299 666.831C152.551 666.831 152.776 666.796 152.975 666.726C153.175 666.655 153.353 666.57 153.511 666.471C153.676 666.377 153.81 666.271 153.916 666.154C154.021 666.043 154.112 665.938 154.188 665.838H155.63ZM152.211 661.074C151.935 661.074 151.672 661.133 151.42 661.25C151.174 661.367 150.951 661.528 150.752 661.733C150.547 661.938 150.374 662.185 150.233 662.472C150.093 662.759 150.002 663.072 149.961 663.412H154.364C154.27 662.691 154.021 662.12 153.617 661.698C153.219 661.282 152.75 661.074 152.211 661.074Z" fill="black"/>
<path d="M17.5586 592.648V638H11.793V600.559L5.32422 604.883L2.79297 600.559L13.9727 592.648H17.5586ZM32.3059 615.324C32.3059 618.395 32.6341 621.055 33.2903 623.305C33.97 625.555 34.8606 627.43 35.9622 628.93C37.0637 630.406 38.3177 631.508 39.7239 632.234C41.1536 632.961 42.6302 633.324 44.1536 633.324C45.7005 633.324 47.177 632.961 48.5833 632.234C50.013 631.508 51.2786 630.406 52.3802 628.93C53.4817 627.43 54.3606 625.555 55.0169 623.305C55.6966 621.055 56.0364 618.395 56.0364 615.324C56.0364 612.254 55.6966 609.594 55.0169 607.344C54.3606 605.07 53.4817 603.195 52.3802 601.719C51.2786 600.219 50.013 599.117 48.5833 598.414C47.177 597.688 45.7005 597.324 44.1536 597.324C42.6067 597.324 41.1302 597.688 39.7239 598.414C38.3177 599.117 37.0637 600.219 35.9622 601.719C34.8606 603.195 33.97 605.07 33.2903 607.344C32.6341 609.594 32.3059 612.254 32.3059 615.324ZM61.802 615.324C61.802 619.027 61.3216 622.309 60.3606 625.168C59.3997 628.004 58.0989 630.406 56.4583 632.375C54.8411 634.344 52.9778 635.832 50.8684 636.84C48.7591 637.848 46.5208 638.352 44.1536 638.352C41.8098 638.352 39.5716 637.848 37.4387 636.84C35.3059 635.832 33.4309 634.344 31.8137 632.375C30.22 630.406 28.9427 628.004 27.9817 625.168C27.0208 622.309 26.5403 619.027 26.5403 615.324C26.5403 611.621 27.0208 608.34 27.9817 605.48C28.9427 602.621 30.22 600.219 31.8137 598.273C33.4309 596.305 35.3059 594.816 37.4387 593.809C39.5716 592.801 41.8098 592.297 44.1536 592.297C46.4973 592.297 48.7239 592.801 50.8333 593.809C52.9661 594.816 54.8411 596.305 56.4583 598.273C58.0989 600.219 59.3997 602.621 60.3606 605.48C61.3216 608.34 61.802 611.621 61.802 615.324Z" fill="black"/>
<path d="M350.766 472.297H345.703V482H339.973V472.297H319.793V467.586L338.883 436.648H345.703V467.234H350.766V472.297ZM339.973 467.234V444.91L326.297 467.234H339.973Z" fill="black"/>
<path d="M328.007 503.896V512H326.662V508.493H322.522V512H321.169V503.896H322.522V507.228H326.662V503.896H328.007ZM333.583 503.809C334.029 503.809 334.442 503.885 334.823 504.037C335.203 504.189 335.526 504.389 335.789 504.635C336.059 504.887 336.27 505.183 336.422 505.522C336.575 505.856 336.648 506.217 336.642 506.604V512H335.658L335.297 511.104C335.116 511.297 334.91 511.464 334.682 511.604C334.477 511.739 334.225 511.854 333.926 511.947C333.627 512.041 333.273 512.088 332.863 512.088C332.452 512.088 332.083 512.026 331.755 511.903C331.427 511.774 331.146 511.599 330.911 511.376C330.677 511.153 330.495 510.896 330.367 510.603C330.232 510.31 330.164 509.996 330.164 509.662C330.164 509.275 330.243 508.924 330.402 508.607C330.56 508.291 330.829 508.016 331.21 507.781C331.597 507.547 332.121 507.365 332.784 507.236C333.451 507.107 334.289 507.046 335.297 507.052V506.604C335.297 506.193 335.139 505.836 334.823 505.531C334.506 505.227 334.093 505.074 333.583 505.074C333.079 505.074 332.707 505.177 332.467 505.382C332.227 505.593 332.06 505.88 331.966 506.243H330.525C330.572 505.909 330.674 505.593 330.832 505.294C330.991 505.001 331.199 504.743 331.456 504.521C331.714 504.298 332.019 504.125 332.37 504.002C332.722 503.873 333.126 503.809 333.583 503.809ZM332.863 510.831C333.22 510.831 333.551 510.772 333.856 510.655C334.155 510.544 334.409 510.397 334.62 510.216C334.831 510.034 334.995 509.835 335.113 509.618C335.23 509.396 335.291 509.17 335.297 508.941V508.309C334.483 508.309 333.829 508.341 333.337 508.405C332.845 508.47 332.464 508.566 332.195 508.695C331.925 508.824 331.743 508.974 331.65 509.144C331.562 509.319 331.518 509.521 331.518 509.75C331.518 510.025 331.641 510.274 331.887 510.497C332.127 510.72 332.452 510.831 332.863 510.831ZM345.91 503.896V512H344.565V505.162H340.425V512H339.072V503.896H345.91ZM349.597 507.948C349.597 508.382 349.667 508.774 349.808 509.126C349.948 509.478 350.13 509.782 350.353 510.04C350.581 510.292 350.848 510.485 351.152 510.62C351.457 510.761 351.779 510.831 352.119 510.831C352.453 510.831 352.775 510.761 353.086 510.62C353.391 510.479 353.657 510.286 353.886 510.04C354.114 509.788 354.296 509.483 354.431 509.126C354.571 508.774 354.642 508.382 354.642 507.948C354.642 507.515 354.571 507.122 354.431 506.771C354.29 506.419 354.108 506.117 353.886 505.865C353.657 505.613 353.391 505.417 353.086 505.276C352.781 505.136 352.459 505.068 352.119 505.074C351.785 505.074 351.463 505.142 351.152 505.276C350.848 505.417 350.581 505.613 350.353 505.865C350.124 506.117 349.942 506.419 349.808 506.771C349.667 507.122 349.597 507.515 349.597 507.948ZM349.781 504.802C349.951 504.62 350.153 504.459 350.388 504.318C350.593 504.184 350.845 504.066 351.144 503.967C351.442 503.867 351.797 503.814 352.207 503.809C352.723 503.809 353.212 503.911 353.675 504.116C354.138 504.321 354.539 504.605 354.879 504.969C355.219 505.332 355.488 505.769 355.687 506.278C355.887 506.782 355.986 507.339 355.986 507.948C355.986 508.558 355.887 509.117 355.687 509.627C355.488 510.131 355.219 510.564 354.879 510.928C354.539 511.291 354.138 511.575 353.675 511.78C353.212 511.985 352.723 512.088 352.207 512.088C351.797 512.088 351.442 512.032 351.144 511.921C350.845 511.81 350.593 511.687 350.388 511.552C350.147 511.394 349.945 511.212 349.781 511.007V514.883H348.428V503.896H349.421L349.781 504.802ZM361.018 503.809C361.463 503.809 361.876 503.885 362.257 504.037C362.638 504.189 362.96 504.389 363.224 504.635C363.493 504.887 363.704 505.183 363.857 505.522C364.009 505.856 364.082 506.217 364.076 506.604V512H363.092L362.732 511.104C362.55 511.297 362.345 511.464 362.116 511.604C361.911 511.739 361.659 511.854 361.361 511.947C361.062 512.041 360.707 512.088 360.297 512.088C359.887 512.088 359.518 512.026 359.19 511.903C358.862 511.774 358.58 511.599 358.346 511.376C358.112 511.153 357.93 510.896 357.801 510.603C357.666 510.31 357.599 509.996 357.599 509.662C357.599 509.275 357.678 508.924 357.836 508.607C357.994 508.291 358.264 508.016 358.645 507.781C359.032 507.547 359.556 507.365 360.218 507.236C360.886 507.107 361.724 507.046 362.732 507.052V506.604C362.732 506.193 362.574 505.836 362.257 505.531C361.941 505.227 361.528 505.074 361.018 505.074C360.514 505.074 360.142 505.177 359.902 505.382C359.661 505.593 359.494 505.88 359.401 506.243H357.959C358.006 505.909 358.109 505.593 358.267 505.294C358.425 505.001 358.633 504.743 358.891 504.521C359.149 504.298 359.453 504.125 359.805 504.002C360.157 503.873 360.561 503.809 361.018 503.809ZM360.297 510.831C360.655 510.831 360.986 510.772 361.29 510.655C361.589 510.544 361.844 510.397 362.055 510.216C362.266 510.034 362.43 509.835 362.547 509.618C362.664 509.396 362.726 509.17 362.732 508.941V508.309C361.917 508.309 361.264 508.341 360.772 508.405C360.28 508.47 359.899 508.566 359.629 508.695C359.36 508.824 359.178 508.974 359.084 509.144C358.996 509.319 358.952 509.521 358.952 509.75C358.952 510.025 359.075 510.274 359.322 510.497C359.562 510.72 359.887 510.831 360.297 510.831ZM371.455 507.772C371.683 507.878 371.894 508.016 372.088 508.186C372.246 508.332 372.389 508.525 372.518 508.766C372.653 509 372.72 509.299 372.72 509.662C372.72 510.348 372.501 510.91 372.061 511.35C371.622 511.783 371.059 512 370.374 512H366.506V503.896H370.11C370.444 503.896 370.754 503.955 371.042 504.072C371.329 504.184 371.575 504.342 371.78 504.547C371.985 504.752 372.146 504.992 372.263 505.268C372.386 505.543 372.448 505.836 372.448 506.146C372.448 506.445 372.395 506.694 372.29 506.894C372.19 507.093 372.076 507.26 371.947 507.395C371.8 507.541 371.636 507.667 371.455 507.772ZM367.86 505.162V507.228H369.925C370.283 507.228 370.567 507.134 370.778 506.946C370.989 506.753 371.094 506.519 371.094 506.243C371.094 505.933 370.989 505.675 370.778 505.47C370.573 505.265 370.289 505.162 369.925 505.162H367.86ZM370.198 510.743C370.508 510.743 370.781 510.626 371.015 510.392C371.25 510.157 371.367 509.885 371.367 509.574C371.367 509.439 371.338 509.308 371.279 509.179C371.22 509.044 371.135 508.927 371.024 508.827C370.919 508.722 370.793 508.64 370.646 508.581C370.505 508.522 370.356 508.493 370.198 508.493H367.86V510.743H370.198ZM381.092 503.896V512H379.738V505.074H376.768L376.504 509.39C376.445 510.251 376.196 510.916 375.757 511.385C375.317 511.854 374.755 512.088 374.069 512.088C373.999 512.088 373.932 512.085 373.867 512.079C373.809 512.073 373.75 512.064 373.691 512.053C373.633 512.041 373.58 512.023 373.533 512V510.831H373.709C374.588 510.831 375.068 510.351 375.15 509.39L375.599 503.896H381.092ZM390.193 509.838C390.058 510.125 389.888 510.406 389.683 510.682C389.478 510.957 389.238 511.197 388.962 511.402C388.687 511.607 388.376 511.774 388.031 511.903C387.685 512.032 387.295 512.094 386.862 512.088C386.346 512.088 385.857 511.985 385.394 511.78C384.931 511.575 384.53 511.291 384.19 510.928C383.85 510.564 383.577 510.131 383.372 509.627C383.173 509.123 383.076 508.563 383.082 507.948C383.082 507.339 383.179 506.782 383.372 506.278C383.572 505.774 383.841 505.338 384.181 504.969C384.515 504.605 384.907 504.321 385.359 504.116C385.81 503.911 386.281 503.809 386.774 503.809C387.266 503.809 387.729 503.905 388.162 504.099C388.602 504.292 388.983 504.564 389.305 504.916C389.627 505.268 389.885 505.695 390.078 506.199C390.272 506.697 390.368 507.251 390.368 507.86C390.368 507.978 390.363 508.08 390.351 508.168C390.339 508.25 390.327 508.32 390.316 508.379C390.304 508.449 390.292 508.517 390.281 508.581H384.524C384.547 508.868 384.626 509.149 384.761 509.425C384.902 509.7 385.077 509.94 385.288 510.146C385.499 510.351 385.742 510.515 386.018 510.638C386.293 510.767 386.574 510.831 386.862 510.831C387.114 510.831 387.339 510.796 387.538 510.726C387.738 510.655 387.916 510.57 388.074 510.471C388.239 510.377 388.373 510.271 388.479 510.154C388.584 510.043 388.675 509.938 388.751 509.838H390.193ZM386.774 505.074C386.498 505.074 386.235 505.133 385.983 505.25C385.737 505.367 385.514 505.528 385.315 505.733C385.11 505.938 384.937 506.185 384.796 506.472C384.656 506.759 384.565 507.072 384.524 507.412H388.927C388.833 506.691 388.584 506.12 388.18 505.698C387.781 505.282 387.313 505.074 386.774 505.074ZM399.179 503.896V512H397.835V508.493H393.695V512H392.341V503.896H393.695V507.228H397.835V503.896H399.179ZM408.535 503.896V512H407.19V505.971L403.051 512H401.697V503.896H403.051V509.926L407.19 503.896H408.535ZM413.848 509.117L412.046 512H410.517L412.406 508.941C412.096 508.848 411.826 508.692 411.598 508.476C411.393 508.294 411.205 508.048 411.035 507.737C410.865 507.421 410.78 507.011 410.78 506.507C410.78 505.739 411.029 505.112 411.528 504.626C412.026 504.14 412.708 503.896 413.575 503.896H416.994V512H415.641V509.117H413.848ZM413.575 505.162C413.165 505.162 412.822 505.297 412.547 505.566C412.272 505.836 412.134 506.149 412.134 506.507C412.134 506.864 412.272 507.181 412.547 507.456C412.822 507.726 413.165 507.86 413.575 507.86H415.641V505.162H413.575ZM424.728 507.948C424.728 508.382 424.799 508.774 424.939 509.126C425.08 509.478 425.262 509.782 425.484 510.04C425.713 510.292 425.979 510.485 426.284 510.62C426.589 510.761 426.911 510.831 427.251 510.831C427.585 510.831 427.907 510.761 428.218 510.62C428.522 510.479 428.789 510.286 429.017 510.04C429.246 509.788 429.428 509.483 429.562 509.126C429.703 508.774 429.773 508.382 429.773 507.948C429.773 507.515 429.703 507.122 429.562 506.771C429.422 506.419 429.24 506.117 429.017 505.865C428.789 505.613 428.522 505.417 428.218 505.276C427.913 505.136 427.591 505.068 427.251 505.074C426.917 505.074 426.595 505.142 426.284 505.276C425.979 505.417 425.713 505.613 425.484 505.865C425.256 506.117 425.074 506.419 424.939 506.771C424.799 507.122 424.728 507.515 424.728 507.948ZM424.913 504.802C425.083 504.62 425.285 504.459 425.519 504.318C425.724 504.184 425.976 504.066 426.275 503.967C426.574 503.867 426.929 503.814 427.339 503.809C427.854 503.809 428.344 503.911 428.806 504.116C429.269 504.321 429.671 504.605 430.011 504.969C430.35 505.332 430.62 505.769 430.819 506.278C431.018 506.782 431.118 507.339 431.118 507.948C431.118 508.558 431.018 509.117 430.819 509.627C430.62 510.131 430.35 510.564 430.011 510.928C429.671 511.291 429.269 511.575 428.806 511.78C428.344 511.985 427.854 512.088 427.339 512.088C426.929 512.088 426.574 512.032 426.275 511.921C425.976 511.81 425.724 511.687 425.519 511.552C425.279 511.394 425.077 511.212 424.913 511.007V514.883H423.559V503.896H424.553L424.913 504.802ZM436.15 503.809C436.595 503.809 437.008 503.885 437.389 504.037C437.77 504.189 438.092 504.389 438.356 504.635C438.625 504.887 438.836 505.183 438.988 505.522C439.141 505.856 439.214 506.217 439.208 506.604V512H438.224L437.863 511.104C437.682 511.297 437.477 511.464 437.248 511.604C437.043 511.739 436.791 511.854 436.492 511.947C436.194 512.041 435.839 512.088 435.429 512.088C435.019 512.088 434.65 512.026 434.321 511.903C433.993 511.774 433.712 511.599 433.478 511.376C433.243 511.153 433.062 510.896 432.933 510.603C432.798 510.31 432.731 509.996 432.731 509.662C432.731 509.275 432.81 508.924 432.968 508.607C433.126 508.291 433.396 508.016 433.777 507.781C434.163 507.547 434.688 507.365 435.35 507.236C436.018 507.107 436.856 507.046 437.863 507.052V506.604C437.863 506.193 437.705 505.836 437.389 505.531C437.072 505.227 436.659 505.074 436.15 505.074C435.646 505.074 435.274 505.177 435.033 505.382C434.793 505.593 434.626 505.88 434.532 506.243H433.091C433.138 505.909 433.24 505.593 433.399 505.294C433.557 505.001 433.765 504.743 434.023 504.521C434.28 504.298 434.585 504.125 434.937 504.002C435.288 503.873 435.693 503.809 436.15 503.809ZM435.429 510.831C435.786 510.831 436.117 510.772 436.422 510.655C436.721 510.544 436.976 510.397 437.187 510.216C437.398 510.034 437.562 509.835 437.679 509.618C437.796 509.396 437.858 509.17 437.863 508.941V508.309C437.049 508.309 436.396 508.341 435.903 508.405C435.411 508.47 435.03 508.566 434.761 508.695C434.491 508.824 434.31 508.974 434.216 509.144C434.128 509.319 434.084 509.521 434.084 509.75C434.084 510.025 434.207 510.274 434.453 510.497C434.694 510.72 435.019 510.831 435.429 510.831ZM442.543 505.522C442.725 505.282 442.945 505.06 443.203 504.854C443.431 504.685 443.712 504.529 444.046 504.389C444.386 504.242 444.785 504.169 445.242 504.169C445.71 504.169 446.162 504.271 446.595 504.477C447.035 504.682 447.418 504.963 447.747 505.32C448.081 505.672 448.344 506.088 448.538 506.568C448.737 507.043 448.836 507.564 448.836 508.133C448.836 508.695 448.74 509.217 448.546 509.697C448.359 510.178 448.098 510.597 447.764 510.954C447.436 511.306 447.046 511.584 446.595 511.789C446.15 511.988 445.666 512.088 445.145 512.088C444.629 512.088 444.137 511.977 443.668 511.754C443.206 511.531 442.795 511.209 442.438 510.787C442.086 510.359 441.805 509.835 441.594 509.214C441.383 508.587 441.278 507.866 441.278 507.052C441.278 505.886 441.389 504.898 441.612 504.09C441.834 503.281 442.201 502.622 442.71 502.112C443.22 501.603 443.894 501.222 444.732 500.97C445.576 500.718 446.616 500.554 447.852 500.478V501.743C446.879 501.79 446.068 501.898 445.417 502.068C444.773 502.232 444.249 502.473 443.844 502.789C443.44 503.1 443.138 503.48 442.939 503.932C442.746 504.383 442.614 504.913 442.543 505.522ZM445.145 510.831C445.456 510.831 445.751 510.767 446.033 510.638C446.32 510.503 446.572 510.318 446.789 510.084C447.005 509.85 447.175 509.568 447.298 509.24C447.427 508.906 447.492 508.537 447.492 508.133C447.492 507.723 447.427 507.354 447.298 507.025C447.175 506.691 447.005 506.41 446.789 506.182C446.572 505.947 446.323 505.763 446.041 505.628C445.76 505.493 445.461 505.426 445.145 505.426C444.834 505.426 444.533 505.496 444.24 505.637C443.947 505.777 443.686 505.968 443.457 506.208C443.229 506.448 443.047 506.732 442.913 507.061C442.784 507.389 442.719 507.746 442.719 508.133C442.719 508.52 442.784 508.877 442.913 509.205C443.047 509.533 443.229 509.817 443.457 510.058C443.686 510.298 443.947 510.488 444.24 510.629C444.533 510.764 444.834 510.831 445.145 510.831ZM451.627 507.948C451.627 508.382 451.694 508.774 451.829 509.126C451.964 509.478 452.142 509.782 452.365 510.04C452.594 510.292 452.854 510.485 453.147 510.62C453.44 510.761 453.745 510.831 454.061 510.831C454.372 510.831 454.674 510.761 454.967 510.62C455.26 510.479 455.517 510.286 455.74 510.04C455.963 509.788 456.144 509.483 456.285 509.126C456.426 508.774 456.493 508.382 456.487 507.948C456.487 507.515 456.42 507.122 456.285 506.771C456.144 506.419 455.963 506.117 455.74 505.865C455.517 505.613 455.26 505.417 454.967 505.276C454.674 505.136 454.372 505.068 454.061 505.074C453.751 505.074 453.446 505.142 453.147 505.276C452.854 505.417 452.594 505.613 452.365 505.865C452.137 506.117 451.958 506.419 451.829 506.771C451.694 507.122 451.627 507.515 451.627 507.948ZM457.841 507.948C457.841 508.558 457.741 509.117 457.542 509.627C457.343 510.131 457.073 510.564 456.733 510.928C456.393 511.291 455.992 511.575 455.529 511.78C455.066 511.985 454.577 512.088 454.061 512.088C453.546 512.088 453.056 511.985 452.594 511.78C452.131 511.575 451.729 511.291 451.389 510.928C451.05 510.564 450.777 510.131 450.572 509.627C450.373 509.123 450.276 508.563 450.282 507.948C450.282 507.339 450.379 506.782 450.572 506.278C450.771 505.774 451.044 505.338 451.389 504.969C451.729 504.605 452.131 504.321 452.594 504.116C453.056 503.911 453.546 503.809 454.061 503.809C454.577 503.809 455.066 503.911 455.529 504.116C455.992 504.321 456.393 504.605 456.733 504.969C457.073 505.332 457.343 505.769 457.542 506.278C457.741 506.782 457.841 507.339 457.841 507.948ZM458.75 503.896H465.14V505.162H462.617V512H461.264V505.162H458.75V503.896ZM475.304 503.896V512H473.951V503.896H475.304ZM469.908 506.779C470.769 506.779 471.449 507.022 471.947 507.509C472.445 507.995 472.694 508.622 472.694 509.39C472.694 510.157 472.445 510.784 471.947 511.271C471.449 511.757 470.769 512 469.908 512H466.752V503.896H468.106V506.779H469.908ZM469.908 510.743C470.318 510.743 470.658 510.608 470.927 510.339C471.203 510.063 471.34 509.747 471.34 509.39C471.34 509.032 471.203 508.719 470.927 508.449C470.652 508.174 470.312 508.036 469.908 508.036H468.106V510.743H469.908Z" fill="black"/>
<path d="M328.464 666.743V669.978H327.198V668H321.257V669.978H320V666.743H320.448C320.63 666.608 320.791 666.45 320.932 666.269C321.066 666.11 321.189 665.926 321.301 665.715C321.418 665.498 321.494 665.24 321.529 664.941L322.074 659.896H327.383V666.743H328.464ZM322.883 664.941C322.859 665.24 322.801 665.498 322.707 665.715C322.619 665.932 322.525 666.116 322.426 666.269C322.309 666.45 322.191 666.608 322.074 666.743H326.029V661.162H323.278L322.883 664.941ZM337.011 659.896V668H335.666V664.493H331.527V668H330.173V659.896H331.527V663.228H335.666V659.896H337.011ZM346.103 665.838C345.968 666.125 345.798 666.406 345.593 666.682C345.388 666.957 345.148 667.197 344.873 667.402C344.597 667.607 344.287 667.774 343.941 667.903C343.595 668.032 343.206 668.094 342.772 668.088C342.256 668.088 341.767 667.985 341.304 667.78C340.841 667.575 340.44 667.291 340.1 666.928C339.76 666.564 339.488 666.131 339.283 665.627C339.084 665.123 338.987 664.563 338.993 663.948C338.993 663.339 339.089 662.782 339.283 662.278C339.482 661.774 339.752 661.338 340.091 660.969C340.425 660.605 340.818 660.321 341.269 660.116C341.72 659.911 342.192 659.809 342.684 659.809C343.176 659.809 343.639 659.905 344.073 660.099C344.512 660.292 344.893 660.564 345.215 660.916C345.538 661.268 345.796 661.695 345.989 662.199C346.182 662.697 346.279 663.251 346.279 663.86C346.279 663.978 346.273 664.08 346.261 664.168C346.25 664.25 346.238 664.32 346.226 664.379C346.214 664.449 346.203 664.517 346.191 664.581H340.434C340.458 664.868 340.537 665.149 340.672 665.425C340.812 665.7 340.988 665.94 341.199 666.146C341.41 666.351 341.653 666.515 341.928 666.638C342.204 666.767 342.485 666.831 342.772 666.831C343.024 666.831 343.25 666.796 343.449 666.726C343.648 666.655 343.827 666.57 343.985 666.471C344.149 666.377 344.284 666.271 344.389 666.154C344.495 666.043 344.586 665.938 344.662 665.838H346.103ZM342.684 661.074C342.409 661.074 342.145 661.133 341.893 661.25C341.647 661.367 341.424 661.528 341.225 661.733C341.02 661.938 340.847 662.185 340.707 662.472C340.566 662.759 340.475 663.072 340.434 663.412H344.838C344.744 662.691 344.495 662.12 344.09 661.698C343.692 661.282 343.223 661.074 342.684 661.074ZM351.671 658.64C351.085 658.64 350.602 658.443 350.221 658.051C349.84 657.658 349.603 657.195 349.509 656.662H350.59C350.637 656.973 350.76 657.23 350.959 657.436C351.158 657.641 351.395 657.743 351.671 657.743C351.946 657.743 352.184 657.641 352.383 657.436C352.582 657.23 352.705 656.973 352.752 656.662H353.833C353.739 657.201 353.502 657.664 353.121 658.051C352.74 658.443 352.257 658.64 351.671 658.64ZM355.09 659.896V668H353.745V661.971L349.605 668H348.252V659.896H349.605V665.926L353.745 659.896H355.09ZM368.493 659.896V668H367.148V661.971L363.008 668H361.655V659.896H363.008V665.926L367.148 659.896H368.493ZM382.353 666.743V669.978H381.087V668H375.146V669.978H373.889V666.743H374.337C374.519 666.608 374.68 666.45 374.821 666.269C374.955 666.11 375.078 665.926 375.19 665.715C375.307 665.498 375.383 665.24 375.418 664.941L375.963 659.896H381.272V666.743H382.353ZM376.772 664.941C376.748 665.24 376.69 665.498 376.596 665.715C376.508 665.932 376.414 666.116 376.315 666.269C376.197 666.45 376.08 666.608 375.963 666.743H379.918V661.162H377.167L376.772 664.941ZM390.9 659.896V668H389.555V661.971L385.416 668H384.062V659.896H385.416V665.926L389.555 659.896H390.9ZM397.285 663.86C397.502 663.978 397.695 664.121 397.865 664.291C398.012 664.438 398.146 664.625 398.269 664.854C398.398 665.082 398.463 665.352 398.463 665.662C398.463 665.996 398.395 666.31 398.261 666.603C398.132 666.896 397.947 667.153 397.707 667.376C397.467 667.599 397.174 667.774 396.828 667.903C396.488 668.026 396.101 668.088 395.668 668.088C394.766 668.088 394.057 667.848 393.541 667.367C393.025 666.887 392.744 666.289 392.697 665.574H394.051C394.098 665.932 394.253 666.23 394.516 666.471C394.78 666.711 395.164 666.831 395.668 666.831C396.125 666.831 396.479 666.714 396.731 666.479C396.983 666.245 397.109 665.973 397.109 665.662C397.109 665.352 396.98 665.079 396.723 664.845C396.465 664.61 396.113 664.493 395.668 664.493H394.947V663.228H395.668C396.025 663.228 396.324 663.128 396.564 662.929C396.805 662.724 396.925 662.463 396.925 662.146C396.925 661.836 396.805 661.581 396.564 661.382C396.33 661.177 396.031 661.074 395.668 661.074C395.164 661.074 394.795 661.191 394.56 661.426C394.326 661.654 394.185 661.927 394.139 662.243H392.785C392.832 661.522 393.099 660.937 393.585 660.485C394.077 660.034 394.771 659.809 395.668 659.809C396.055 659.809 396.406 659.873 396.723 660.002C397.039 660.125 397.314 660.295 397.549 660.512C397.783 660.729 397.962 660.978 398.085 661.259C398.214 661.54 398.278 661.836 398.278 662.146C398.278 662.445 398.225 662.7 398.12 662.911C398.02 663.122 397.906 663.301 397.777 663.447C397.631 663.617 397.467 663.755 397.285 663.86ZM403.582 659.809C404.028 659.809 404.441 659.885 404.821 660.037C405.202 660.189 405.525 660.389 405.788 660.635C406.058 660.887 406.269 661.183 406.421 661.522C406.573 661.856 406.647 662.217 406.641 662.604V668H405.656L405.296 667.104C405.114 667.297 404.909 667.464 404.681 667.604C404.476 667.739 404.224 667.854 403.925 667.947C403.626 668.041 403.272 668.088 402.862 668.088C402.451 668.088 402.082 668.026 401.754 667.903C401.426 667.774 401.145 667.599 400.91 667.376C400.676 667.153 400.494 666.896 400.365 666.603C400.231 666.31 400.163 665.996 400.163 665.662C400.163 665.275 400.242 664.924 400.401 664.607C400.559 664.291 400.828 664.016 401.209 663.781C401.596 663.547 402.12 663.365 402.782 663.236C403.45 663.107 404.288 663.046 405.296 663.052V662.604C405.296 662.193 405.138 661.836 404.821 661.531C404.505 661.227 404.092 661.074 403.582 661.074C403.078 661.074 402.706 661.177 402.466 661.382C402.226 661.593 402.059 661.88 401.965 662.243H400.524C400.571 661.909 400.673 661.593 400.831 661.294C400.989 661.001 401.197 660.743 401.455 660.521C401.713 660.298 402.018 660.125 402.369 660.002C402.721 659.873 403.125 659.809 403.582 659.809ZM402.862 666.831C403.219 666.831 403.55 666.772 403.855 666.655C404.154 666.544 404.408 666.397 404.619 666.216C404.83 666.034 404.994 665.835 405.112 665.618C405.229 665.396 405.29 665.17 405.296 664.941V664.309C404.482 664.309 403.828 664.341 403.336 664.405C402.844 664.47 402.463 664.566 402.194 664.695C401.924 664.824 401.742 664.974 401.649 665.144C401.561 665.319 401.517 665.521 401.517 665.75C401.517 666.025 401.64 666.274 401.886 666.497C402.126 666.72 402.451 666.831 402.862 666.831ZM412.49 658.64C411.904 658.64 411.42 658.443 411.04 658.051C410.659 657.658 410.421 657.195 410.328 656.662H411.409C411.456 656.973 411.579 657.23 411.778 657.436C411.977 657.641 412.214 657.743 412.49 657.743C412.765 657.743 413.002 657.641 413.202 657.436C413.401 657.23 413.524 656.973 413.571 656.662H414.652C414.558 657.201 414.321 657.664 413.94 658.051C413.559 658.443 413.076 658.64 412.49 658.64ZM415.909 659.896V668H414.564V661.971L410.424 668H409.071V659.896H410.424V665.926L414.564 659.896H415.909ZM425.264 659.896V668H423.92V664.493H419.78V668H418.427V659.896H419.78V663.228H423.92V659.896H425.264ZM437.05 661.162H433.183V668H431.83V659.896H437.05V661.162ZM439.217 663.948C439.217 664.382 439.284 664.774 439.419 665.126C439.554 665.478 439.732 665.782 439.955 666.04C440.183 666.292 440.444 666.485 440.737 666.62C441.03 666.761 441.335 666.831 441.651 666.831C441.962 666.831 442.263 666.761 442.556 666.62C442.849 666.479 443.107 666.286 443.33 666.04C443.553 665.788 443.734 665.483 443.875 665.126C444.015 664.774 444.083 664.382 444.077 663.948C444.077 663.515 444.01 663.122 443.875 662.771C443.734 662.419 443.553 662.117 443.33 661.865C443.107 661.613 442.849 661.417 442.556 661.276C442.263 661.136 441.962 661.068 441.651 661.074C441.341 661.074 441.036 661.142 440.737 661.276C440.444 661.417 440.183 661.613 439.955 661.865C439.726 662.117 439.548 662.419 439.419 662.771C439.284 663.122 439.217 663.515 439.217 663.948ZM445.43 663.948C445.43 664.558 445.331 665.117 445.132 665.627C444.932 666.131 444.663 666.564 444.323 666.928C443.983 667.291 443.582 667.575 443.119 667.78C442.656 667.985 442.167 668.088 441.651 668.088C441.136 668.088 440.646 667.985 440.183 667.78C439.721 667.575 439.319 667.291 438.979 666.928C438.639 666.564 438.367 666.131 438.162 665.627C437.963 665.123 437.866 664.563 437.872 663.948C437.872 663.339 437.969 662.782 438.162 662.278C438.361 661.774 438.634 661.338 438.979 660.969C439.319 660.605 439.721 660.321 440.183 660.116C440.646 659.911 441.136 659.809 441.651 659.809C442.167 659.809 442.656 659.911 443.119 660.116C443.582 660.321 443.983 660.605 444.323 660.969C444.663 661.332 444.932 661.769 445.132 662.278C445.331 662.782 445.43 663.339 445.43 663.948ZM446.34 659.896H452.73V661.162H450.207V668H448.854V661.162H446.34V659.896ZM454.975 663.948C454.975 664.382 455.042 664.774 455.177 665.126C455.312 665.478 455.491 665.782 455.713 666.04C455.942 666.292 456.203 666.485 456.496 666.62C456.789 666.761 457.093 666.831 457.41 666.831C457.72 666.831 458.022 666.761 458.315 666.62C458.608 666.479 458.866 666.286 459.088 666.04C459.311 665.788 459.493 665.483 459.633 665.126C459.774 664.774 459.841 664.382 459.835 663.948C459.835 663.515 459.768 663.122 459.633 662.771C459.493 662.419 459.311 662.117 459.088 661.865C458.866 661.613 458.608 661.417 458.315 661.276C458.022 661.136 457.72 661.068 457.41 661.074C457.099 661.074 456.794 661.142 456.496 661.276C456.203 661.417 455.942 661.613 455.713 661.865C455.485 662.117 455.306 662.419 455.177 662.771C455.042 663.122 454.975 663.515 454.975 663.948ZM461.189 663.948C461.189 664.558 461.089 665.117 460.89 665.627C460.691 666.131 460.421 666.564 460.081 666.928C459.742 667.291 459.34 667.575 458.877 667.78C458.414 667.985 457.925 668.088 457.41 668.088C456.894 668.088 456.405 667.985 455.942 667.78C455.479 667.575 455.078 667.291 454.738 666.928C454.398 666.564 454.125 666.131 453.92 665.627C453.721 665.123 453.624 664.563 453.63 663.948C453.63 663.339 453.727 662.782 453.92 662.278C454.12 661.774 454.392 661.338 454.738 660.969C455.078 660.605 455.479 660.321 455.942 660.116C456.405 659.911 456.894 659.809 457.41 659.809C457.925 659.809 458.414 659.911 458.877 660.116C459.34 660.321 459.742 660.605 460.081 660.969C460.421 661.332 460.691 661.769 460.89 662.278C461.089 662.782 461.189 663.339 461.189 663.948ZM468.119 663.772C468.347 663.878 468.558 664.016 468.752 664.186C468.91 664.332 469.053 664.525 469.182 664.766C469.317 665 469.385 665.299 469.385 665.662C469.385 666.348 469.165 666.91 468.725 667.35C468.286 667.783 467.723 668 467.038 668H463.171V659.896H466.774C467.108 659.896 467.419 659.955 467.706 660.072C467.993 660.184 468.239 660.342 468.444 660.547C468.649 660.752 468.81 660.992 468.928 661.268C469.051 661.543 469.112 661.836 469.112 662.146C469.112 662.445 469.059 662.694 468.954 662.894C468.854 663.093 468.74 663.26 468.611 663.395C468.465 663.541 468.301 663.667 468.119 663.772ZM464.524 661.162V663.228H466.59C466.947 663.228 467.231 663.134 467.442 662.946C467.653 662.753 467.759 662.519 467.759 662.243C467.759 661.933 467.653 661.675 467.442 661.47C467.237 661.265 466.953 661.162 466.59 661.162H464.524ZM466.862 666.743C467.173 666.743 467.445 666.626 467.679 666.392C467.914 666.157 468.031 665.885 468.031 665.574C468.031 665.439 468.002 665.308 467.943 665.179C467.885 665.044 467.8 664.927 467.688 664.827C467.583 664.722 467.457 664.64 467.31 664.581C467.17 664.522 467.02 664.493 466.862 664.493H464.524V666.743H466.862Z" fill="black"/>
<path d="M348.883 592.648V596.586L329.793 638H323.676L342.414 597.676H321.531V592.648H348.883Z" fill="black"/>
</svg>
