<svg width="157" height="249" viewBox="0 0 157 249" fill="none" xmlns="http://www.w3.org/2000/svg">
<path d="M31.3242 50.9727V56H3.23438V51.6758L21.2344 31.8828C22.0547 31.0156 22.7812 30.1016 23.4141 29.1406C23.9531 28.3203 24.4453 27.3711 24.8906 26.293C25.3359 25.2148 25.5586 24.0781 25.5586 22.8828C25.5586 20.7266 24.8086 18.9336 23.3086 17.5039C21.832 16.0508 19.8281 15.3242 17.2969 15.3242C14.7422 15.3242 12.6562 16.1328 11.0391 17.75C9.44531 19.3437 8.64844 21.418 8.64844 23.9727H2.88281C2.88281 22.0977 3.23438 20.3164 3.9375 18.6289C4.66406 16.9414 5.67188 15.4883 6.96094 14.2695C8.27344 13.0508 9.79688 12.0898 11.5312 11.3867C13.2891 10.6602 15.2109 10.2969 17.2969 10.2969C19.3594 10.2969 21.2461 10.6367 22.957 11.3164C24.6914 11.9727 26.168 12.875 27.3867 14.0234C28.6055 15.1719 29.5664 16.5078 30.2695 18.0312C30.9727 19.5313 31.3242 21.1484 31.3242 22.8828C31.3242 24.5234 30.9961 26.0938 30.3398 27.5938C29.707 29.0703 29.0039 30.3594 28.2305 31.4609C27.3633 32.75 26.3555 33.9688 25.207 35.1172L10.793 50.9727H31.3242Z" fill="black"/>
<path d="M8.38965 79.1621H4.52246V86H3.16895V77.8965H8.38965V79.1621ZM10.556 81.9482C10.556 82.3818 10.6234 82.7744 10.7581 83.126C10.8929 83.4775 11.0716 83.7822 11.2943 84.04C11.5228 84.292 11.7835 84.4854 12.0765 84.6201C12.3695 84.7607 12.6741 84.8311 12.9905 84.8311C13.3011 84.8311 13.6029 84.7607 13.8958 84.6201C14.1888 84.4795 14.4466 84.2861 14.6693 84.04C14.8919 83.7881 15.0736 83.4834 15.2142 83.126C15.3548 82.7744 15.4222 82.3818 15.4163 81.9482C15.4163 81.5146 15.3489 81.1221 15.2142 80.7705C15.0736 80.4189 14.8919 80.1172 14.6693 79.8652C14.4466 79.6133 14.1888 79.417 13.8958 79.2764C13.6029 79.1357 13.3011 79.0684 12.9905 79.0742C12.68 79.0742 12.3753 79.1416 12.0765 79.2764C11.7835 79.417 11.5228 79.6133 11.2943 79.8652C11.0657 80.1172 10.887 80.4189 10.7581 80.7705C10.6234 81.1221 10.556 81.5146 10.556 81.9482ZM16.7698 81.9482C16.7698 82.5576 16.6702 83.1172 16.471 83.627C16.2718 84.1309 16.0023 84.5645 15.6624 84.9277C15.3226 85.291 14.9212 85.5752 14.4583 85.7803C13.9954 85.9854 13.5062 86.0879 12.9905 86.0879C12.4749 86.0879 11.9857 85.9854 11.5228 85.7803C11.0599 85.5752 10.6585 85.291 10.3187 84.9277C9.97883 84.5645 9.70637 84.1309 9.50129 83.627C9.30207 83.123 9.20539 82.5635 9.21125 81.9482C9.21125 81.3389 9.30793 80.7822 9.50129 80.2783C9.70051 79.7744 9.97297 79.3379 10.3187 78.9688C10.6585 78.6055 11.0599 78.3213 11.5228 78.1162C11.9857 77.9111 12.4749 77.8086 12.9905 77.8086C13.5062 77.8086 13.9954 77.9111 14.4583 78.1162C14.9212 78.3213 15.3226 78.6055 15.6624 78.9688C16.0023 79.332 16.2718 79.7686 16.471 80.2783C16.6702 80.7822 16.7698 81.3389 16.7698 81.9482ZM26.0465 84.7432V87.9775H24.7809V86H18.8395V87.9775H17.5827V84.7432H18.0309C18.2125 84.6084 18.3737 84.4502 18.5143 84.2686C18.6491 84.1104 18.7721 83.9258 18.8834 83.7148C19.0006 83.498 19.0768 83.2402 19.112 82.9414L19.6569 77.8965H24.9655V84.7432H26.0465ZM20.4655 82.9414C20.442 83.2402 20.3834 83.498 20.2897 83.7148C20.2018 83.9316 20.108 84.1162 20.0084 84.2686C19.8912 84.4502 19.7741 84.6084 19.6569 84.7432H23.612V79.1621H20.861L20.4655 82.9414ZM30.8144 77.8086C31.2597 77.8086 31.6728 77.8848 32.0537 78.0371C32.4345 78.1895 32.7568 78.3887 33.0205 78.6348C33.29 78.8867 33.5009 79.1826 33.6533 79.5225C33.8056 79.8564 33.8789 80.2168 33.873 80.6035V86H32.8886L32.5283 85.1035C32.3466 85.2969 32.1416 85.4639 31.913 85.6045C31.708 85.7393 31.456 85.8535 31.1572 85.9473C30.8584 86.041 30.5039 86.0879 30.0937 86.0879C29.6836 86.0879 29.3144 86.0264 28.9863 85.9033C28.6582 85.7744 28.3769 85.5986 28.1425 85.376C27.9082 85.1533 27.7265 84.8955 27.5976 84.6025C27.4629 84.3096 27.3955 83.9961 27.3955 83.6621C27.3955 83.2754 27.4746 82.9238 27.6328 82.6074C27.791 82.291 28.0605 82.0156 28.4414 81.7812C28.8281 81.5469 29.3525 81.3652 30.0146 81.2363C30.6826 81.1074 31.5205 81.0459 32.5283 81.0518V80.6035C32.5283 80.1934 32.3701 79.8359 32.0537 79.5312C31.7373 79.2266 31.3242 79.0742 30.8144 79.0742C30.3105 79.0742 29.9384 79.1768 29.6982 79.3818C29.458 79.5928 29.291 79.8799 29.1972 80.2432H27.7558C27.8027 79.9092 27.9052 79.5928 28.0634 79.2939C28.2216 79.001 28.4296 78.7432 28.6875 78.5205C28.9453 78.2979 29.25 78.125 29.6015 78.002C29.9531 77.873 30.3574 77.8086 30.8144 77.8086ZM30.0937 84.8311C30.4511 84.8311 30.7822 84.7725 31.0869 84.6553C31.3857 84.5439 31.6406 84.3975 31.8515 84.2158C32.0625 84.0342 32.2265 83.835 32.3437 83.6182C32.4609 83.3955 32.5224 83.1699 32.5283 82.9414V82.3086C31.7138 82.3086 31.0605 82.3408 30.5683 82.4053C30.0761 82.4697 29.6953 82.5664 29.4257 82.6953C29.1562 82.8242 28.9746 82.9736 28.8808 83.1436C28.7929 83.3193 28.749 83.5215 28.749 83.75C28.749 84.0254 28.872 84.2744 29.1181 84.4971C29.3584 84.7197 29.6836 84.8311 30.0937 84.8311ZM47.1881 77.8965V86H45.8434V82.4932H41.7037V86H40.3502V77.8965H41.7037V81.2275H45.8434V77.8965H47.1881ZM52.7646 77.8086C53.2099 77.8086 53.623 77.8848 54.0038 78.0371C54.3847 78.1895 54.707 78.3887 54.9706 78.6348C55.2402 78.8867 55.4511 79.1826 55.6034 79.5225C55.7558 79.8564 55.829 80.2168 55.8232 80.6035V86H54.8388L54.4784 85.1035C54.2968 85.2969 54.0917 85.4639 53.8632 85.6045C53.6581 85.7393 53.4062 85.8535 53.1073 85.9473C52.8085 86.041 52.454 86.0879 52.0439 86.0879C51.6337 86.0879 51.2646 86.0264 50.9364 85.9033C50.6083 85.7744 50.3271 85.5986 50.0927 85.376C49.8583 85.1533 49.6767 84.8955 49.5478 84.6025C49.413 84.3096 49.3456 83.9961 49.3456 83.6621C49.3456 83.2754 49.4247 82.9238 49.5829 82.6074C49.7411 82.291 50.0107 82.0156 50.3915 81.7812C50.7782 81.5469 51.3027 81.3652 51.9648 81.2363C52.6327 81.1074 53.4706 81.0459 54.4784 81.0518V80.6035C54.4784 80.1934 54.3202 79.8359 54.0038 79.5312C53.6874 79.2266 53.2743 79.0742 52.7646 79.0742C52.2607 79.0742 51.8886 79.1768 51.6484 79.3818C51.4081 79.5928 51.2411 79.8799 51.1474 80.2432H49.706C49.7529 79.9092 49.8554 79.5928 50.0136 79.2939C50.1718 79.001 50.3798 78.7432 50.6376 78.5205C50.8954 78.2979 51.2001 78.125 51.5517 78.002C51.9032 77.873 52.3075 77.8086 52.7646 77.8086ZM52.0439 84.8311C52.4013 84.8311 52.7323 84.7725 53.037 84.6553C53.3359 84.5439 53.5907 84.3975 53.8017 84.2158C54.0126 84.0342 54.1767 83.835 54.2939 83.6182C54.4111 83.3955 54.4726 83.1699 54.4784 82.9414V82.3086C53.664 82.3086 53.0107 82.3408 52.5185 82.4053C52.0263 82.4697 51.6454 82.5664 51.3759 82.6953C51.1064 82.8242 50.9247 82.9736 50.831 83.1436C50.7431 83.3193 50.6991 83.5215 50.6991 83.75C50.6991 84.0254 50.8222 84.2744 51.0683 84.4971C51.3085 84.7197 51.6337 84.8311 52.0439 84.8311ZM63.4693 81.9482C63.4693 82.3818 63.5396 82.7744 63.6802 83.126C63.8209 83.4775 64.0025 83.7822 64.2252 84.04C64.4537 84.292 64.7203 84.4854 65.025 84.6201C65.3296 84.7607 65.6519 84.8311 65.9918 84.8311C66.3257 84.8311 66.648 84.7607 66.9586 84.6201C67.2632 84.4795 67.5298 84.2861 67.7584 84.04C67.9869 83.7881 68.1685 83.4834 68.3033 83.126C68.4439 82.7744 68.5142 82.3818 68.5142 81.9482C68.5142 81.5146 68.4439 81.1221 68.3033 80.7705C68.1627 80.4189 67.981 80.1172 67.7584 79.8652C67.5298 79.6133 67.2632 79.417 66.9586 79.2764C66.6539 79.1357 66.3316 79.0684 65.9918 79.0742C65.6578 79.0742 65.3355 79.1416 65.025 79.2764C64.7203 79.417 64.4537 79.6133 64.2252 79.8652C63.9966 80.1172 63.815 80.4189 63.6802 80.7705C63.5396 81.1221 63.4693 81.5146 63.4693 81.9482ZM63.6539 78.8018C63.8238 78.6201 64.0259 78.459 64.2603 78.3184C64.4654 78.1836 64.7173 78.0664 65.0162 77.9668C65.315 77.8672 65.6695 77.8145 66.0796 77.8086C66.5953 77.8086 67.0845 77.9111 67.5474 78.1162C68.0103 78.3213 68.4117 78.6055 68.7515 78.9688C69.0914 79.332 69.3609 79.7686 69.5601 80.2783C69.7593 80.7822 69.8589 81.3389 69.8589 81.9482C69.8589 82.5576 69.7593 83.1172 69.5601 83.627C69.3609 84.1309 69.0914 84.5645 68.7515 84.9277C68.4117 85.291 68.0103 85.5752 67.5474 85.7803C67.0845 85.9854 66.5953 86.0879 66.0796 86.0879C65.6695 86.0879 65.315 86.0322 65.0162 85.9209C64.7173 85.8096 64.4654 85.6865 64.2603 85.5518C64.0201 85.3936 63.8179 85.2119 63.6539 85.0068V88.8828H62.3004V77.8965H63.2935L63.6539 78.8018ZM80.3837 77.8965V86H79.0302V77.8965H80.3837ZM74.9872 80.7793C75.8485 80.7793 76.5282 81.0225 77.0263 81.5088C77.5243 81.9951 77.7733 82.6221 77.7733 83.3896C77.7733 84.1572 77.5243 84.7842 77.0263 85.2705C76.5282 85.7568 75.8485 86 74.9872 86H71.8319V77.8965H73.1854V80.7793H74.9872ZM74.9872 84.7432C75.3973 84.7432 75.7372 84.6084 76.0067 84.3389C76.2821 84.0635 76.4198 83.7471 76.4198 83.3896C76.4198 83.0322 76.2821 82.7188 76.0067 82.4492C75.7313 82.1738 75.3915 82.0361 74.9872 82.0361H73.1854V84.7432H74.9872ZM89.7482 77.8965V86H88.4035V82.4932H84.2639V86H82.9104V77.8965H84.2639V81.2275H88.4035V77.8965H89.7482ZM93.6197 86H92.2661V77.8965H93.6197V86ZM97.0386 86L93.6197 81.7725L96.6782 77.8965H98.2075L95.1489 81.6758L98.6558 86H97.0386ZM106.315 83.8379C106.181 84.125 106.011 84.4062 105.806 84.6816C105.6 84.957 105.36 85.1973 105.085 85.4023C104.809 85.6074 104.499 85.7744 104.153 85.9033C103.807 86.0322 103.418 86.0938 102.984 86.0879C102.469 86.0879 101.979 85.9854 101.516 85.7803C101.054 85.5752 100.652 85.291 100.312 84.9277C99.9725 84.5645 99.7 84.1309 99.495 83.627C99.2957 83.123 99.1991 82.5635 99.2049 81.9482C99.2049 81.3389 99.3016 80.7822 99.495 80.2783C99.6942 79.7744 99.9637 79.3379 100.304 78.9688C100.638 78.6055 101.03 78.3213 101.481 78.1162C101.932 77.9111 102.404 77.8086 102.896 77.8086C103.389 77.8086 103.851 77.9053 104.285 78.0986C104.724 78.292 105.105 78.5645 105.428 78.916C105.75 79.2676 106.008 79.6953 106.201 80.1992C106.394 80.6973 106.491 81.251 106.491 81.8604C106.491 81.9775 106.485 82.0801 106.473 82.168C106.462 82.25 106.45 82.3203 106.438 82.3789C106.427 82.4492 106.415 82.5166 106.403 82.5811H100.646C100.67 82.8682 100.749 83.1494 100.884 83.4248C101.024 83.7002 101.2 83.9404 101.411 84.1455C101.622 84.3506 101.865 84.5146 102.14 84.6377C102.416 84.7666 102.697 84.8311 102.984 84.8311C103.236 84.8311 103.462 84.7959 103.661 84.7256C103.86 84.6553 104.039 84.5703 104.197 84.4707C104.361 84.377 104.496 84.2715 104.601 84.1543C104.707 84.043 104.798 83.9375 104.874 83.8379H106.315ZM102.896 79.0742C102.621 79.0742 102.357 79.1328 102.105 79.25C101.859 79.3672 101.637 79.5283 101.437 79.7334C101.232 79.9385 101.059 80.1846 100.919 80.4717C100.778 80.7588 100.687 81.0723 100.646 81.4121H105.05C104.956 80.6914 104.707 80.1201 104.303 79.6982C103.904 79.2822 103.435 79.0742 102.896 79.0742Z" fill="black"/>
<path d="M6.41211 235.074C6.10156 235.074 5.79688 235.142 5.49805 235.276C5.20508 235.417 4.94434 235.613 4.71582 235.865C4.4873 236.117 4.30859 236.419 4.17969 236.771C4.04492 237.122 3.97754 237.515 3.97754 237.948C3.97754 238.382 4.04492 238.774 4.17969 239.126C4.31445 239.478 4.49316 239.782 4.71582 240.04C4.94434 240.292 5.20508 240.485 5.49805 240.62C5.79102 240.761 6.0957 240.831 6.41211 240.831C6.67578 240.831 6.9248 240.781 7.15918 240.682C7.39355 240.588 7.60156 240.462 7.7832 240.304C7.9707 240.146 8.13184 239.967 8.2666 239.768C8.40137 239.562 8.50391 239.346 8.57422 239.117H9.91895C9.8252 239.527 9.67578 239.911 9.4707 240.269C9.26562 240.626 9.01074 240.942 8.70605 241.218C8.40137 241.487 8.05273 241.701 7.66016 241.859C7.26758 242.018 6.85156 242.094 6.41211 242.088C5.89648 242.088 5.40723 241.985 4.94434 241.78C4.48145 241.575 4.08008 241.291 3.74023 240.928C3.40039 240.564 3.12793 240.131 2.92285 239.627C2.72363 239.123 2.62695 238.563 2.63281 237.948C2.63281 237.339 2.72949 236.782 2.92285 236.278C3.12207 235.774 3.39453 235.338 3.74023 234.969C4.08008 234.605 4.48145 234.321 4.94434 234.116C5.40723 233.911 5.89648 233.809 6.41211 233.809C6.85742 233.809 7.27344 233.888 7.66016 234.046C8.05273 234.204 8.40137 234.415 8.70605 234.679C9.01074 234.948 9.26562 235.265 9.4707 235.628C9.67578 235.985 9.8252 236.369 9.91895 236.779H8.57422C8.50391 236.551 8.40137 236.334 8.2666 236.129C8.13184 235.924 7.9707 235.745 7.7832 235.593C7.5957 235.435 7.3877 235.309 7.15918 235.215C6.9248 235.121 6.67578 235.074 6.41211 235.074ZM12.4368 237.948C12.4368 238.382 12.5042 238.774 12.639 239.126C12.7738 239.478 12.9525 239.782 13.1751 240.04C13.4036 240.292 13.6644 240.485 13.9573 240.62C14.2503 240.761 14.555 240.831 14.8714 240.831C15.182 240.831 15.4837 240.761 15.7767 240.62C16.0696 240.479 16.3275 240.286 16.5501 240.04C16.7728 239.788 16.9544 239.483 17.095 239.126C17.2357 238.774 17.303 238.382 17.2972 237.948C17.2972 237.515 17.2298 237.122 17.095 236.771C16.9544 236.419 16.7728 236.117 16.5501 235.865C16.3275 235.613 16.0696 235.417 15.7767 235.276C15.4837 235.136 15.182 235.068 14.8714 235.074C14.5609 235.074 14.2562 235.142 13.9573 235.276C13.6644 235.417 13.4036 235.613 13.1751 235.865C12.9466 236.117 12.7679 236.419 12.639 236.771C12.5042 237.122 12.4368 237.515 12.4368 237.948ZM18.6507 237.948C18.6507 238.558 18.5511 239.117 18.3519 239.627C18.1527 240.131 17.8831 240.564 17.5433 240.928C17.2034 241.291 16.8021 241.575 16.3392 241.78C15.8763 241.985 15.387 242.088 14.8714 242.088C14.3558 242.088 13.8665 241.985 13.4036 241.78C12.9407 241.575 12.5394 241.291 12.1995 240.928C11.8597 240.564 11.5872 240.131 11.3821 239.627C11.1829 239.123 11.0863 238.563 11.0921 237.948C11.0921 237.339 11.1888 236.782 11.3821 236.278C11.5814 235.774 11.8538 235.338 12.1995 234.969C12.5394 234.605 12.9407 234.321 13.4036 234.116C13.8665 233.911 14.3558 233.809 14.8714 233.809C15.387 233.809 15.8763 233.911 16.3392 234.116C16.8021 234.321 17.2034 234.605 17.5433 234.969C17.8831 235.332 18.1527 235.769 18.3519 236.278C18.5511 236.782 18.6507 237.339 18.6507 237.948ZM19.5602 233.896H25.9498V235.162H23.4274V242H22.0739V235.162H19.5602V233.896ZM28.7314 237.948C28.7314 238.382 28.8017 238.774 28.9423 239.126C29.083 239.478 29.2646 239.782 29.4873 240.04C29.7158 240.292 29.9824 240.485 30.2871 240.62C30.5918 240.761 30.914 240.831 31.2539 240.831C31.5879 240.831 31.9101 240.761 32.2207 240.62C32.5254 240.479 32.792 240.286 33.0205 240.04C33.249 239.788 33.4306 239.483 33.5654 239.126C33.706 238.774 33.7763 238.382 33.7763 237.948C33.7763 237.515 33.706 237.122 33.5654 236.771C33.4248 236.419 33.2431 236.117 33.0205 235.865C32.792 235.613 32.5254 235.417 32.2207 235.276C31.916 235.136 31.5937 235.068 31.2539 235.074C30.9199 235.074 30.5976 235.142 30.2871 235.276C29.9824 235.417 29.7158 235.613 29.4873 235.865C29.2588 236.117 29.0771 236.419 28.9423 236.771C28.8017 237.122 28.7314 237.515 28.7314 237.948ZM28.916 234.802C29.0859 234.62 29.288 234.459 29.5224 234.318C29.7275 234.184 29.9795 234.066 30.2783 233.967C30.5771 233.867 30.9316 233.814 31.3418 233.809C31.8574 233.809 32.3466 233.911 32.8095 234.116C33.2724 234.321 33.6738 234.605 34.0136 234.969C34.3535 235.332 34.623 235.769 34.8222 236.278C35.0214 236.782 35.1211 237.339 35.1211 237.948C35.1211 238.558 35.0214 239.117 34.8222 239.627C34.623 240.131 34.3535 240.564 34.0136 240.928C33.6738 241.291 33.2724 241.575 32.8095 241.78C32.3466 241.985 31.8574 242.088 31.3418 242.088C30.9316 242.088 30.5771 242.032 30.2783 241.921C29.9795 241.81 29.7275 241.687 29.5224 241.552C29.2822 241.394 29.08 241.212 28.916 241.007V244.883H27.5625V233.896H28.5556L28.916 234.802ZM36.1009 233.896H37.5423L39.9768 240.11L42.4026 233.896H43.844L40.3372 242.721C40.0149 243.535 39.6751 244.115 39.3177 244.461C38.9661 244.801 38.5266 244.971 37.9993 244.971C37.929 244.971 37.8616 244.968 37.7971 244.962C37.7386 244.956 37.68 244.947 37.6214 244.936C37.5628 244.924 37.5071 244.906 37.4544 244.883V243.802C37.8645 243.802 38.1721 243.711 38.3772 243.529C38.5823 243.348 38.7552 243.078 38.8958 242.721L39.2561 241.824L36.1009 233.896ZM52.6725 240.743V243.978H51.4068V242H45.4654V243.978H44.2086V240.743H44.6568C44.8385 240.608 44.9996 240.45 45.1402 240.269C45.275 240.11 45.398 239.926 45.5094 239.715C45.6266 239.498 45.7027 239.24 45.7379 238.941L46.2828 233.896H51.5914V240.743H52.6725ZM47.0914 238.941C47.068 239.24 47.0094 239.498 46.9156 239.715C46.8277 239.932 46.734 240.116 46.6344 240.269C46.5172 240.45 46.4 240.608 46.2828 240.743H50.2379V235.162H47.4869L47.0914 238.941ZM61.2197 233.896V242H59.8749V238.493H55.7353V242H54.3818V233.896H55.7353V237.228H59.8749V233.896H61.2197ZM70.5754 233.896V242H69.2307V235.971L65.0911 242H63.7375V233.896H65.0911V239.926L69.2307 233.896H70.5754ZM74.4468 242H73.0933V233.896H74.4468V242ZM77.8658 242L74.4468 237.772L77.5054 233.896H79.0347L75.9761 237.676L79.483 242H77.8658ZM81.3768 237.948C81.3768 238.382 81.4442 238.774 81.579 239.126C81.7138 239.478 81.8925 239.782 82.1151 240.04C82.3436 240.292 82.6044 240.485 82.8973 240.62C83.1903 240.761 83.495 240.831 83.8114 240.831C84.122 240.831 84.4237 240.761 84.7167 240.62C85.0097 240.479 85.2675 240.286 85.4901 240.04C85.7128 239.788 85.8944 239.483 86.035 239.126C86.1757 238.774 86.243 238.382 86.2372 237.948C86.2372 237.515 86.1698 237.122 86.035 236.771C85.8944 236.419 85.7128 236.117 85.4901 235.865C85.2675 235.613 85.0097 235.417 84.7167 235.276C84.4237 235.136 84.122 235.068 83.8114 235.074C83.5009 235.074 83.1962 235.142 82.8973 235.276C82.6044 235.417 82.3436 235.613 82.1151 235.865C81.8866 236.117 81.7079 236.419 81.579 236.771C81.4442 237.122 81.3768 237.515 81.3768 237.948ZM87.5907 237.948C87.5907 238.558 87.4911 239.117 87.2919 239.627C87.0927 240.131 86.8231 240.564 86.4833 240.928C86.1434 241.291 85.7421 241.575 85.2792 241.78C84.8163 241.985 84.327 242.088 83.8114 242.088C83.2958 242.088 82.8065 241.985 82.3436 241.78C81.8807 241.575 81.4794 241.291 81.1395 240.928C80.7997 240.564 80.5272 240.131 80.3222 239.627C80.1229 239.123 80.0263 238.563 80.0321 237.948C80.0321 237.339 80.1288 236.782 80.3222 236.278C80.5214 235.774 80.7938 235.338 81.1395 234.969C81.4794 234.605 81.8807 234.321 82.3436 234.116C82.8065 233.911 83.2958 233.809 83.8114 233.809C84.327 233.809 84.8163 233.911 85.2792 234.116C85.7421 234.321 86.1434 234.605 86.4833 234.969C86.8231 235.332 87.0927 235.769 87.2919 236.278C87.4911 236.782 87.5907 237.339 87.5907 237.948ZM94.5207 237.772C94.7492 237.878 94.9602 238.016 95.1535 238.186C95.3117 238.332 95.4553 238.525 95.5842 238.766C95.7189 239 95.7863 239.299 95.7863 239.662C95.7863 240.348 95.5666 240.91 95.1272 241.35C94.6877 241.783 94.1252 242 93.4397 242H89.5725V233.896H93.176C93.51 233.896 93.8205 233.955 94.1076 234.072C94.3947 234.184 94.6408 234.342 94.8459 234.547C95.051 234.752 95.2121 234.992 95.3293 235.268C95.4523 235.543 95.5139 235.836 95.5139 236.146C95.5139 236.445 95.4611 236.694 95.3557 236.894C95.2561 237.093 95.1418 237.26 95.0129 237.395C94.8664 237.541 94.7023 237.667 94.5207 237.772ZM90.926 235.162V237.228H92.9914C93.3488 237.228 93.633 237.134 93.8439 236.946C94.0549 236.753 94.1604 236.519 94.1604 236.243C94.1604 235.933 94.0549 235.675 93.8439 235.47C93.6389 235.265 93.3547 235.162 92.9914 235.162H90.926ZM93.2639 240.743C93.5744 240.743 93.8469 240.626 94.0813 240.392C94.3156 240.157 94.4328 239.885 94.4328 239.574C94.4328 239.439 94.4035 239.308 94.3449 239.179C94.2863 239.044 94.2014 238.927 94.09 238.827C93.9846 238.722 93.8586 238.64 93.7121 238.581C93.5715 238.522 93.4221 238.493 93.2639 238.493H90.926V240.743H93.2639ZM106.851 237.772C107.08 237.878 107.291 238.016 107.484 238.186C107.642 238.332 107.786 238.525 107.915 238.766C108.05 239 108.117 239.299 108.117 239.662C108.117 240.348 107.897 240.91 107.458 241.35C107.018 241.783 106.456 242 105.77 242H101.903V233.896H105.507C105.841 233.896 106.151 233.955 106.438 234.072C106.725 234.184 106.972 234.342 107.177 234.547C107.382 234.752 107.543 234.992 107.66 235.268C107.783 235.543 107.845 235.836 107.845 236.146C107.845 236.445 107.792 236.694 107.686 236.894C107.587 237.093 107.473 237.26 107.344 237.395C107.197 237.541 107.033 237.667 106.851 237.772ZM103.257 235.162V237.228H105.322C105.68 237.228 105.964 237.134 106.175 236.946C106.386 236.753 106.491 236.519 106.491 236.243C106.491 235.933 106.386 235.675 106.175 235.47C105.97 235.265 105.685 235.162 105.322 235.162H103.257ZM105.595 240.743C105.905 240.743 106.178 240.626 106.412 240.392C106.646 240.157 106.764 239.885 106.764 239.574C106.764 239.439 106.734 239.308 106.676 239.179C106.617 239.044 106.532 238.927 106.421 238.827C106.315 238.722 106.189 238.64 106.043 238.581C105.902 238.522 105.753 238.493 105.595 238.493H103.257V240.743H105.595ZM124.227 233.896V242H114.234V233.896H115.587V240.743H118.558V233.896H119.903V240.743H122.874V233.896H124.227ZM125.84 233.896H132.229V235.162H129.707V242H128.353V235.162H125.84V233.896ZM136.813 233.809C137.258 233.809 137.671 233.885 138.052 234.037C138.433 234.189 138.755 234.389 139.019 234.635C139.288 234.887 139.499 235.183 139.651 235.522C139.804 235.856 139.877 236.217 139.871 236.604V242H138.887L138.526 241.104C138.345 241.297 138.14 241.464 137.911 241.604C137.706 241.739 137.454 241.854 137.155 241.947C136.857 242.041 136.502 242.088 136.092 242.088C135.682 242.088 135.313 242.026 134.984 241.903C134.656 241.774 134.375 241.599 134.141 241.376C133.906 241.153 133.725 240.896 133.596 240.603C133.461 240.31 133.394 239.996 133.394 239.662C133.394 239.275 133.473 238.924 133.631 238.607C133.789 238.291 134.059 238.016 134.44 237.781C134.826 237.547 135.351 237.365 136.013 237.236C136.681 237.107 137.519 237.046 138.526 237.052V236.604C138.526 236.193 138.368 235.836 138.052 235.531C137.735 235.227 137.322 235.074 136.813 235.074C136.309 235.074 135.937 235.177 135.696 235.382C135.456 235.593 135.289 235.88 135.195 236.243H133.754C133.801 235.909 133.903 235.593 134.062 235.294C134.22 235.001 134.428 234.743 134.686 234.521C134.943 234.298 135.248 234.125 135.6 234.002C135.951 233.873 136.356 233.809 136.813 233.809ZM136.092 240.831C136.449 240.831 136.78 240.772 137.085 240.655C137.384 240.544 137.639 240.397 137.85 240.216C138.061 240.034 138.225 239.835 138.342 239.618C138.459 239.396 138.521 239.17 138.526 238.941V238.309C137.712 238.309 137.059 238.341 136.567 238.405C136.074 238.47 135.693 238.566 135.424 238.695C135.154 238.824 134.973 238.974 134.879 239.144C134.791 239.319 134.747 239.521 134.747 239.75C134.747 240.025 134.87 240.274 135.116 240.497C135.357 240.72 135.682 240.831 136.092 240.831ZM141.229 233.896H147.619V235.162H145.096V242H143.743V235.162H141.229V233.896ZM155.63 239.838C155.495 240.125 155.325 240.406 155.12 240.682C154.915 240.957 154.675 241.197 154.399 241.402C154.124 241.607 153.813 241.774 153.468 241.903C153.122 242.032 152.732 242.094 152.299 242.088C151.783 242.088 151.294 241.985 150.831 241.78C150.368 241.575 149.967 241.291 149.627 240.928C149.287 240.564 149.014 240.131 148.809 239.627C148.61 239.123 148.513 238.563 148.519 237.948C148.519 237.339 148.616 236.782 148.809 236.278C149.009 235.774 149.278 235.338 149.618 234.969C149.952 234.605 150.344 234.321 150.796 234.116C151.247 233.911 151.719 233.809 152.211 233.809C152.703 233.809 153.166 233.905 153.599 234.099C154.039 234.292 154.42 234.564 154.742 234.916C155.064 235.268 155.322 235.695 155.515 236.199C155.709 236.697 155.805 237.251 155.805 237.86C155.805 237.978 155.8 238.08 155.788 238.168C155.776 238.25 155.764 238.32 155.753 238.379C155.741 238.449 155.729 238.517 155.718 238.581H149.961C149.984 238.868 150.063 239.149 150.198 239.425C150.339 239.7 150.514 239.94 150.725 240.146C150.936 240.351 151.179 240.515 151.455 240.638C151.73 240.767 152.011 240.831 152.299 240.831C152.551 240.831 152.776 240.796 152.975 240.726C153.175 240.655 153.353 240.57 153.511 240.471C153.676 240.377 153.81 240.271 153.916 240.154C154.021 240.043 154.112 239.938 154.188 239.838H155.63ZM152.211 235.074C151.935 235.074 151.672 235.133 151.42 235.25C151.174 235.367 150.951 235.528 150.752 235.733C150.547 235.938 150.374 236.185 150.233 236.472C150.093 236.759 150.002 237.072 149.961 237.412H154.364C154.27 236.691 154.021 236.12 153.617 235.698C153.219 235.282 152.75 235.074 152.211 235.074Z" fill="black"/>
<path d="M17.5586 166.648V212H11.793V174.559L5.32422 178.883L2.79297 174.559L13.9727 166.648H17.5586ZM32.3059 189.324C32.3059 192.395 32.6341 195.055 33.2903 197.305C33.97 199.555 34.8606 201.43 35.9622 202.93C37.0637 204.406 38.3177 205.508 39.7239 206.234C41.1536 206.961 42.6302 207.324 44.1536 207.324C45.7005 207.324 47.177 206.961 48.5833 206.234C50.013 205.508 51.2786 204.406 52.3802 202.93C53.4817 201.43 54.3606 199.555 55.0169 197.305C55.6966 195.055 56.0364 192.395 56.0364 189.324C56.0364 186.254 55.6966 183.594 55.0169 181.344C54.3606 179.07 53.4817 177.195 52.3802 175.719C51.2786 174.219 50.013 173.117 48.5833 172.414C47.177 171.688 45.7005 171.324 44.1536 171.324C42.6067 171.324 41.1302 171.688 39.7239 172.414C38.3177 173.117 37.0637 174.219 35.9622 175.719C34.8606 177.195 33.97 179.07 33.2903 181.344C32.6341 183.594 32.3059 186.254 32.3059 189.324ZM61.802 189.324C61.802 193.027 61.3216 196.309 60.3606 199.168C59.3997 202.004 58.0989 204.406 56.4583 206.375C54.8411 208.344 52.9778 209.832 50.8684 210.84C48.7591 211.848 46.5208 212.352 44.1536 212.352C41.8098 212.352 39.5716 211.848 37.4387 210.84C35.3059 209.832 33.4309 208.344 31.8137 206.375C30.22 204.406 28.9427 202.004 27.9817 199.168C27.0208 196.309 26.5403 193.027 26.5403 189.324C26.5403 185.621 27.0208 182.34 27.9817 179.48C28.9427 176.621 30.22 174.219 31.8137 172.273C33.4309 170.305 35.3059 168.816 37.4387 167.809C39.5716 166.801 41.8098 166.297 44.1536 166.297C46.4973 166.297 48.7239 166.801 50.8333 167.809C52.9661 168.816 54.8411 170.305 56.4583 172.273C58.0989 174.219 59.3997 176.621 60.3606 179.48C61.3216 182.34 61.802 185.621 61.802 189.324Z" fill="black"/>
</svg>
