<svg width="62" height="11" viewBox="0 0 62 11" fill="none" xmlns="http://www.w3.org/2000/svg">
<path d="M9.27588 0.551758V10H7.84766V4.14795L5.15234 10H4.25146L1.54883 4.14795V10H0.12793V0.551758H1.32178L4.69824 7.82471L8.07471 0.551758H9.27588ZM12.3979 10H10.8965L14.5 0.551758H15.6938L19.2974 10H17.7959L16.9683 7.82471H13.2183L12.3979 10ZM16.4482 6.47705L15.0933 2.72705L13.7456 6.47705H16.4482ZM28.1177 0.551758V10H26.9165L22.3389 3.24707V10H20.918V0.551758H22.1118L26.6895 7.29736V0.551758H28.1177ZM37.2383 8.65234V10H30.8662V0.551758H37.0918V1.89941H32.2871V4.44824H36.7109V5.80322H32.2871V8.65234H37.2383ZM42.4624 8.65234C42.853 8.65234 43.2314 8.56689 43.5977 8.396C43.9688 8.2251 44.2959 7.99072 44.5791 7.69287C44.8672 7.39014 45.0991 7.03369 45.2749 6.62354C45.4507 6.21338 45.5386 5.76416 45.5386 5.27588C45.5386 4.7876 45.4507 4.33838 45.2749 3.92822C45.0991 3.51807 44.8672 3.16406 44.5791 2.86621C44.2959 2.56348 43.9688 2.32666 43.5977 2.15576C43.2314 1.98486 42.853 1.89941 42.4624 1.89941H41.0342V8.65234H42.4624ZM39.6133 10V0.551758H42.4624C43.063 0.551758 43.6343 0.673828 44.1763 0.917969C44.7231 1.16211 45.2017 1.49902 45.6118 1.92871C46.022 2.3584 46.3491 2.85889 46.5933 3.43018C46.8374 4.00146 46.9595 4.6167 46.9595 5.27588C46.9595 5.93506 46.8374 6.55029 46.5933 7.12158C46.3491 7.69287 46.022 8.19336 45.6118 8.62305C45.2017 9.05273 44.7231 9.38965 44.1763 9.63379C43.6343 9.87793 43.063 10 42.4624 10H39.6133ZM50.5283 10H49.1074V0.551758H50.5283V10ZM60.2568 5.27588C60.2568 4.76807 60.1689 4.29932 59.9932 3.86963C59.8174 3.43506 59.5879 3.06152 59.3047 2.74902C59.0215 2.43164 58.6943 2.1875 58.3232 2.0166C57.9521 1.84082 57.5713 1.75293 57.1807 1.75293C56.79 1.75293 56.4092 1.84082 56.0381 2.0166C55.6719 2.1875 55.3447 2.43164 55.0566 2.74902C54.7734 3.06152 54.5439 3.43262 54.3682 3.8623C54.1924 4.29199 54.1045 4.76318 54.1045 5.27588C54.1045 5.78369 54.1924 6.25244 54.3682 6.68213C54.5439 7.11182 54.7734 7.48535 55.0566 7.80273C55.3447 8.11523 55.6719 8.35938 56.0381 8.53516C56.4092 8.71094 56.79 8.79883 57.1807 8.79883C57.5713 8.79883 57.9521 8.71094 58.3232 8.53516C58.6943 8.35938 59.0215 8.11523 59.3047 7.80273C59.5879 7.48535 59.8174 7.11182 59.9932 6.68213C60.1689 6.25244 60.2568 5.78369 60.2568 5.27588ZM61.6777 5.27588C61.6777 5.95459 61.5557 6.58447 61.3115 7.16553C61.0674 7.74658 60.7402 8.25439 60.3301 8.68896C59.9199 9.12354 59.4414 9.46289 58.8945 9.70703C58.3525 9.95117 57.7812 10.0732 57.1807 10.0732C56.5801 10.0732 56.0063 9.95117 55.4595 9.70703C54.9175 9.46289 54.4414 9.12354 54.0312 8.68896C53.6211 8.25439 53.2939 7.74658 53.0498 7.16553C52.8057 6.58447 52.6836 5.95459 52.6836 5.27588C52.6836 4.60693 52.8057 3.97949 53.0498 3.39355C53.2939 2.80762 53.6211 2.29736 54.0312 1.86279C54.4414 1.42822 54.9175 1.08887 55.4595 0.844727C56.0063 0.600586 56.5801 0.478516 57.1807 0.478516C57.7812 0.478516 58.3525 0.600586 58.8945 0.844727C59.4414 1.08887 59.9199 1.42822 60.3301 1.86279C60.7402 2.29736 61.0674 2.80762 61.3115 3.39355C61.5557 3.97949 61.6777 4.60693 61.6777 5.27588Z" fill="white" fill-opacity="0.9"/>
</svg>
