<svg width="1240" height="200" viewBox="0 0 1240 200" fill="none" xmlns="http://www.w3.org/2000/svg">
<g filter="url(#filter0_b_281_5)">
<circle cx="120" cy="100" r="100" fill="white" fill-opacity="0.1"/>
</g>
<path d="M124.35 89.0916C127.316 89.0916 130.282 89.9099 133.248 91.5464C136.214 93.1829 138.874 95.3819 141.226 98.1435C143.579 100.905 145.471 104.178 146.903 107.962C148.335 111.645 149.051 115.582 149.051 119.776C149.051 124.072 148.13 128.061 146.289 131.743C144.55 135.323 142.3 138.493 139.539 141.255C136.777 143.914 133.657 146.011 130.18 147.545C126.702 149.079 123.276 149.898 119.901 150C114.684 149.898 110.184 148.875 106.4 146.932C102.615 144.886 99.4444 142.175 96.8874 138.8C94.4327 135.425 92.5916 131.487 91.3642 126.987C90.1369 122.384 89.5232 117.526 89.5232 112.412H89.6766C89.6766 118.651 90.4948 124.123 92.1313 128.828C93.8701 133.43 96.0692 137.266 98.7285 140.334C101.388 143.403 104.405 145.704 107.78 147.238C111.156 148.773 114.582 149.54 118.06 149.54C121.23 149.54 124.299 148.926 127.265 147.699C130.231 146.369 132.839 144.477 135.089 142.022C137.442 139.567 139.283 136.499 140.613 132.817C142.045 129.135 142.76 124.839 142.76 119.929C142.76 115.736 142.3 111.798 141.38 108.116C140.561 104.434 139.181 101.212 137.237 98.4503C135.396 95.5865 132.941 93.3363 129.873 91.6998C126.907 90.0633 123.225 89.245 118.827 89.245H112.843C111.718 89.245 110.849 89.3473 110.235 89.5519C109.621 89.7564 109.161 90.5747 108.854 92.0066C108.547 93.3363 108.343 95.433 108.241 98.2969C108.138 101.161 108.087 105.303 108.087 110.724L107.934 110.877V68.84L108.087 68.9934C108.087 74.0052 108.138 77.8918 108.241 80.6534C108.343 83.3127 108.547 85.2561 108.854 86.4835C109.161 87.7108 109.621 88.4268 110.235 88.6314C110.849 88.8359 111.718 88.9382 112.843 88.9382H120.514C126.651 88.9382 131.305 86.9949 134.476 83.1082C137.646 79.1192 138.976 73.0846 138.465 65.0044C138.362 61.8337 137.851 58.8676 136.93 56.106C136.01 53.2421 134.68 50.7874 132.941 48.7417C131.203 46.5938 129.004 44.9062 126.344 43.6788C123.685 42.3492 120.463 41.6843 116.679 41.6843C112.894 41.6843 109.673 42.1958 107.013 43.2186C104.354 44.2414 102.104 45.6733 100.263 47.5144C98.5239 49.2531 97.1431 51.3499 96.1203 53.8047C95.0975 56.1571 94.3304 58.663 93.819 61.3223L93.6656 61.4757C94.2792 57.4868 95.4043 54.1115 97.0408 51.3499C98.6773 48.5883 100.723 46.4404 103.178 44.9062C105.735 43.2697 108.599 42.1958 111.769 41.6843C114.94 41.1729 118.315 41.1218 121.895 41.5309C124.964 41.8378 127.879 42.656 130.64 43.9857C133.402 45.213 135.754 46.8495 137.698 48.8952C139.743 50.9408 141.329 53.3444 142.454 56.106C143.681 58.7653 144.295 61.7314 144.295 65.0044C144.295 68.2774 143.834 71.397 142.914 74.3631C141.993 77.227 140.664 79.784 138.925 82.0342C137.186 84.1821 135.089 85.9209 132.635 87.2506C130.18 88.4779 127.418 89.0916 124.35 89.0916Z" fill="white" fill-opacity="0.1"/>
<path d="M133.248 91.5464L132.183 93.4779L133.248 91.5464ZM141.226 98.1435L142.906 96.713L141.226 98.1435ZM146.903 107.962L144.84 108.743L144.843 108.753L144.847 108.762L146.903 107.962ZM146.289 131.743L144.316 130.756L144.31 130.768L144.305 130.779L146.289 131.743ZM139.539 141.255L141.069 142.844L141.084 142.83L141.099 142.815L139.539 141.255ZM130.18 147.545L131.07 149.564H131.07L130.18 147.545ZM119.901 150L119.857 152.206L119.912 152.207L119.967 152.205L119.901 150ZM106.4 146.932L105.351 148.872L105.371 148.883L105.392 148.894L106.4 146.932ZM96.8874 138.8L95.1033 140.098L95.116 140.115L95.129 140.132L96.8874 138.8ZM91.3642 126.987L89.2327 127.555L89.236 127.567L91.3642 126.987ZM89.5232 112.412V110.206H87.3172V112.412H89.5232ZM89.6766 112.412H91.8826V110.206H89.6766V112.412ZM92.1313 128.828L90.0478 129.553L90.0574 129.58L90.0677 129.607L92.1313 128.828ZM98.7285 140.334L97.0614 141.779L98.7285 140.334ZM107.78 147.238L106.867 149.247L107.78 147.238ZM127.265 147.699L128.108 149.737L128.138 149.725L128.167 149.712L127.265 147.699ZM135.089 142.022L133.497 140.496L133.48 140.513L133.463 140.531L135.089 142.022ZM140.613 132.817L138.557 132.017L138.547 132.042L138.538 132.068L140.613 132.817ZM141.38 108.116L139.226 108.594L139.232 108.623L139.24 108.651L141.38 108.116ZM137.237 98.4503L135.382 99.6433L135.407 99.6821L135.433 99.7199L137.237 98.4503ZM129.873 91.6998L128.807 93.6313L128.821 93.6389L128.835 93.6463L129.873 91.6998ZM108.854 92.0066L111.004 92.5027L111.008 92.4858L111.011 92.4689L108.854 92.0066ZM108.087 110.724L109.647 112.284L110.293 111.638V110.724H108.087ZM107.934 110.877H105.728V116.203L109.494 112.437L107.934 110.877ZM107.934 68.84L109.494 67.2801L105.728 63.514V68.84H107.934ZM108.087 68.9934H110.293V68.0797L109.647 67.4335L108.087 68.9934ZM108.241 80.6534L106.036 80.7351L106.036 80.7382L108.241 80.6534ZM108.854 86.4835L106.714 87.0185L108.854 86.4835ZM110.235 88.6314L109.537 90.7242H109.538L110.235 88.6314ZM134.476 83.1082L136.185 84.5027L136.194 84.4918L136.203 84.4809L134.476 83.1082ZM138.465 65.0044L136.26 65.0756L136.261 65.1097L136.263 65.1438L138.465 65.0044ZM136.93 56.106L134.83 56.781L134.834 56.7923L134.838 56.8036L136.93 56.106ZM132.941 48.7417L131.227 50.1298L131.244 50.1503L131.261 50.1705L132.941 48.7417ZM126.344 43.6788L125.358 45.6519L125.389 45.6674L125.42 45.6818L126.344 43.6788ZM107.013 43.2186L106.221 41.1596L107.013 43.2186ZM100.263 47.5144L98.7028 45.9545H98.7028L100.263 47.5144ZM96.1203 53.8047L98.1434 54.6842L98.1501 54.6687L98.1566 54.6531L96.1203 53.8047ZM93.819 61.3223L95.3789 62.8822L95.8575 62.4036L95.9853 61.7389L93.819 61.3223ZM93.6656 61.4757L91.4852 61.1403L90.4606 67.8004L95.2254 63.0356L93.6656 61.4757ZM97.0408 51.3499L98.9386 52.4745H98.9387L97.0408 51.3499ZM103.178 44.9062L104.347 46.7769L104.357 46.7706L104.367 46.7643L103.178 44.9062ZM121.895 41.5309L121.645 43.7227L121.66 43.7244L121.676 43.726L121.895 41.5309ZM130.64 43.9857L129.683 45.9733L129.713 45.9879L129.744 46.0015L130.64 43.9857ZM137.698 48.8952L136.098 50.4146L136.118 50.4351L136.138 50.455L137.698 48.8952ZM142.454 56.106L140.411 56.9383L140.43 56.9848L140.451 57.0304L142.454 56.106ZM142.914 74.3631L145.014 75.0382L145.017 75.0276L145.021 75.017L142.914 74.3631ZM138.925 82.0342L140.64 83.4222L140.655 83.4028L140.671 83.3831L138.925 82.0342ZM132.635 87.2506L133.621 89.2237L133.654 89.2075L133.685 89.1903L132.635 87.2506ZM124.35 91.2976C126.893 91.2976 129.496 91.9956 132.183 93.4779L134.314 89.6148C131.068 87.8242 127.739 86.8856 124.35 86.8856V91.2976ZM132.183 93.4779C134.9 94.9769 137.355 97.0006 139.547 99.574L142.906 96.713C140.393 93.7632 137.529 91.3888 134.314 89.6148L132.183 93.4779ZM139.547 99.574C141.717 102.122 143.487 105.169 144.84 108.743L148.966 107.182C147.455 103.187 145.44 99.6884 142.906 96.713L139.547 99.574ZM144.847 108.762C146.174 112.174 146.845 115.839 146.845 119.776H151.257C151.257 115.326 150.496 111.115 148.959 107.163L144.847 108.762ZM146.845 119.776C146.845 123.745 145.997 127.394 144.316 130.756L148.262 132.729C150.263 128.728 151.257 124.399 151.257 119.776H146.845ZM144.305 130.779C142.671 134.142 140.563 137.11 137.979 139.695L141.099 142.815C144.037 139.876 146.429 136.503 148.273 132.707L144.305 130.779ZM138.008 139.666C135.432 142.147 132.528 144.098 129.289 145.527L131.07 149.564C134.787 147.924 138.122 145.681 141.069 142.844L138.008 139.666ZM129.289 145.527C126.039 146.961 122.892 147.702 119.834 147.795L119.967 152.205C123.66 152.093 127.365 151.198 131.07 149.564L129.289 145.527ZM119.944 147.794C114.989 147.697 110.833 146.728 107.407 144.969L105.392 148.894C109.535 151.022 114.38 152.098 119.857 152.206L119.944 147.794ZM107.449 144.991C103.937 143.093 101.009 140.588 98.6458 137.468L95.129 140.132C97.8794 143.763 101.293 146.679 105.351 148.872L107.449 144.991ZM98.6715 137.503C96.3914 134.368 94.6578 130.679 93.4925 126.406L89.236 127.567C90.5254 132.295 92.4739 136.482 95.1033 140.098L98.6715 137.503ZM93.4958 126.418C92.3213 122.014 91.7292 117.348 91.7292 112.412H87.3172C87.3172 117.704 87.9524 122.754 89.2327 127.555L93.4958 126.418ZM89.5232 114.618H89.6766V110.206H89.5232V114.618ZM87.4706 112.412C87.4706 118.838 88.3127 124.564 90.0478 129.553L94.2149 128.103C92.677 123.682 91.8826 118.464 91.8826 112.412H87.4706ZM90.0677 129.607C91.8795 134.403 94.1999 138.478 97.0614 141.779L100.396 138.89C97.9384 136.055 95.8607 132.457 94.195 128.048L90.0677 129.607ZM97.0614 141.779C99.9086 145.064 103.177 147.569 106.867 149.247L108.693 145.23C105.634 143.839 102.867 141.741 100.396 138.89L97.0614 141.779ZM106.867 149.247C110.51 150.902 114.247 151.746 118.06 151.746V147.334C114.917 147.334 111.801 146.643 108.693 145.23L106.867 149.247ZM118.06 151.746C121.523 151.746 124.878 151.074 128.108 149.737L126.421 145.66C123.719 146.778 120.937 147.334 118.06 147.334V151.746ZM128.167 149.712C131.415 148.256 134.267 146.184 136.716 143.513L133.463 140.531C131.411 142.77 129.048 144.482 126.363 145.686L128.167 149.712ZM136.682 143.548C139.278 140.84 141.269 137.494 142.687 133.566L138.538 132.068C137.297 135.503 135.606 138.295 133.497 140.496L136.682 143.548ZM142.669 133.616C144.22 129.626 144.966 125.048 144.966 119.929H140.554C140.554 124.629 139.869 128.644 138.557 132.017L142.669 133.616ZM144.966 119.929C144.966 115.574 144.488 111.455 143.52 107.581L139.24 108.651C140.112 112.141 140.554 115.898 140.554 119.929H144.966ZM143.533 107.637C142.659 103.704 141.171 100.207 139.041 97.1808L135.433 99.7199C137.191 102.217 138.464 105.163 139.226 108.594L143.533 107.637ZM139.093 97.2574C137.044 94.0697 134.305 91.5631 130.911 89.7533L128.835 93.6463C131.578 95.1095 133.749 97.1033 135.382 99.6433L139.093 97.2574ZM130.939 89.7682C127.563 87.9059 123.489 87.039 118.827 87.039V91.4511C122.96 91.4511 126.251 92.2207 128.807 93.6313L130.939 89.7682ZM118.827 87.039H112.843V91.4511H118.827V87.039ZM112.843 87.039C111.629 87.039 110.483 87.1439 109.537 87.4591L110.933 91.6447C111.214 91.5508 111.807 91.4511 112.843 91.4511V87.039ZM109.537 87.4591C108.518 87.7988 107.886 88.5635 107.507 89.2375C107.125 89.9167 106.874 90.7185 106.697 91.5444L111.011 92.4689C111.141 91.8629 111.274 91.5395 111.352 91.4005C111.433 91.2563 111.338 91.5095 110.933 91.6447L109.537 87.4591ZM106.705 91.5106C106.348 93.0578 106.139 95.3319 106.036 98.2182L110.445 98.3757C110.547 95.5342 110.747 93.6148 111.004 92.5027L106.705 91.5106ZM106.036 98.2182C105.932 101.122 105.881 105.296 105.881 110.724H110.293C110.293 105.311 110.344 101.2 110.445 98.3757L106.036 98.2182ZM106.527 109.164L106.374 109.318L109.494 112.437L109.647 112.284L106.527 109.164ZM110.14 110.877V68.84H105.728V110.877H110.14ZM106.374 70.3998L106.527 70.5532L109.647 67.4335L109.494 67.2801L106.374 70.3998ZM105.881 68.9934C105.881 74.0144 105.932 77.9328 106.036 80.7351L110.445 80.5718C110.344 77.8509 110.293 73.996 110.293 68.9934H105.881ZM106.036 80.7382C106.139 83.4213 106.349 85.5568 106.714 87.0185L110.994 85.9484C110.746 84.9554 110.546 83.2042 110.445 80.5686L106.036 80.7382ZM106.714 87.0185C107.039 88.3174 107.741 90.1254 109.537 90.7242L110.933 86.5386C111.236 86.6395 111.33 86.8173 111.285 86.748C111.263 86.7136 111.22 86.6362 111.165 86.4981C111.111 86.3612 111.052 86.1805 110.994 85.9484L106.714 87.0185ZM109.538 90.7242C110.483 91.0394 111.629 91.1442 112.843 91.1442V86.7322C111.807 86.7322 111.214 86.6325 110.933 86.5386L109.538 90.7242ZM112.843 91.1442H120.514V86.7322H112.843V91.1442ZM120.514 91.1442C127.151 91.1442 132.502 89.0171 136.185 84.5027L132.766 81.7137C130.108 84.9726 126.151 86.7322 120.514 86.7322V91.1442ZM136.203 84.4809C139.865 79.8733 141.193 73.1852 140.666 64.8651L136.263 65.1438C136.759 72.984 135.428 78.3651 132.749 81.7355L136.203 84.4809ZM140.67 64.9333C140.561 61.5685 140.017 58.3896 139.023 55.4084L134.838 56.8036C135.685 59.3456 136.164 62.099 136.26 65.0756L140.67 64.9333ZM139.031 55.4309C138.032 52.3239 136.57 49.605 134.622 47.313L131.261 50.1705C132.79 51.9698 133.988 54.1603 134.83 56.781L139.031 55.4309ZM134.656 47.3537C132.692 44.9273 130.216 43.0362 127.269 41.6759L125.42 45.6818C127.791 46.7761 129.714 48.2604 131.227 50.1298L134.656 47.3537ZM127.331 41.7057C124.293 40.1869 120.715 39.4783 116.679 39.4783V43.8904C120.211 43.8904 123.077 44.5114 125.358 45.6519L127.331 41.7057ZM116.679 39.4783C112.707 39.4783 109.201 40.0135 106.221 41.1596L107.805 45.2775C110.144 44.378 113.081 43.8904 116.679 43.8904V39.4783ZM106.221 41.1596C103.301 42.2827 100.782 43.8753 98.7028 45.9545L101.823 49.0742C103.426 47.4713 105.407 46.2001 107.805 45.2775L106.221 41.1596ZM98.7028 45.9545C96.7442 47.9131 95.2085 50.2573 94.084 52.9562L98.1566 54.6531C99.0777 52.4425 100.304 50.5932 101.823 49.0742L98.7028 45.9545ZM94.0972 52.9251C93.0063 55.4341 92.193 58.0961 91.6527 60.9057L95.9853 61.7389C96.4678 59.2299 97.1887 56.8801 98.1434 54.6842L94.0972 52.9251ZM92.2591 59.7624L92.1057 59.9158L95.2254 63.0356L95.3789 62.8822L92.2591 59.7624ZM95.8459 61.8112C96.4273 58.0319 97.4777 54.9399 98.9386 52.4745L95.143 50.2253C93.331 53.283 92.1311 56.9416 91.4852 61.1403L95.8459 61.8112ZM98.9387 52.4745C100.415 49.9827 102.223 48.1046 104.347 46.7769L102.009 43.0355C99.2233 44.7762 96.9394 47.1939 95.143 50.2253L98.9387 52.4745ZM104.367 46.7643C106.655 45.2999 109.231 44.3283 112.121 43.8622L111.418 39.5065C107.967 40.0632 104.815 41.2395 101.989 43.0481L104.367 46.7643ZM112.121 43.8622C115.07 43.3865 118.241 43.3337 121.645 43.7227L122.146 39.3392C118.39 38.9099 114.81 38.9593 111.418 39.5065L112.121 43.8622ZM121.676 43.726C124.49 44.0074 127.155 44.756 129.683 45.9733L131.597 41.998C128.602 40.5561 125.438 39.6681 122.115 39.3359L121.676 43.726ZM129.744 46.0015C132.26 47.1197 134.368 48.5936 136.098 50.4146L139.297 47.3758C137.14 45.1055 134.543 43.3064 131.536 41.9698L129.744 46.0015ZM136.138 50.455C137.969 52.2863 139.393 54.4404 140.411 56.9383L144.497 55.2737C143.264 52.2483 141.517 49.5952 139.257 47.3353L136.138 50.455ZM140.451 57.0304C141.529 59.3675 142.089 62.0129 142.089 65.0044H146.501C146.501 61.4499 145.833 58.1631 144.457 55.1815L140.451 57.0304ZM142.089 65.0044C142.089 68.0677 141.658 70.966 140.807 73.7093L145.021 75.017C146.01 71.828 146.501 68.4871 146.501 65.0044H142.089ZM140.814 73.6881C139.967 76.3227 138.753 78.649 137.179 80.6854L140.671 83.3831C142.575 80.9191 144.02 78.1313 145.014 75.0382L140.814 73.6881ZM137.21 80.6462C135.656 82.5659 133.786 84.1181 131.584 85.3108L133.685 89.1903C136.393 87.7237 138.716 85.7983 140.64 83.4222L137.21 80.6462ZM131.648 85.2775C129.534 86.3344 127.117 86.8856 124.35 86.8856V91.2976C127.72 91.2976 130.826 90.6215 133.621 89.2237L131.648 85.2775Z" fill="white" fill-opacity="0.1"/>
<line x1="4.37114e-08" y1="49.5" x2="1240" y2="49.5001" stroke="white"/>
<defs>
<filter id="filter0_b_281_5" x="10" y="-10" width="220" height="220" filterUnits="userSpaceOnUse" color-interpolation-filters="sRGB">
<feFlood flood-opacity="0" result="BackgroundImageFix"/>
<feGaussianBlur in="BackgroundImageFix" stdDeviation="5"/>
<feComposite in2="SourceAlpha" operator="in" result="effect1_backgroundBlur_281_5"/>
<feBlend mode="normal" in="SourceGraphic" in2="effect1_backgroundBlur_281_5" result="shape"/>
</filter>
</defs>
</svg>
