<svg width="1240" height="200" viewBox="0 0 1240 200" fill="none" xmlns="http://www.w3.org/2000/svg">
<g filter="url(#filter0_b_281_3)">
<circle cx="120" cy="100" r="100" fill="white" fill-opacity="0.1"/>
</g>
<path d="M122.411 44.6049L122.871 150.159C122.871 150.67 123.127 151.079 123.638 151.386C124.149 151.591 125.377 151.744 127.32 151.847L127.474 152H114.126L114.279 151.847C114.995 151.744 115.558 151.591 115.967 151.386C116.376 151.182 116.581 150.619 116.581 149.699V61.3278C115.762 62.7598 114.637 64.3451 113.205 66.0839C111.876 67.7204 110.341 69.1012 108.603 70.2263L108.756 69.9194C110.904 68.3852 112.796 66.2885 114.433 63.6292C116.171 60.9698 117.603 58.3105 118.728 55.6512C119.854 52.9919 120.723 50.6395 121.337 48.5938C121.95 46.4459 122.257 45.1674 122.257 44.7583L122.411 44.6049Z" fill="white" fill-opacity="0.1"/>
<path d="M122.411 44.6049L124.617 44.5953L124.594 39.3022L120.851 43.045L122.411 44.6049ZM122.871 150.159H125.077L125.077 150.149L122.871 150.159ZM123.638 151.386L122.503 153.278L122.655 153.369L122.819 153.435L123.638 151.386ZM127.32 151.847L128.88 150.287L128.281 149.688L127.436 149.644L127.32 151.847ZM127.474 152V154.206H132.799L129.033 150.44L127.474 152ZM114.126 152L112.566 150.44L108.8 154.206H114.126V152ZM114.279 151.847L113.967 149.663L113.239 149.767L112.719 150.287L114.279 151.847ZM115.967 151.386L114.98 149.413L115.967 151.386ZM116.581 61.3278H118.787V53.021L114.665 60.2333L116.581 61.3278ZM113.205 66.0839L111.502 64.6815L111.498 64.6872L111.493 64.6928L113.205 66.0839ZM108.603 70.2263L106.63 69.2397L103.015 76.4697L109.801 72.0784L108.603 70.2263ZM108.756 69.9194L107.474 68.1243L107.028 68.4428L106.783 68.9329L108.756 69.9194ZM114.433 63.6292L112.586 62.4219L112.57 62.4472L112.554 62.473L114.433 63.6292ZM118.728 55.6512L120.76 56.5108L120.76 56.5108L118.728 55.6512ZM121.337 48.5938L123.45 49.2277L123.454 49.2138L123.458 49.1999L121.337 48.5938ZM122.257 44.7583L120.697 43.1984L120.051 43.8445V44.7583H122.257ZM120.205 44.6145L120.665 150.169L125.077 150.149L124.617 44.5953L120.205 44.6145ZM120.665 150.159C120.665 151.586 121.458 152.651 122.503 153.278L124.773 149.495C124.747 149.479 124.838 149.527 124.933 149.68C125.038 149.848 125.077 150.027 125.077 150.159H120.665ZM122.819 153.435C123.359 153.651 124.041 153.765 124.668 153.844C125.355 153.93 126.206 153.997 127.204 154.05L127.436 149.644C126.491 149.594 125.756 149.533 125.216 149.466C124.616 149.391 124.428 149.326 124.457 149.338L122.819 153.435ZM125.76 153.406L125.914 153.56L129.033 150.44L128.88 150.287L125.76 153.406ZM127.474 149.794H114.126V154.206H127.474V149.794ZM115.686 153.56L115.839 153.406L112.719 150.287L112.566 150.44L115.686 153.56ZM114.591 154.03C115.422 153.912 116.246 153.713 116.953 153.359L114.98 149.413C114.87 149.469 114.568 149.577 113.967 149.663L114.591 154.03ZM116.953 153.359C117.803 152.934 118.267 152.208 118.5 151.565C118.725 150.948 118.787 150.293 118.787 149.699H114.375C114.375 149.85 114.366 149.955 114.357 150.021C114.348 150.088 114.341 150.094 114.354 150.057C114.368 150.02 114.411 149.915 114.513 149.788C114.62 149.653 114.776 149.515 114.98 149.413L116.953 153.359ZM118.787 149.699V61.3278H114.375V149.699H118.787ZM114.665 60.2333C113.927 61.5257 112.882 63.0069 111.502 64.6815L114.908 67.4863C116.393 65.6834 117.598 63.9938 118.496 62.4223L114.665 60.2333ZM111.493 64.6928C110.307 66.1529 108.945 67.3771 107.404 68.3742L109.801 72.0784C111.738 70.8252 113.444 69.2879 114.917 67.475L111.493 64.6928ZM110.576 71.2128L110.729 70.906L106.783 68.9329L106.63 69.2397L110.576 71.2128ZM110.038 71.7145C112.465 69.981 114.548 67.6502 116.311 64.7853L112.554 62.473C111.044 64.9268 109.343 66.7895 107.474 68.1243L110.038 71.7145ZM116.279 64.8364C118.083 62.0778 119.579 59.3027 120.76 56.5108L116.697 54.7917C115.628 57.3184 114.26 59.8619 112.586 62.4219L116.279 64.8364ZM120.76 56.5108C121.906 53.8015 122.807 51.3713 123.45 49.2277L119.224 47.9599C118.639 49.9077 117.801 52.1823 116.697 54.7917L120.76 56.5108ZM123.458 49.1999C123.768 48.1134 124.008 47.2225 124.172 46.5388C124.312 45.9565 124.463 45.2718 124.463 44.7583H120.051C120.051 44.6507 120.064 44.6436 120.029 44.8335C120.001 44.989 119.954 45.2109 119.882 45.5092C119.739 46.1041 119.519 46.9264 119.216 47.9878L123.458 49.1999ZM123.817 46.3182L123.97 46.1648L120.851 43.045L120.697 43.1984L123.817 46.3182Z" fill="white" fill-opacity="0.1"/>
<line x1="-4.37114e-08" y1="60.5" x2="1240" y2="60.4999" stroke="white"/>
<defs>
<filter id="filter0_b_281_3" x="10" y="-10" width="220" height="220" filterUnits="userSpaceOnUse" color-interpolation-filters="sRGB">
<feFlood flood-opacity="0" result="BackgroundImageFix"/>
<feGaussianBlur in="BackgroundImageFix" stdDeviation="5"/>
<feComposite in2="SourceAlpha" operator="in" result="effect1_backgroundBlur_281_3"/>
<feBlend mode="normal" in="SourceGraphic" in2="effect1_backgroundBlur_281_3" result="shape"/>
</filter>
</defs>
</svg>
