<svg width="1240" height="200" viewBox="0 0 1240 200" fill="none" xmlns="http://www.w3.org/2000/svg">
<g filter="url(#filter0_b_283_8)">
<circle cx="120" cy="100" r="100" fill="white" fill-opacity="0.1"/>
</g>
<path d="M97.1369 149.852C97.3414 142.59 98.5688 135.993 100.819 130.061C103.069 124.128 105.78 118.656 108.95 113.645C112.121 108.531 115.496 103.826 119.076 99.5298C122.656 95.234 125.98 91.1428 129.049 87.2561C132.117 83.2671 134.623 79.3804 136.566 75.596C138.51 71.8116 139.379 67.9761 139.174 64.0894C138.868 58.3617 136.924 53.5545 133.344 49.6678C129.867 45.7811 124.65 43.7866 117.695 43.6843C113.911 43.6843 110.689 44.1958 108.03 45.2186C105.37 46.2414 103.12 47.6733 101.279 49.5144C99.5405 51.2531 98.1597 53.3499 97.1369 55.8047C96.1141 58.1571 95.3469 60.663 94.8355 63.3223L94.6821 63.4757C95.2958 59.4868 96.4209 56.1115 98.0574 53.3499C99.6939 50.5883 101.74 48.4404 104.194 46.9062C106.751 45.2697 109.615 44.1958 112.786 43.6843C115.957 43.1729 119.332 43.1218 122.912 43.5309C125.98 43.8378 128.895 44.656 131.657 45.9857C134.418 47.213 136.822 48.8495 138.868 50.8952C140.913 52.9408 142.447 55.3444 143.47 58.106C144.595 60.7653 145.004 63.7314 144.698 67.0044C144.391 70.8911 143.112 74.7778 140.862 78.6645C138.714 82.4489 136.055 86.3356 132.884 90.3245C129.816 94.3135 126.492 98.4559 122.912 102.752C119.434 107.047 116.161 111.599 113.093 116.406C110.127 121.213 107.621 126.379 105.575 131.902C103.632 137.425 102.609 143.46 102.507 150.006C102.507 151.131 103.478 151.693 105.422 151.693H139.328C140.862 151.693 142.038 151.54 142.857 151.233C143.777 150.926 144.442 150.057 144.851 148.625C145.362 147.193 145.669 144.943 145.772 141.874C145.874 138.806 145.925 134.459 145.925 128.833L146.078 128.68V152H94.3753L94.5287 151.847C95.6538 151.847 96.3698 151.744 96.6766 151.54C96.9834 151.335 97.1369 150.773 97.1369 149.852Z" fill="white" fill-opacity="0.1"/>
<path d="M97.1369 149.852L94.9317 149.79L94.9309 149.821V149.852H97.1369ZM100.819 130.061L98.7564 129.278L100.819 130.061ZM108.95 113.645L110.815 114.824L110.82 114.816L110.825 114.807L108.95 113.645ZM119.076 99.5298L120.771 100.942V100.942L119.076 99.5298ZM129.049 87.2561L130.78 88.623L130.789 88.6121L130.797 88.6011L129.049 87.2561ZM139.174 64.0894L141.377 63.9735L141.377 63.9714L139.174 64.0894ZM133.344 49.6678L131.7 51.1387L131.711 51.1506L131.722 51.1623L133.344 49.6678ZM117.695 43.6843L117.728 41.4786L117.712 41.4783H117.695V43.6843ZM108.03 45.2186L108.822 47.2775L108.03 45.2186ZM101.279 49.5144L99.7194 47.9545H99.7194L101.279 49.5144ZM97.1369 55.8047L99.1599 56.6842L99.1667 56.6687L99.1732 56.6531L97.1369 55.8047ZM94.8355 63.3223L96.3954 64.8822L96.874 64.4036L97.0019 63.7389L94.8355 63.3223ZM94.6821 63.4757L92.5018 63.1403L91.4771 69.8004L96.242 65.0356L94.6821 63.4757ZM98.0574 53.3499L99.9552 54.4745H99.9552L98.0574 53.3499ZM104.194 46.9062L105.363 48.7769L105.373 48.7706L105.383 48.7643L104.194 46.9062ZM112.786 43.6843L112.435 41.5065L112.786 43.6843ZM122.912 43.5309L122.661 45.7227L122.677 45.7244L122.692 45.726L122.912 43.5309ZM131.657 45.9857L130.7 47.9733L130.73 47.9879L130.761 48.0015L131.657 45.9857ZM138.868 50.8952L137.308 52.455V52.455L138.868 50.8952ZM143.47 58.106L141.402 58.8722L141.419 58.9193L141.439 58.9655L143.47 58.106ZM144.698 67.0044L142.501 66.7985L142.5 66.8147L142.498 66.8308L144.698 67.0044ZM140.862 78.6645L138.953 77.5592L138.948 77.5674L138.943 77.5756L140.862 78.6645ZM132.884 90.3245L131.157 88.9518L131.146 88.9656L131.136 88.9795L132.884 90.3245ZM122.912 102.752L121.217 101.339L121.207 101.351L121.197 101.364L122.912 102.752ZM113.093 116.406L111.233 115.219L111.224 115.233L111.215 115.248L113.093 116.406ZM105.575 131.902L103.506 131.136L103.5 131.153L103.494 131.17L105.575 131.902ZM102.507 150.006L100.301 149.971L100.301 149.988V150.006H102.507ZM142.857 151.233L142.159 149.14L142.12 149.153L142.082 149.167L142.857 151.233ZM144.851 148.625L142.773 147.883L142.749 147.95L142.73 148.019L144.851 148.625ZM145.772 141.874L147.976 141.948L145.772 141.874ZM145.925 128.833L144.365 127.273L143.719 127.92V128.833H145.925ZM146.078 128.68H148.284V123.354L144.518 127.12L146.078 128.68ZM146.078 152V154.206H148.284V152H146.078ZM94.3753 152L92.8154 150.44L89.0495 154.206H94.3753V152ZM94.5287 151.847V149.641H93.6149L92.9688 150.287L94.5287 151.847ZM96.6766 151.54L95.4529 149.704H95.4529L96.6766 151.54ZM99.342 149.914C99.5406 142.863 100.73 136.514 102.882 130.843L98.7564 129.278C96.4071 135.472 95.1422 142.317 94.9317 149.79L99.342 149.914ZM102.882 130.843C105.083 125.04 107.728 119.702 110.815 114.824L107.086 112.465C103.831 117.611 101.056 123.217 98.7564 129.278L102.882 130.843ZM110.825 114.807C113.946 109.774 117.262 105.153 120.771 100.942L117.381 98.1176C113.731 102.498 110.296 107.287 107.075 112.482L110.825 114.807ZM120.771 100.942C124.362 96.6332 127.698 92.5268 130.78 88.623L127.317 85.8891C124.262 89.7588 120.95 93.8348 117.381 98.1176L120.771 100.942ZM130.797 88.6011C133.933 84.525 136.514 80.526 138.529 76.6038L134.604 74.5883C132.731 78.2349 130.301 82.0092 127.3 85.911L130.797 88.6011ZM138.529 76.6038C140.633 72.5059 141.604 68.2851 141.377 63.9735L136.971 64.2054C137.154 67.6671 136.386 71.1174 134.604 74.5883L138.529 76.6038ZM141.377 63.9714C141.045 57.7783 138.925 52.4706 134.967 48.1733L131.722 51.1623C134.923 54.6384 136.69 58.945 136.972 64.2074L141.377 63.9714ZM134.988 48.1968C130.975 43.7118 125.084 41.5867 117.728 41.4786L117.663 45.8901C124.217 45.9865 128.758 47.8504 131.7 51.1387L134.988 48.1968ZM117.695 41.4783C113.724 41.4783 110.218 42.0135 107.238 43.1596L108.822 47.2775C111.16 46.378 114.098 45.8904 117.695 45.8904V41.4783ZM107.238 43.1596C104.318 44.2827 101.799 45.8753 99.7194 47.9545L102.839 51.0742C104.442 49.4713 106.423 48.2001 108.822 47.2775L107.238 43.1596ZM99.7194 47.9545C97.7607 49.9131 96.2251 52.2573 95.1005 54.9562L99.1732 56.6531C100.094 54.4425 101.32 52.5932 102.839 51.0742L99.7194 47.9545ZM95.1138 54.9251C94.0229 57.4341 93.2095 60.0961 92.6692 62.9057L97.0019 63.7389C97.4844 61.2299 98.2052 58.8801 99.1599 56.6842L95.1138 54.9251ZM93.2757 61.7624L93.1222 61.9158L96.242 65.0356L96.3954 64.8822L93.2757 61.7624ZM96.8625 63.8112C97.4439 60.0319 98.4942 56.9399 99.9552 54.4745L96.1596 52.2253C94.3476 55.283 93.1477 58.9416 92.5018 63.1403L96.8625 63.8112ZM99.9552 54.4745C101.432 51.9827 103.239 50.1046 105.363 48.7769L103.025 45.0355C100.24 46.7762 97.9559 49.1939 96.1596 52.2253L99.9552 54.4745ZM105.383 48.7643C107.671 47.2999 110.247 46.3283 113.137 45.8622L112.435 41.5065C108.983 42.0632 105.831 43.2395 103.005 45.0481L105.383 48.7643ZM113.137 45.8622C116.086 45.3865 119.258 45.3337 122.661 45.7227L123.162 41.3392C119.406 40.9099 115.827 40.9593 112.435 41.5065L113.137 45.8622ZM122.692 45.726C125.506 46.0074 128.171 46.756 130.7 47.9733L132.614 43.998C129.619 42.5561 126.454 41.6681 123.131 41.3359L122.692 45.726ZM130.761 48.0015C133.286 49.1239 135.462 50.6094 137.308 52.455L140.427 49.3353C138.182 47.0897 135.55 45.3022 132.553 43.9698L130.761 48.0015ZM137.308 52.455C139.124 54.2717 140.487 56.4032 141.402 58.8722L145.539 57.3398C144.408 54.2856 142.702 51.6098 140.427 49.3353L137.308 52.455ZM141.439 58.9655C142.403 61.2447 142.779 63.838 142.501 66.7985L146.894 67.2103C147.23 63.6249 146.788 60.2859 145.502 57.2464L141.439 58.9655ZM142.498 66.8308C142.221 70.3427 141.063 73.9143 138.953 77.5592L142.771 79.7698C145.161 75.6413 146.56 71.4395 146.897 67.1781L142.498 66.8308ZM138.943 77.5756C136.861 81.2454 134.268 85.0376 131.157 88.9518L134.611 91.6972C137.841 87.6335 140.568 83.6523 142.781 79.7534L138.943 77.5756ZM131.136 88.9795C128.086 92.9434 124.78 97.0633 121.217 101.339L124.606 104.164C128.203 99.8484 131.545 95.6836 134.633 91.6695L131.136 88.9795ZM121.197 101.364C117.666 105.726 114.345 110.345 111.233 115.219L114.952 117.593C117.978 112.853 121.202 108.369 124.626 104.14L121.197 101.364ZM111.215 115.248C108.169 120.184 105.6 125.481 103.506 131.136L107.644 132.668C109.641 127.276 112.084 122.243 114.97 117.565L111.215 115.248ZM103.494 131.17C101.463 136.942 100.406 143.215 100.301 149.971L104.712 150.04C104.811 143.704 105.8 137.908 107.656 132.634L103.494 131.17ZM100.301 150.006C100.301 151.353 100.961 152.504 102.13 153.18C103.116 153.751 104.309 153.899 105.422 153.899V149.487C105.036 149.487 104.756 149.459 104.564 149.422C104.369 149.384 104.314 149.347 104.341 149.362C104.381 149.385 104.501 149.47 104.601 149.643C104.7 149.816 104.713 149.961 104.713 150.006H100.301ZM105.422 153.899H139.328V149.487H105.422V153.899ZM139.328 153.899C140.958 153.899 142.445 153.743 143.631 153.298L142.082 149.167C141.631 149.336 140.766 149.487 139.328 149.487V153.899ZM143.554 153.326C145.478 152.685 146.475 150.972 146.972 149.231L142.73 148.019C142.576 148.559 142.409 148.859 142.293 149.011C142.239 149.082 142.2 149.114 142.185 149.126C142.17 149.136 142.164 149.138 142.159 149.14L143.554 153.326ZM146.928 149.367C147.56 147.597 147.873 145.061 147.976 141.948L143.567 141.801C143.466 144.824 143.164 146.788 142.773 147.883L146.928 149.367ZM147.976 141.948C148.08 138.842 148.131 134.467 148.131 128.833H143.719C143.719 134.451 143.668 138.769 143.567 141.801L147.976 141.948ZM147.485 130.393L147.638 130.24L144.518 127.12L144.365 127.273L147.485 130.393ZM143.872 128.68V152H148.284V128.68H143.872ZM146.078 149.794H94.3753V154.206H146.078V149.794ZM95.9352 153.56L96.0886 153.406L92.9688 150.287L92.8154 150.44L95.9352 153.56ZM94.5287 154.053C95.1451 154.053 95.72 154.025 96.2215 153.954C96.6508 153.892 97.3184 153.763 97.9003 153.375L95.4529 149.704C95.5417 149.645 95.6147 149.61 95.6581 149.591C95.7024 149.571 95.7305 149.563 95.7359 149.561C95.7429 149.559 95.703 149.571 95.5975 149.586C95.3831 149.617 95.0374 149.641 94.5287 149.641V154.053ZM97.9003 153.375C98.6917 152.848 99.0105 152.057 99.1501 151.545C99.2992 150.998 99.3429 150.409 99.3429 149.852H94.9309C94.9309 150.023 94.9236 150.153 94.9138 150.248C94.9038 150.345 94.893 150.386 94.8935 150.384C94.8942 150.382 94.8996 150.362 94.9127 150.33C94.9257 150.298 94.9488 150.247 94.9863 150.184C95.0617 150.059 95.2062 149.869 95.4529 149.704L97.9003 153.375Z" fill="white" fill-opacity="0.1"/>
<line x1="4.37114e-08" y1="63.5" x2="923" y2="63.5001" stroke="white"/>
<line x1="923" y1="63.5" x2="1240" y2="63.5" stroke="#101010"/>
<defs>
<filter id="filter0_b_283_8" x="10" y="-10" width="220" height="220" filterUnits="userSpaceOnUse" color-interpolation-filters="sRGB">
<feFlood flood-opacity="0" result="BackgroundImageFix"/>
<feGaussianBlur in="BackgroundImageFix" stdDeviation="5"/>
<feComposite in2="SourceAlpha" operator="in" result="effect1_backgroundBlur_283_8"/>
<feBlend mode="normal" in="SourceGraphic" in2="effect1_backgroundBlur_283_8" result="shape"/>
</filter>
</defs>
</svg>
