<svg width="49" height="49" viewBox="0 0 49 49" fill="none" xmlns="http://www.w3.org/2000/svg">
<circle cx="24.5" cy="24.5" r="23.5" stroke="white" stroke-width="2"/>
<mask id="path-2-inside-1_433_7" fill="white">
<path d="M34.0173 26.0392L39.9819 17H30.8345L30.6638 17.6633C30.2254 19.3661 29.4029 21.6739 27.9735 22.9986C27.7968 23.1622 27.6295 23.2936 27.4755 23.3989V17H19.5084V18.768H20.2527V22.7749C19.3596 21.9875 18.2374 20.485 17.9435 17.7881L17.8577 17H10L10.2698 18.0957C11.2401 22.0364 12.6955 25.2646 14.5961 27.6908C16.1477 29.6717 17.9957 31.126 20.0886 32.0132C21.9576 32.8057 23.6786 33 24.9168 33C26.0557 33 26.7861 32.8355 26.8474 32.8213L27.5192 32.6643L27.554 30.2356L30.5456 32.8444H40L34.0173 26.0392ZM25.8445 26.4019L25.7762 31.1914C24.7914 31.2793 22.8402 31.2827 20.6869 30.3469C18.8886 29.5653 17.2912 28.2853 15.9392 26.5423C14.3908 24.5463 13.159 21.9347 12.2705 18.768H16.3004C17.1726 23.8388 20.6821 25.1508 20.8384 25.2066L22.0164 25.6278V18.768H25.7119V25.6365L26.6398 25.5879C26.7526 25.5819 27.7773 25.5 28.9874 24.4605C30.3623 23.2792 31.4383 21.3662 32.1904 18.768H36.7007L31.8013 26.1924L36.0948 31.0763H31.2053L25.8445 26.4019Z"/>
</mask>
<path d="M34.0173 26.0392L39.9819 17H30.8345L30.6638 17.6633C30.2254 19.3661 29.4029 21.6739 27.9735 22.9986C27.7968 23.1622 27.6295 23.2936 27.4755 23.3989V17H19.5084V18.768H20.2527V22.7749C19.3596 21.9875 18.2374 20.485 17.9435 17.7881L17.8577 17H10L10.2698 18.0957C11.2401 22.0364 12.6955 25.2646 14.5961 27.6908C16.1477 29.6717 17.9957 31.126 20.0886 32.0132C21.9576 32.8057 23.6786 33 24.9168 33C26.0557 33 26.7861 32.8355 26.8474 32.8213L27.5192 32.6643L27.554 30.2356L30.5456 32.8444H40L34.0173 26.0392ZM25.8445 26.4019L25.7762 31.1914C24.7914 31.2793 22.8402 31.2827 20.6869 30.3469C18.8886 29.5653 17.2912 28.2853 15.9392 26.5423C14.3908 24.5463 13.159 21.9347 12.2705 18.768H16.3004C17.1726 23.8388 20.6821 25.1508 20.8384 25.2066L22.0164 25.6278V18.768H25.7119V25.6365L26.6398 25.5879C26.7526 25.5819 27.7773 25.5 28.9874 24.4605C30.3623 23.2792 31.4383 21.3662 32.1904 18.768H36.7007L31.8013 26.1924L36.0948 31.0763H31.2053L25.8445 26.4019Z" fill="white"/>
<path d="M34.0173 26.0392L28.1747 22.1839L25.2303 26.646L28.76 30.661L34.0173 26.0392ZM39.9819 17L45.8246 20.8553L52.9876 10H39.9819V17ZM30.8345 17V10H25.4083L24.0555 15.2549L30.8345 17ZM30.6638 17.6633L23.8848 15.9182L23.8847 15.9183L30.6638 17.6633ZM27.9735 22.9986L32.729 28.1353L32.7317 28.1327L27.9735 22.9986ZM27.4755 23.3989H20.4755V36.664L31.426 29.1776L27.4755 23.3989ZM27.4755 17H34.4755V10H27.4755V17ZM19.5084 17V10H12.5084V17H19.5084ZM19.5084 18.768H12.5084V25.768H19.5084V18.768ZM20.2527 18.768H27.2527V11.768H20.2527V18.768ZM20.2527 22.7749L15.6234 28.0256L27.2527 38.2786V22.7749H20.2527ZM17.9435 17.7881L10.9847 18.546L10.9847 18.5464L17.9435 17.7881ZM17.8577 17L24.8165 16.2421L24.1367 10H17.8577V17ZM10 17V10H1.06695L3.20308 18.6739L10 17ZM10.2698 18.0957L17.0669 16.4223L17.0668 16.4219L10.2698 18.0957ZM14.5961 27.6908L20.1069 23.3744L20.1066 23.3741L14.5961 27.6908ZM20.0886 32.0132L22.821 25.5686L22.8206 25.5684L20.0886 32.0132ZM26.8474 32.8213L28.4287 39.6403L28.4398 39.6378L26.8474 32.8213ZM27.5192 32.6643L29.1115 39.4808L34.4401 38.236L34.5184 32.7646L27.5192 32.6643ZM27.554 30.2356L32.1546 24.9598L20.771 15.0331L20.5547 30.1354L27.554 30.2356ZM30.5456 32.8444L25.945 38.1203L27.9223 39.8444H30.5456V32.8444ZM40 32.8444V39.8444H55.4743L45.2573 28.2226L40 32.8444ZM25.8445 26.4019L30.4448 21.1259L19.0602 11.1992L18.8452 26.3022L25.8445 26.4019ZM25.7762 31.1914L26.3983 38.1637L32.6857 37.6028L32.7755 31.2911L25.7762 31.1914ZM20.6869 30.3469L17.8964 36.7667L17.8968 36.7668L20.6869 30.3469ZM15.9392 26.5423L21.4703 22.2519L21.4702 22.2518L15.9392 26.5423ZM12.2705 18.768V11.768H3.03618L5.53075 20.659L12.2705 18.768ZM16.3004 18.768L23.1991 17.5813L22.1991 11.768H16.3004V18.768ZM20.8384 25.2066L23.1952 18.6153L23.1898 18.6133L20.8384 25.2066ZM22.0164 25.6278L19.6596 32.2191L29.0164 35.5648V25.6278H22.0164ZM22.0164 18.768V11.768H15.0164V18.768H22.0164ZM25.7119 18.768H32.7119V11.768H25.7119V18.768ZM25.7119 25.6365H18.7119V33.0131L26.0784 32.6269L25.7119 25.6365ZM26.6398 25.5879L27.0062 32.5783L27.0093 32.5781L26.6398 25.5879ZM28.9874 24.4605L33.5488 29.7703L33.5493 29.7699L28.9874 24.4605ZM32.1904 18.768V11.768H26.9293L25.4664 16.8216L32.1904 18.768ZM36.7007 18.768L42.5432 22.6234L49.7067 11.768H36.7007V18.768ZM31.8013 26.1924L25.9587 22.337L23.0142 26.7991L26.5441 30.8143L31.8013 26.1924ZM36.0948 31.0763V38.0763H51.5693L41.3521 26.4544L36.0948 31.0763ZM31.2053 31.0763L26.6049 36.3523L28.5821 38.0763H31.2053V31.0763ZM39.8599 29.8945L45.8246 20.8553L34.1393 13.1447L28.1747 22.1839L39.8599 29.8945ZM39.9819 10H30.8345V24H39.9819V10ZM24.0555 15.2549L23.8848 15.9182L37.4427 19.4084L37.6135 18.7451L24.0555 15.2549ZM23.8847 15.9183C23.7307 16.5168 23.5396 17.0933 23.3299 17.5494C23.2289 17.7693 23.1486 17.9057 23.1034 17.9739C23.0559 18.0455 23.0835 17.9866 23.2153 17.8645L32.7317 28.1327C35.7681 25.3187 36.9755 21.2237 37.4428 19.4082L23.8847 15.9183ZM23.218 17.8619C23.2864 17.7987 23.3873 17.7143 23.5249 17.6203L31.426 29.1776C31.8717 28.8729 32.3072 28.5257 32.729 28.1353L23.218 17.8619ZM34.4755 23.3989V17H20.4755V23.3989H34.4755ZM27.4755 10H19.5084V24H27.4755V10ZM12.5084 17V18.768H26.5084V17H12.5084ZM19.5084 25.768H20.2527V11.768H19.5084V25.768ZM13.2527 18.768V22.7749H27.2527V18.768H13.2527ZM24.882 17.5242C24.9423 17.5774 24.987 17.6256 25.0188 17.6653C25.0513 17.7059 25.0634 17.7289 25.0616 17.7255C25.0599 17.7224 25.0358 17.6766 25.0048 17.5741C24.9737 17.4708 24.9312 17.2947 24.9023 17.0298L10.9847 18.5464C11.4763 23.0579 13.4816 26.1373 15.6234 28.0256L24.882 17.5242ZM24.9024 17.0302L24.8165 16.2421L10.8988 17.7579L10.9847 18.546L24.9024 17.0302ZM17.8577 10H10V24H17.8577V10ZM3.20308 18.6739L3.47293 19.7696L17.0668 16.4219L16.7969 15.3261L3.20308 18.6739ZM3.47283 19.7692C4.60833 24.3811 6.41281 28.5957 9.08566 32.0076L20.1066 23.3741C18.9782 21.9336 17.8718 19.6916 17.0669 16.4223L3.47283 19.7692ZM9.0854 32.0073C11.2881 34.8195 14.0587 37.0601 17.3565 38.4581L22.8206 25.5684C21.9326 25.192 21.0073 24.5239 20.1069 23.3744L9.0854 32.0073ZM17.3561 38.4579C20.2726 39.6944 22.9614 40 24.9168 40V26C24.3957 26 23.6426 25.9169 22.821 25.5686L17.3561 38.4579ZM24.9168 40C26.7143 40 27.9883 39.7425 28.4287 39.6403L25.2661 26.0022C25.5838 25.9286 25.3972 26 24.9168 26V40ZM28.4398 39.6378L29.1115 39.4808L25.9268 25.8479L25.255 26.0048L28.4398 39.6378ZM34.5184 32.7646L34.5532 30.3359L20.5547 30.1354L20.5199 32.5641L34.5184 32.7646ZM22.9533 35.5115L25.945 38.1203L35.1463 27.5686L32.1546 24.9598L22.9533 35.5115ZM30.5456 39.8444H40V25.8444H30.5456V39.8444ZM45.2573 28.2226L39.2746 21.4174L28.76 30.661L34.7427 37.4663L45.2573 28.2226ZM18.8452 26.3022L18.777 31.0918L32.7755 31.2911L32.8437 26.5016L18.8452 26.3022ZM25.1542 24.2191C24.9035 24.2415 24.2196 24.2497 23.477 23.927L17.8968 36.7668C21.4607 38.3157 24.6793 38.3171 26.3983 38.1637L25.1542 24.2191ZM23.4773 23.9271C22.8856 23.67 22.1933 23.184 21.4703 22.2519L10.4082 30.8327C12.3892 33.3866 14.8915 35.4606 17.8964 36.7667L23.4773 23.9271ZM21.4702 22.2518C20.6162 21.151 19.7251 19.425 19.0102 16.877L5.53075 20.659C6.59287 24.4445 8.16543 27.9416 10.4083 30.8329L21.4702 22.2518ZM12.2705 25.768H16.3004V11.768H12.2705V25.768ZM9.4017 19.9547C10.8771 28.5317 17.1118 31.3094 18.487 31.7999L23.1898 18.6133C23.4867 18.7192 23.6294 18.7953 23.6806 18.8248C23.7356 18.8565 23.7289 18.8599 23.6938 18.8261C23.6646 18.798 23.5924 18.7224 23.5082 18.5671C23.4261 18.4158 23.2903 18.1117 23.1991 17.5813L9.4017 19.9547ZM18.4816 31.7979L19.6596 32.2191L24.3733 19.0365L23.1952 18.6153L18.4816 31.7979ZM29.0164 25.6278V18.768H15.0164V25.6278H29.0164ZM22.0164 25.768H25.7119V11.768H22.0164V25.768ZM18.7119 18.768V25.6365H32.7119V18.768H18.7119ZM26.0784 32.6269L27.0062 32.5783L26.2734 18.5975L25.3455 18.6461L26.0784 32.6269ZM27.0093 32.5781C28.2832 32.5108 30.9041 32.0422 33.5488 29.7703L24.426 19.1507C24.6506 18.9578 25.2221 18.6531 26.2703 18.5977L27.0093 32.5781ZM33.5493 29.7699C36.3483 27.3649 37.959 24.0148 38.9143 20.7143L25.4664 16.8216C25.2065 17.7196 24.9388 18.3273 24.7217 18.7133C24.506 19.0966 24.3813 19.1892 24.4256 19.1511L33.5493 29.7699ZM32.1904 25.768H36.7007V11.768H32.1904V25.768ZM30.8582 14.9125L25.9587 22.337L37.6438 30.0479L42.5432 22.6234L30.8582 14.9125ZM26.5441 30.8143L30.8376 35.6981L41.3521 26.4544L37.0585 21.5706L26.5441 30.8143ZM36.0948 24.0763H31.2053V38.0763H36.0948V24.0763ZM35.8057 25.8002L30.4448 21.1259L21.2441 31.6779L26.6049 36.3523L35.8057 25.8002Z" fill="white" mask="url(#path-2-inside-1_433_7)"/>
</svg>
